<?xml version="1.0" encoding="UTF-8" standalone="no"?>
<!DOCTYPE svg  PUBLIC '-//W3C//DTD SVG 1.1//EN'  'http://www.w3.org/Graphics/SVG/1.1/DTD/svg11.dtd'>
<svg version="1.1" xmlns="http://www.w3.org/2000/svg">
<defs>
<font id="ProximaNova-Thin" horiz-adv-x="528">
<font-face underline-thickness="20" ascent="790" font-family="Proxima Nova" bbox="-171 -258 1059 906" stemh="30" underline-position="-133" cap-height="667" units-per-em="1000" stemv="30" font-weight="250" x-height="483" unicode-range="U+000D-FB04" descent="-210" panose-1="2 0 5 6 3 0 0 2 0 4"/>
<missing-glyph horiz-adv-x="527" d="M439 -90h-351v842h351v-842zM407 -60v782h-288v-782h288z"/>
<glyph horiz-adv-x="812" unicode="fb" glyph-name="f_b" d="M130 0h-30v456h-80v27h80v51c0 90 45 143 121 143c21 0 40 -3 57 -13l-13 -26c-12 7 -25 12 -44 12c-61 0 -91 -43 -91 -116v-51h98v-27h-98v-456zM362 111c30 -51 99 -96 174 -96c118 0 183 99 183 226s-65 227 -183 227c-75 0 -144 -47 -174 -98v-259zM362 0h-30v667 h30v-267c39 57 102 95 174 95c130 0 216 -102 216 -254c0 -153 -86 -253 -216 -253c-76 0 -141 43 -174 93v-81z"/>
<glyph horiz-adv-x="492" unicode="ff" glyph-name="f_f" d="M130 0h-30v456h-80v27h80v51c0 90 45 143 121 143c31 0 51 -5 82 -30l-18 -24c-17 16 -38 27 -64 27c-61 0 -91 -43 -91 -116v-51h98v-27h-98v-456zM376 0h-30v456h-80v27h80v51c0 90 45 143 121 143c31 0 51 -5 82 -30l-18 -24c-17 16 -38 27 -64 27 c-61 0 -91 -43 -91 -116v-51h98v-27h-98v-456z"/>
<glyph horiz-adv-x="774" unicode="fh" glyph-name="f_h" d="M130 0h-30v456h-80v27h80v51c0 90 45 143 121 143c21 0 40 -3 57 -13l-13 -26c-12 7 -25 12 -44 12c-61 0 -91 -43 -91 -116v-51h98v-27h-98v-456zM688 0h-30v339c0 101 -50 129 -125 129c-66 0 -137 -43 -171 -91v-377h-30v667h30v-260c36 44 108 88 175 88 c96 0 151 -42 151 -156v-339z"/>
<glyph horiz-adv-x="448" unicode="fi" glyph-name="fi" d="M130 0h-30v456h-80v27h80v51c0 90 45 143 121 143c21 0 40 -3 57 -13l-13 -26c-12 7 -25 12 -44 12c-61 0 -91 -43 -91 -116v-51h98v-27h-98v-456zM347 566c-15 0 -29 13 -29 29s14 29 29 29c16 0 29 -13 29 -29s-13 -29 -29 -29zM362 0h-30v483h30v-483z"/>
<glyph horiz-adv-x="448" unicode="fj" glyph-name="f_j" d="M130 0h-30v456h-80v27h80v51c0 90 45 143 121 143c21 0 40 -3 57 -13l-13 -26c-12 7 -25 12 -44 12c-61 0 -91 -43 -91 -116v-51h98v-27h-98v-456zM347 566c-15 0 -29 13 -29 29s14 29 29 29c16 0 29 -13 29 -29s-13 -29 -29 -29zM243 -196c-38 0 -65 13 -92 38l19 25 c16 -18 42 -36 73 -36c50 0 89 27 89 93v559h30v-559c0 -83 -46 -120 -119 -120z"/>
<glyph horiz-adv-x="742" unicode="fk" glyph-name="f_k" d="M130 0h-30v456h-80v27h80v51c0 90 45 143 121 143c21 0 40 -3 57 -13l-13 -26c-12 7 -25 12 -44 12c-61 0 -91 -43 -91 -116v-51h98v-27h-98v-456zM717 0h-43l-212 243l-100 -92v-151h-30v667h30v-478l315 294h43l-235 -218z"/>
<glyph horiz-adv-x="448" unicode="fl" glyph-name="fl" d="M130 0h-30v456h-80v27h80v51c0 90 45 143 121 143c21 0 40 -3 57 -13l-13 -26c-12 7 -25 12 -44 12c-61 0 -91 -43 -91 -116v-51h98v-27h-98v-456zM362 0h-30v667h30v-667z"/>
<glyph horiz-adv-x="694" unicode="ffi" glyph-name="f_f_i" d="M376 0h-30v456h-80v27h80v51c0 90 45 143 121 143c21 0 40 -3 57 -13l-13 -26c-12 7 -25 12 -44 12c-61 0 -91 -43 -91 -116v-51h98v-27h-98v-456zM593 566c-15 0 -29 13 -29 29s14 29 29 29c16 0 29 -13 29 -29s-13 -29 -29 -29zM608 0h-30v483h30v-483zM130 0h-30v456 h-80v27h80v51c0 90 45 143 121 143c31 0 51 -5 82 -30l-18 -24c-17 16 -38 27 -64 27c-61 0 -91 -43 -91 -116v-51h98v-27h-98v-456z"/>
<glyph horiz-adv-x="694" unicode="ffj" glyph-name="f_f_j" d="M376 0h-30v456h-80v27h80v51c0 90 45 143 121 143c21 0 40 -3 57 -13l-13 -26c-12 7 -25 12 -44 12c-61 0 -91 -43 -91 -116v-51h98v-27h-98v-456zM593 566c-15 0 -29 13 -29 29s14 29 29 29c16 0 29 -13 29 -29s-13 -29 -29 -29zM489 -196c-38 0 -65 13 -92 38l19 25 c16 -18 42 -36 73 -36c50 0 89 27 89 93v559h30v-559c0 -83 -46 -120 -119 -120zM130 0h-30v456h-80v27h80v51c0 90 45 143 121 143c31 0 51 -5 82 -30l-18 -24c-17 16 -38 27 -64 27c-61 0 -91 -43 -91 -116v-51h98v-27h-98v-456z"/>
<glyph horiz-adv-x="694" unicode="ffl" glyph-name="f_f_l" d="M376 0h-30v456h-80v27h80v51c0 90 45 143 121 143c21 0 40 -3 57 -13l-13 -26c-12 7 -25 12 -44 12c-61 0 -91 -43 -91 -116v-51h98v-27h-98v-456zM608 0h-30v667h30v-667zM130 0h-30v456h-80v27h80v51c0 90 45 143 121 143c31 0 51 -5 82 -30l-18 -24 c-17 16 -38 27 -64 27c-61 0 -91 -43 -91 -116v-51h98v-27h-98v-456z"/>
<glyph horiz-adv-x="527" glyph-name=".notdef" d="M439 -90h-351v842h351v-842zM407 -60v782h-288v-782h288z"/>
<glyph horiz-adv-x="0" glyph-name=".null"/>
<glyph horiz-adv-x="0" glyph-name=".null"/>
<glyph horiz-adv-x="0" unicode="" glyph-name="CR"/>
<glyph horiz-adv-x="260" unicode=" " glyph-name="space"/>
<glyph horiz-adv-x="260" unicode=" " glyph-name="nbspace"/>
<glyph horiz-adv-x="52" unicode=" " glyph-name="thinspace"/>
<glyph horiz-adv-x="605" unicode="0" glyph-name="zero" d="M303 -12c-176 0 -238 191 -238 345c0 155 62 344 238 344c175 0 237 -189 237 -344c0 -154 -62 -345 -237 -345zM303 18c153 0 202 174 202 315c0 142 -48 314 -202 314s-203 -172 -203 -314c0 -141 49 -315 203 -315z"/>
<glyph horiz-adv-x="605" glyph-name="zero.pzero" d="M303 -12c-65 0 -114 26 -150 66l-32 -54h-36l47 79c-48 70 -67 167 -67 254c0 155 62 344 238 344c63 0 112 -25 148 -64l32 54h36l-48 -80c49 -69 69 -167 69 -254c0 -154 -62 -345 -237 -345zM303 18c153 0 202 174 202 315c0 77 -14 162 -51 225l-284 -476 c31 -39 74 -64 133 -64zM100 333c0 -76 14 -161 50 -223l284 475c-31 38 -74 62 -131 62c-154 0 -203 -172 -203 -314z"/>
<glyph horiz-adv-x="277" unicode="1" glyph-name="one" d="M189 0h-32v621l-105 -115l-22 23l129 138h30v-667z"/>
<glyph horiz-adv-x="577" unicode="2" glyph-name="two" d="M480 0h-421v28c213 177 387 325 387 468c0 108 -87 151 -166 151c-85 0 -150 -37 -184 -90l-26 19c41 61 117 101 211 101c85 0 197 -49 197 -181c0 -156 -174 -301 -372 -466h374v-30z"/>
<glyph horiz-adv-x="531" unicode="3" glyph-name="three" d="M252 -12c-105 0 -181 52 -216 112l28 16c34 -55 97 -98 188 -98c110 0 181 60 181 159c0 109 -91 153 -193 153c-27 0 -46 0 -56 -1v32c10 -1 28 -1 56 -1c93 0 183 42 183 143c0 92 -80 144 -171 144c-80 0 -132 -31 -182 -90l-25 20c44 56 115 100 207 100 c104 0 203 -61 203 -174c0 -108 -90 -149 -142 -158c55 -5 152 -54 152 -168c0 -108 -77 -189 -213 -189z"/>
<glyph horiz-adv-x="524" unicode="4" glyph-name="four" d="M385 0h-32v195h-315v33l305 439h42v-442h101v-30h-101v-195zM353 225v406l-280 -406h280z"/>
<glyph horiz-adv-x="574" unicode="5" glyph-name="five" d="M297 -12c-110 0 -173 44 -216 112l26 19c43 -65 99 -101 190 -101c102 0 180 77 180 180c0 113 -78 182 -180 182c-62 0 -117 -21 -168 -69l-27 16v340h364v-30h-332v-291c33 32 91 64 163 64c111 0 212 -72 212 -212c0 -130 -101 -210 -212 -210z"/>
<glyph horiz-adv-x="577" unicode="6" glyph-name="six" d="M297 -12c-173 0 -232 169 -232 345c0 162 59 344 238 344c89 0 138 -37 175 -90l-24 -21c-32 46 -73 81 -151 81c-157 0 -206 -171 -206 -324c0 -12 0 -24 1 -36c27 46 107 119 203 119c120 0 211 -68 211 -210c0 -102 -75 -208 -215 -208zM297 18c125 0 183 99 183 178 c0 121 -75 180 -180 180c-80 0 -158 -55 -198 -130c9 -99 60 -228 195 -228z"/>
<glyph horiz-adv-x="489" unicode="7" glyph-name="seven" d="M158 0h-36l293 637h-379v30h417v-22z"/>
<glyph horiz-adv-x="561" unicode="8" glyph-name="eight" d="M281 -12c-126 0 -215 73 -215 177c0 97 87 157 173 179c-80 19 -162 71 -162 162c0 116 104 171 204 171c98 0 204 -55 204 -171c0 -91 -82 -143 -162 -162c86 -22 172 -82 172 -179c0 -103 -90 -177 -214 -177zM281 359c41 8 172 40 172 147c0 89 -79 141 -172 141 c-94 0 -172 -52 -172 -141c0 -107 132 -139 172 -147zM281 18c93 0 182 55 182 147c0 115 -142 160 -182 165c-41 -5 -183 -50 -183 -165c0 -92 88 -147 183 -147z"/>
<glyph horiz-adv-x="577" unicode="9" glyph-name="nine" d="M274 -11c-89 0 -138 37 -175 90l24 21c32 -46 73 -81 151 -81c157 0 206 171 206 324c0 12 0 24 -1 36c-27 -46 -107 -119 -203 -119c-120 0 -211 68 -211 210c0 102 75 208 215 208c173 0 232 -169 232 -345c0 -162 -59 -344 -238 -344zM277 290c80 0 158 55 198 130 c-9 99 -60 228 -195 228c-125 0 -183 -99 -183 -178c0 -121 75 -180 180 -180z"/>
<glyph horiz-adv-x="577" unicode="" glyph-name="zero.tnum" d="M289 -12c-176 0 -238 191 -238 345c0 155 62 344 238 344c175 0 237 -189 237 -344c0 -154 -62 -345 -237 -345zM289 18c153 0 202 174 202 315c0 142 -48 314 -202 314s-203 -172 -203 -314c0 -141 49 -315 203 -315z"/>
<glyph horiz-adv-x="577" unicode="" glyph-name="zero.tzero" d="M289 -12c-65 0 -114 26 -150 66l-32 -54h-36l47 79c-48 70 -67 167 -67 254c0 155 62 344 238 344c63 0 112 -25 148 -64l32 54h36l-48 -80c49 -69 69 -167 69 -254c0 -154 -62 -345 -237 -345zM289 18c153 0 202 174 202 315c0 77 -14 162 -51 225l-284 -476 c31 -39 74 -64 133 -64zM86 333c0 -76 14 -161 50 -223l284 475c-31 38 -74 62 -131 62c-154 0 -203 -172 -203 -314z"/>
<glyph horiz-adv-x="577" unicode="" glyph-name="one.tnum" d="M348 0h-32v621l-105 -115l-22 23l129 138h30v-667z"/>
<glyph horiz-adv-x="577" unicode="" glyph-name="two.tnum" d="M491 0h-421v28c213 177 387 325 387 468c0 108 -87 151 -166 151c-85 0 -150 -37 -184 -90l-26 19c41 61 117 101 211 101c85 0 197 -49 197 -181c0 -156 -174 -301 -372 -466h374v-30z"/>
<glyph horiz-adv-x="577" unicode="" glyph-name="three.tnum" d="M290 -12c-105 0 -181 52 -216 112l28 16c34 -55 97 -98 188 -98c110 0 181 60 181 159c0 109 -91 153 -193 153c-27 0 -46 0 -56 -1v32c10 -1 28 -1 56 -1c93 0 183 42 183 143c0 92 -80 144 -171 144c-80 0 -132 -31 -182 -90l-25 20c44 56 115 100 207 100 c104 0 203 -61 203 -174c0 -108 -90 -149 -142 -158c55 -5 152 -54 152 -168c0 -108 -77 -189 -213 -189z"/>
<glyph horiz-adv-x="577" unicode="" glyph-name="four.tnum" d="M411 0h-32v195h-315v33l305 439h42v-442h101v-30h-101v-195zM379 225v406l-280 -406h280z"/>
<glyph horiz-adv-x="577" unicode="" glyph-name="five.tnum" d="M299 -12c-110 0 -173 44 -216 112l26 19c43 -65 99 -101 190 -101c102 0 180 77 180 180c0 113 -78 182 -180 182c-62 0 -117 -21 -168 -69l-27 16v340h364v-30h-332v-291c33 32 91 64 163 64c111 0 212 -72 212 -212c0 -130 -101 -210 -212 -210z"/>
<glyph horiz-adv-x="577" unicode="" glyph-name="six.tnum" d="M302 -12c-173 0 -232 169 -232 345c0 162 59 344 238 344c89 0 138 -37 175 -90l-24 -21c-32 46 -73 81 -151 81c-157 0 -206 -171 -206 -324c0 -12 0 -24 1 -36c27 46 107 119 203 119c120 0 211 -68 211 -210c0 -102 -75 -208 -215 -208zM302 18c125 0 183 99 183 178 c0 121 -75 180 -180 180c-80 0 -158 -55 -198 -130c9 -99 60 -228 195 -228z"/>
<glyph horiz-adv-x="577" unicode="" glyph-name="seven.tnum" d="M202 0h-36l293 637h-379v30h417v-22z"/>
<glyph horiz-adv-x="577" unicode="" glyph-name="eight.tnum" d="M289 -12c-126 0 -215 73 -215 177c0 97 87 157 173 179c-80 19 -162 71 -162 162c0 116 104 171 204 171c98 0 204 -55 204 -171c0 -91 -82 -143 -162 -162c86 -22 172 -82 172 -179c0 -103 -90 -177 -214 -177zM289 359c41 8 172 40 172 147c0 89 -79 141 -172 141 c-94 0 -172 -52 -172 -141c0 -107 132 -139 172 -147zM289 18c93 0 182 55 182 147c0 115 -142 160 -182 165c-41 -5 -183 -50 -183 -165c0 -92 88 -147 183 -147z"/>
<glyph horiz-adv-x="577" unicode="" glyph-name="nine.tnum" d="M269 -11c-89 0 -138 37 -175 90l24 21c32 -46 73 -81 151 -81c157 0 206 171 206 324c0 12 0 24 -1 36c-27 -46 -107 -119 -203 -119c-120 0 -211 68 -211 210c0 102 75 208 215 208c173 0 232 -169 232 -345c0 -162 -59 -344 -238 -344zM272 290c80 0 158 55 198 130 c-9 99 -60 228 -195 228c-125 0 -183 -99 -183 -178c0 -121 75 -180 180 -180z"/>
<glyph horiz-adv-x="577" unicode="" glyph-name="zero.tonum" d="M526 275c0 -137 -69 -287 -237 -287c-169 0 -238 150 -238 287c0 138 69 287 238 287c168 0 237 -149 237 -287zM491 275c0 124 -54 257 -202 257s-203 -133 -203 -257s55 -257 203 -257c147 0 202 133 202 257z"/>
<glyph horiz-adv-x="577" glyph-name="zero.tonumzero" d="M526 275c0 -137 -69 -287 -237 -287c-64 0 -113 21 -150 54l-29 -42h-36l45 64c-47 56 -68 135 -68 211c0 138 69 287 238 287c59 0 106 -19 142 -49l25 37h36l-40 -57c51 -56 74 -139 74 -218zM491 275c0 69 -17 141 -57 191l-277 -398c32 -31 75 -50 132 -50 c147 0 202 133 202 257zM86 275c0 -66 15 -134 52 -184l275 397c-31 27 -72 44 -124 44c-148 0 -203 -133 -203 -257z"/>
<glyph horiz-adv-x="577" unicode="" glyph-name="one.tonum" d="M348 0h-32v504l-105 -115l-22 23l129 138h30v-550z"/>
<glyph horiz-adv-x="577" unicode="" glyph-name="two.tonum" d="M483 0h-399v29c243 114 377 234 377 355c0 87 -75 148 -166 148c-85 0 -160 -37 -194 -90l-26 19c41 61 127 101 221 101c103 0 197 -68 197 -178c0 -135 -145 -265 -344 -354h334v-30z"/>
<glyph horiz-adv-x="577" unicode="" glyph-name="three.tonum" d="M290 -137c-105 0 -181 52 -216 112l28 16c34 -55 97 -98 188 -98c110 0 181 60 181 159c0 109 -91 153 -193 153c-27 0 -46 0 -56 -1v32c10 -1 28 -1 56 -1c93 0 183 42 183 143c0 92 -80 144 -171 144c-80 0 -132 -31 -182 -90l-25 20c44 56 115 100 207 100 c104 0 203 -61 203 -174c0 -108 -90 -149 -142 -158c55 -5 152 -54 152 -168c0 -108 -77 -189 -213 -189z"/>
<glyph horiz-adv-x="577" unicode="" glyph-name="four.tonum" d="M512 78h-101v-195h-32v195h-315v33l305 439h42v-442h101v-30zM379 108v406l-280 -406h280z"/>
<glyph horiz-adv-x="577" unicode="" glyph-name="five.tonum" d="M299 -129c-110 0 -173 44 -216 112l26 19c43 -65 99 -101 190 -101c102 0 180 77 180 180c0 113 -78 182 -180 182c-62 0 -117 -21 -168 -69l-27 16v340h364v-30h-332v-291c33 32 91 64 163 64c111 0 212 -72 212 -212c0 -130 -101 -210 -212 -210z"/>
<glyph horiz-adv-x="577" unicode="" glyph-name="six.tonum" d="M302 -12c-173 0 -232 169 -232 345c0 162 59 344 238 344c89 0 138 -37 175 -90l-24 -21c-32 46 -73 81 -151 81c-157 0 -206 -171 -206 -324c0 -12 0 -24 1 -36c27 46 107 119 203 119c120 0 211 -68 211 -210c0 -102 -75 -208 -215 -208zM302 18c125 0 183 99 183 178 c0 121 -75 180 -180 180c-80 0 -158 -55 -198 -130c9 -99 60 -228 195 -228z"/>
<glyph horiz-adv-x="577" unicode="" glyph-name="seven.tonum" d="M202 -117h-36l293 637h-379v30h417v-22z"/>
<glyph horiz-adv-x="577" unicode="" glyph-name="eight.tonum" d="M289 -12c-126 0 -215 73 -215 177c0 97 87 157 173 179c-80 19 -162 71 -162 162c0 116 104 171 204 171c98 0 204 -55 204 -171c0 -91 -82 -143 -162 -162c86 -22 172 -82 172 -179c0 -103 -90 -177 -214 -177zM289 359c41 8 172 40 172 147c0 89 -79 141 -172 141 c-94 0 -172 -52 -172 -141c0 -107 132 -139 172 -147zM289 18c93 0 182 55 182 147c0 115 -142 160 -182 165c-41 -5 -183 -50 -183 -165c0 -92 88 -147 183 -147z"/>
<glyph horiz-adv-x="577" unicode="" glyph-name="nine.tonum" d="M269 -127c-89 0 -138 37 -175 90l24 21c32 -46 73 -81 151 -81c157 0 206 171 206 324c0 12 0 24 -1 36c-27 -46 -107 -119 -203 -119c-120 0 -211 68 -211 210c0 102 75 208 215 208c173 0 232 -169 232 -345c0 -162 -59 -344 -238 -344zM272 174c80 0 158 55 198 130 c-9 99 -60 228 -195 228c-125 0 -183 -99 -183 -178c0 -121 75 -180 180 -180z"/>
<glyph horiz-adv-x="605" unicode="" glyph-name="zero.onum" d="M540 275c0 -137 -69 -287 -237 -287c-169 0 -238 150 -238 287c0 138 69 287 238 287c168 0 237 -149 237 -287zM505 275c0 124 -54 257 -202 257s-203 -133 -203 -257s55 -257 203 -257c147 0 202 133 202 257z"/>
<glyph horiz-adv-x="605" glyph-name="zero.onumzero" d="M540 275c0 -137 -69 -287 -237 -287c-64 0 -113 21 -150 54l-29 -42h-36l45 64c-47 56 -68 135 -68 211c0 138 69 287 238 287c59 0 106 -19 142 -49l25 37h36l-40 -57c51 -56 74 -139 74 -218zM505 275c0 69 -17 141 -57 191l-277 -398c32 -31 75 -50 132 -50 c147 0 202 133 202 257zM100 275c0 -66 15 -134 52 -184l275 397c-31 27 -72 44 -124 44c-148 0 -203 -133 -203 -257z"/>
<glyph horiz-adv-x="277" unicode="" glyph-name="one.onum" d="M189 0h-32v504l-105 -115l-22 23l129 138h30v-550z"/>
<glyph horiz-adv-x="574" unicode="" glyph-name="two.onum" d="M467 0h-399v29c243 114 377 234 377 355c0 87 -75 148 -166 148c-85 0 -160 -37 -194 -90l-26 19c41 61 127 101 221 101c103 0 197 -68 197 -178c0 -135 -145 -265 -344 -354h334v-30z"/>
<glyph horiz-adv-x="531" unicode="" glyph-name="three.onum" d="M252 -129c-105 0 -181 52 -216 112l28 16c34 -55 97 -98 188 -98c110 0 181 60 181 159c0 109 -91 153 -193 153c-27 0 -46 0 -56 -1v32c10 -1 28 -1 56 -1c93 0 183 42 183 143c0 92 -80 144 -171 144c-80 0 -132 -31 -182 -90l-25 20c44 56 115 100 207 100 c104 0 203 -61 203 -174c0 -108 -90 -149 -142 -158c55 -5 152 -54 152 -168c0 -108 -77 -189 -213 -189z"/>
<glyph horiz-adv-x="524" unicode="" glyph-name="four.onum" d="M486 78h-101v-195h-32v195h-315v33l305 439h42v-442h101v-30zM353 108v406l-280 -406h280z"/>
<glyph horiz-adv-x="574" unicode="" glyph-name="five.onum" d="M297 -129c-110 0 -173 44 -216 112l26 19c43 -65 99 -101 190 -101c102 0 180 77 180 180c0 113 -78 182 -180 182c-62 0 -117 -21 -168 -69l-27 16v340h364v-30h-332v-291c33 32 91 64 163 64c111 0 212 -72 212 -212c0 -130 -101 -210 -212 -210z"/>
<glyph horiz-adv-x="577" unicode="" glyph-name="six.onum" d="M297 -12c-173 0 -232 169 -232 345c0 162 59 344 238 344c89 0 138 -37 175 -90l-24 -21c-32 46 -73 81 -151 81c-157 0 -206 -171 -206 -324c0 -12 0 -24 1 -36c27 46 107 119 203 119c120 0 211 -68 211 -210c0 -102 -75 -208 -215 -208zM297 18c125 0 183 99 183 178 c0 121 -75 180 -180 180c-80 0 -158 -55 -198 -130c9 -99 60 -228 195 -228z"/>
<glyph horiz-adv-x="489" unicode="" glyph-name="seven.onum" d="M158 -117h-36l293 637h-379v30h417v-22z"/>
<glyph horiz-adv-x="561" unicode="" glyph-name="eight.onum" d="M281 -12c-126 0 -215 73 -215 177c0 97 87 157 173 179c-80 19 -162 71 -162 162c0 116 104 171 204 171c98 0 204 -55 204 -171c0 -91 -82 -143 -162 -162c86 -22 172 -82 172 -179c0 -103 -90 -177 -214 -177zM281 359c41 8 172 40 172 147c0 89 -79 141 -172 141 c-94 0 -172 -52 -172 -141c0 -107 132 -139 172 -147zM281 18c93 0 182 55 182 147c0 115 -142 160 -182 165c-41 -5 -183 -50 -183 -165c0 -92 88 -147 183 -147z"/>
<glyph horiz-adv-x="577" unicode="" glyph-name="nine.onum" d="M274 -128c-89 0 -138 37 -175 90l24 21c32 -46 73 -81 151 -81c157 0 206 171 206 324c0 12 0 24 -1 36c-27 -46 -107 -119 -203 -119c-120 0 -211 68 -211 210c0 102 75 208 215 208c173 0 232 -169 232 -345c0 -162 -59 -344 -238 -344zM277 173c80 0 158 55 198 130 c-9 99 -60 228 -195 228c-125 0 -183 -99 -183 -178c0 -121 75 -180 180 -180z"/>
<glyph horiz-adv-x="636" unicode="A" glyph-name="A" d="M615 0h-37l-74 179h-372l-74 -179h-37l278 667h38zM492 209l-174 421l-174 -421h348z"/>
<glyph horiz-adv-x="600" unicode="B" glyph-name="B" d="M343 0h-255v667h251c107 0 182 -60 182 -170c0 -84 -59 -141 -118 -153c71 -11 131 -87 131 -164c0 -114 -74 -180 -191 -180zM339 358c98 0 147 62 147 139c0 76 -49 140 -147 140h-219v-279h219zM343 30c98 0 156 58 156 149c0 76 -52 149 -156 149h-223v-298h223z"/>
<glyph horiz-adv-x="667" unicode="C" glyph-name="C" d="M398 -12c-185 0 -333 140 -333 345s148 345 333 345c94 0 173 -37 232 -105l-25 -22c-47 59 -124 97 -207 97c-167 0 -298 -127 -298 -315c0 -186 131 -315 298 -315c83 0 160 38 207 97l26 -21c-63 -71 -139 -106 -233 -106z"/>
<glyph horiz-adv-x="684" unicode="D" glyph-name="D" d="M286 0h-198v667h198c207 0 332 -156 332 -334c0 -180 -125 -333 -332 -333zM286 30c189 0 297 134 297 303c0 167 -108 304 -297 304h-166v-607h166z"/>
<glyph horiz-adv-x="558" unicode="E" glyph-name="E" d="M496 0h-408v667h408v-30h-376v-279h369v-30h-369v-298h376v-30z"/>
<glyph horiz-adv-x="533" unicode="F" glyph-name="F" d="M120 0h-32v667h408v-30h-376v-279h369v-30h-369v-328z"/>
<glyph horiz-adv-x="708" unicode="G" glyph-name="G" d="M398 -13c-185 0 -333 141 -333 346s148 345 333 345c101 0 179 -36 244 -103l-21 -22c-52 59 -134 95 -223 95c-167 0 -298 -127 -298 -315c0 -186 131 -316 298 -316c98 0 173 49 212 90v183h-275v30h307v-226c-57 -64 -144 -107 -244 -107z"/>
<glyph horiz-adv-x="708" glyph-name="G.alt1" d="M398 -13c-185 0 -333 141 -333 346s148 345 333 345c101 0 179 -36 244 -103l-21 -22c-52 59 -134 95 -223 95c-167 0 -298 -127 -298 -315c0 -186 131 -316 298 -316c173 0 256 129 268 273h-331v30h364c0 -185 -102 -333 -301 -333z"/>
<glyph horiz-adv-x="695" unicode="H" glyph-name="H" d="M607 0h-32v328h-455v-328h-32v667h32v-309h455v309h32v-667z"/>
<glyph horiz-adv-x="208" unicode="I" glyph-name="I" d="M120 0h-32v667h32v-667z"/>
<glyph horiz-adv-x="465" unicode="J" glyph-name="J" d="M185 -12c-73 0 -126 27 -169 87l27 24c31 -44 74 -81 142 -81c99 0 160 69 160 167v482h32v-482c0 -133 -89 -197 -192 -197z"/>
<glyph horiz-adv-x="571" unicode="K" glyph-name="K" d="M540 0h-43l-297 328l-80 -87v-241h-32v667h32v-385l347 385h43l-290 -319z"/>
<glyph horiz-adv-x="499" unicode="L" glyph-name="L" d="M455 0h-367v667h32v-637h335v-30z"/>
<glyph horiz-adv-x="770" unicode="M" glyph-name="M" d="M682 0h-32v629l-260 -629h-10l-260 629v-629h-32v667h51l246 -597l246 597h51v-667z"/>
<glyph horiz-adv-x="690" unicode="N" glyph-name="N" d="M602 0h-32l-450 615v-615h-32v667h32l450 -609v609h32v-667z"/>
<glyph horiz-adv-x="764" unicode="O" glyph-name="O" d="M382 -12c-194 0 -317 152 -317 345s123 345 317 345c193 0 317 -152 317 -345s-124 -345 -317 -345zM382 18c171 0 282 134 282 315c0 183 -111 315 -282 315c-173 0 -282 -132 -282 -315c0 -181 109 -315 282 -315z"/>
<glyph horiz-adv-x="555" unicode="P" glyph-name="P" d="M120 0h-32v667h231c124 0 195 -87 195 -189s-73 -189 -195 -189h-199v-289zM318 319c98 0 161 67 161 159s-63 159 -161 159h-198v-318h198z"/>
<glyph horiz-adv-x="764" unicode="Q" glyph-name="Q" d="M382 -12c-194 0 -317 152 -317 345s123 345 317 345c193 0 317 -152 317 -345c0 -103 -36 -194 -98 -257l77 -76l-22 -23l-78 78c-52 -42 -119 -67 -196 -67zM382 18c68 0 127 22 173 59l-110 111l23 23l111 -112c54 56 85 138 85 234c0 183 -111 315 -282 315 c-173 0 -282 -132 -282 -315c0 -181 109 -315 282 -315z"/>
<glyph horiz-adv-x="579" unicode="R" glyph-name="R" d="M524 0h-41l-203 288h-160v-288h-32v667h230c108 0 197 -67 197 -189s-89 -190 -197 -190zM318 318c98 0 162 68 162 160s-64 159 -162 159h-198v-319h198z"/>
<glyph horiz-adv-x="575" unicode="S" glyph-name="S" d="M286 -12c-104 0 -185 45 -233 106l26 23c41 -50 111 -99 207 -99c154 0 193 88 193 151c0 220 -405 111 -405 339c0 108 99 170 209 170c98 0 169 -36 216 -94l-25 -23c-47 61 -114 87 -191 87c-97 0 -174 -58 -174 -140c0 -190 405 -90 405 -339 c0 -75 -48 -181 -228 -181z"/>
<glyph horiz-adv-x="559" unicode="T" glyph-name="T" d="M295 0h-32v637h-225v30h483v-30h-226v-637z"/>
<glyph horiz-adv-x="672" unicode="U" glyph-name="U" d="M336 -12c-162 0 -248 101 -248 265v414h32v-414c0 -148 76 -235 216 -235s216 87 216 235v414h32v-414c0 -165 -86 -265 -248 -265z"/>
<glyph horiz-adv-x="636" unicode="V" glyph-name="V" d="M337 0h-38l-278 667h37l260 -630l260 630h37z"/>
<glyph horiz-adv-x="852" unicode="W" glyph-name="W" d="M637 0h-38l-173 607l-173 -607h-38l-190 667h35l174 -619l175 619h34l175 -619l174 619h35z"/>
<glyph horiz-adv-x="638" unicode="X" glyph-name="X" d="M613 0h-42l-252 318l-252 -318h-42l276 342l-261 325h43l236 -299l236 299h43l-261 -324z"/>
<glyph horiz-adv-x="610" unicode="Y" glyph-name="Y" d="M321 0h-32v289l-268 378h41l243 -346l243 346h41l-268 -378v-289z"/>
<glyph horiz-adv-x="578" unicode="Z" glyph-name="Z" d="M525 0h-472v30l427 607h-427v30h465v-30l-428 -607h435v-30z"/>
<glyph horiz-adv-x="514" unicode="a" glyph-name="a" d="M428 0h-30v59c-45 -49 -99 -71 -167 -71c-85 0 -169 58 -169 161s83 161 169 161c68 0 122 -22 167 -71v109c0 78 -62 120 -136 120c-63 0 -110 -22 -155 -76l-23 20c47 55 97 83 178 83c95 0 166 -48 166 -146v-349zM239 15c63 0 122 25 159 74v120 c-37 49 -96 74 -159 74c-88 0 -144 -59 -144 -134s56 -134 144 -134z"/>
<glyph horiz-adv-x="566" glyph-name="a.alt1" d="M480 0h-30v81c-33 -50 -98 -93 -174 -93c-130 0 -216 100 -216 253c0 152 86 254 216 254c72 0 135 -38 174 -95v83h30v-483zM276 15c75 0 144 45 174 96v259c-30 51 -99 98 -174 98c-118 0 -183 -100 -183 -227s65 -226 183 -226z"/>
<glyph horiz-adv-x="566" unicode="b" glyph-name="b" d="M116 111c30 -51 99 -96 174 -96c118 0 183 99 183 226s-65 227 -183 227c-75 0 -144 -47 -174 -98v-259zM116 0h-30v667h30v-267c39 57 102 95 174 95c130 0 216 -102 216 -254c0 -153 -86 -253 -216 -253c-76 0 -141 43 -174 93v-81z"/>
<glyph horiz-adv-x="493" unicode="c" glyph-name="c" d="M288 -12c-140 0 -228 115 -228 254s88 253 228 253c79 0 124 -30 165 -81l-22 -18c-39 53 -85 72 -141 72c-124 0 -197 -100 -197 -226s73 -227 197 -227c56 0 102 20 141 73l22 -19c-41 -51 -86 -81 -165 -81z"/>
<glyph horiz-adv-x="566" unicode="d" glyph-name="d" d="M480 0h-30v81c-33 -50 -98 -93 -174 -93c-130 0 -216 100 -216 253c0 152 86 254 216 254c72 0 135 -38 174 -95v267h30v-667zM276 15c75 0 144 45 174 96v259c-30 51 -99 98 -174 98c-118 0 -183 -100 -183 -227s65 -226 183 -226z"/>
<glyph horiz-adv-x="571" unicode="e" glyph-name="e" d="M297 -12c-140 0 -237 107 -237 254c0 140 97 253 227 253c148 0 224 -119 224 -253v-10h-417c3 -118 80 -217 203 -217c68 0 123 25 168 73l18 -19c-49 -51 -105 -81 -186 -81zM479 259c0 93 -61 209 -193 209c-124 0 -189 -114 -192 -209h385z"/>
<glyph horiz-adv-x="246" unicode="f" glyph-name="f" d="M130 0h-30v456h-80v27h80v51c0 90 45 143 121 143c31 0 51 -5 82 -30l-18 -24c-17 16 -38 27 -64 27c-61 0 -91 -43 -91 -116v-51h98v-27h-98v-456z"/>
<glyph horiz-adv-x="246" glyph-name="f.alt1" d="M130 0h-30v456h-80v27h80v51c0 90 45 143 121 143c21 0 40 -3 57 -13l-13 -26c-12 7 -25 12 -44 12c-61 0 -91 -43 -91 -116v-51h98v-27h-98v-456z"/>
<glyph horiz-adv-x="566" unicode="g" glyph-name="g" d="M276 -196c-81 0 -129 14 -185 73l22 25c42 -52 87 -71 163 -71c96 0 174 49 174 166v84c-33 -50 -98 -95 -174 -95c-130 0 -216 101 -216 254c0 152 86 255 216 255c72 0 135 -38 174 -95v83h30v-486c0 -138 -87 -193 -204 -193zM276 13c75 0 144 47 174 98v259 c-30 51 -99 98 -174 98c-118 0 -183 -101 -183 -228s65 -227 183 -227z"/>
<glyph unicode="h" glyph-name="h" d="M442 0h-30v339c0 101 -50 129 -125 129c-66 0 -137 -43 -171 -91v-377h-30v667h30v-260c36 44 108 88 175 88c96 0 151 -42 151 -156v-339z"/>
<glyph horiz-adv-x="202" unicode="i" glyph-name="i" d="M101 566c-15 0 -29 13 -29 29s14 29 29 29c16 0 29 -13 29 -29s-13 -29 -29 -29zM116 0h-30v483h30v-483z"/>
<glyph horiz-adv-x="202" unicode="j" glyph-name="j" d="M101 566c-15 0 -29 13 -29 29s14 29 29 29c16 0 29 -13 29 -29s-13 -29 -29 -29zM-3 -196c-38 0 -65 13 -92 38l19 25c16 -18 42 -36 73 -36c50 0 89 27 89 93v559h30v-559c0 -83 -46 -120 -119 -120z"/>
<glyph horiz-adv-x="496" unicode="k" glyph-name="k" d="M471 0h-43l-212 243l-100 -92v-151h-30v667h30v-478l315 294h43l-235 -218z"/>
<glyph horiz-adv-x="202" unicode="l" glyph-name="l" d="M116 0h-30v667h30v-667z"/>
<glyph horiz-adv-x="243" glyph-name="l.alt1" d="M168 -12c-56 0 -82 37 -82 97v582h30v-582c0 -41 16 -70 52 -70c24 0 45 12 57 26l18 -23c-19 -18 -39 -30 -75 -30z"/>
<glyph horiz-adv-x="770" unicode="m" glyph-name="m" d="M684 0h-30v348c0 75 -31 120 -104 120c-54 0 -120 -41 -150 -90v-378h-30v348c0 75 -31 120 -104 120c-54 0 -118 -42 -150 -91v-377h-30v483h30v-76c20 32 86 88 155 88c76 0 115 -47 125 -92c27 45 92 92 159 92c88 0 129 -51 129 -147v-348z"/>
<glyph unicode="n" glyph-name="n" d="M442 0h-30v337c0 101 -50 131 -125 131c-66 0 -137 -43 -171 -91v-377h-30v483h30v-76c36 44 108 88 175 88c96 0 151 -44 151 -158v-337z"/>
<glyph horiz-adv-x="570" unicode="o" glyph-name="o" d="M285 -12c-136 0 -225 112 -225 254s89 253 225 253c137 0 225 -111 225 -253s-88 -254 -225 -254zM285 15c124 0 192 109 192 227c0 117 -68 226 -192 226c-123 0 -192 -109 -192 -226c0 -118 69 -227 192 -227z"/>
<glyph horiz-adv-x="562" unicode="p" glyph-name="p" d="M290 -12c-72 0 -135 38 -174 95v-267h-30v667h30v-81c33 50 98 93 174 93c130 0 216 -100 216 -253c0 -152 -86 -254 -216 -254zM290 15c118 0 183 100 183 227s-65 226 -183 226c-75 0 -144 -45 -174 -96v-259c30 -51 99 -98 174 -98z"/>
<glyph horiz-adv-x="562" unicode="q" glyph-name="q" d="M272 15c75 0 144 47 174 98v259c-30 51 -99 96 -174 96c-118 0 -183 -99 -183 -226s65 -227 183 -227zM272 -12c-130 0 -216 102 -216 254c0 153 86 253 216 253c76 0 141 -43 174 -93v81h30v-667h-30v267c-39 -57 -102 -95 -174 -95z"/>
<glyph horiz-adv-x="304" unicode="r" glyph-name="r" d="M116 0h-30v483h30v-88c43 57 96 97 166 97v-36c-9 1 -15 1 -24 1c-51 0 -120 -50 -142 -95v-362z"/>
<glyph horiz-adv-x="454" unicode="s" glyph-name="s" d="M221 -12c-76 0 -129 22 -177 77l24 22c30 -40 82 -72 153 -72c89 0 143 48 143 112c0 148 -310 71 -310 240c0 71 60 128 164 128c83 0 135 -33 166 -73l-22 -20c-28 40 -79 66 -144 66c-84 0 -134 -44 -134 -101c0 -135 310 -57 310 -240c0 -75 -56 -139 -173 -139z"/>
<glyph horiz-adv-x="256" unicode="t" glyph-name="t" d="M174 -12c-56 0 -82 37 -82 97v371h-80v27h80v132h30v-132h98v-27h-98v-371c0 -41 16 -70 52 -70c24 0 45 12 57 26l18 -23c-19 -18 -39 -30 -75 -30z"/>
<glyph unicode="u" glyph-name="u" d="M442 0h-30v74c-41 -46 -108 -86 -175 -86c-96 0 -151 42 -151 156v339h30v-339c0 -101 50 -129 125 -129c66 0 137 40 171 88v380h30v-483z"/>
<glyph horiz-adv-x="471" unicode="v" glyph-name="v" d="M253 0h-35l-207 483h35l190 -448l189 448h35z"/>
<glyph horiz-adv-x="704" unicode="w" glyph-name="w" d="M522 0h-24l-146 438l-146 -438h-24l-160 483h33l140 -436l145 436h24l145 -436l140 436h33z"/>
<glyph horiz-adv-x="472" unicode="x" glyph-name="x" d="M450 0h-39l-175 228l-175 -228h-39l197 248l-186 235h39l164 -214l164 214h39l-186 -235z"/>
<glyph horiz-adv-x="471" unicode="y" glyph-name="y" d="M50 -189l6 28c11 -5 30 -8 42 -8c32 0 54 14 76 66l44 100l-207 486h35l190 -448l189 448h35l-256 -597c-23 -52 -58 -82 -106 -82c-17 0 -36 3 -48 7z"/>
<glyph glyph-name="y.alt1" d="M251 -196c-79 0 -127 25 -170 73l22 25c37 -48 85 -71 148 -71c100 0 161 60 161 165v78c-41 -46 -108 -86 -175 -86c-96 0 -151 42 -151 156v339h30v-339c0 -101 50 -129 125 -129c66 0 137 40 171 88v380h30v-487c0 -143 -101 -192 -191 -192z"/>
<glyph horiz-adv-x="466" unicode="z" glyph-name="z" d="M406 0h-346v27l307 429h-307v27h342v-27l-309 -429h313v-27z"/>
<glyph horiz-adv-x="551" unicode="" glyph-name="A.smcp" d="M258 550h35l241 -550h-36l-64 146h-317l-63 -146h-37zM422 175l-146 337l-147 -337h293z"/>
<glyph horiz-adv-x="527" unicode="" glyph-name="B.smcp" d="M307 0h-221v550h218c93 0 158 -50 158 -141c0 -66 -46 -112 -94 -125c58 -15 106 -74 106 -135c0 -94 -65 -149 -167 -149zM307 29c83 0 132 46 132 119c0 62 -44 121 -132 121h-189v-240h189zM304 298c82 0 124 49 124 111c0 67 -44 112 -124 112h-186v-223h186z"/>
<glyph horiz-adv-x="580" unicode="" glyph-name="C.smcp" d="M348 -12c-161 0 -288 118 -288 288c0 169 127 286 288 286c82 0 150 -31 203 -90l-23 -20c-41 52 -109 81 -180 81c-142 0 -254 -105 -254 -257c0 -151 112 -259 254 -259c71 0 142 31 180 81l24 -20c-55 -60 -122 -90 -204 -90z"/>
<glyph horiz-adv-x="606" unicode="" glyph-name="D.smcp" d="M258 0h-172v550h172c179 0 288 -129 288 -276c0 -148 -109 -274 -288 -274zM258 29c161 0 253 108 253 245c0 136 -92 247 -253 247h-140v-492h140z"/>
<glyph horiz-adv-x="500" unicode="" glyph-name="E.smcp" d="M440 0h-354v550h354v-29h-322v-223h317v-29h-317v-240h322v-29z"/>
<glyph horiz-adv-x="476" unicode="" glyph-name="F.smcp" d="M118 0h-32v550h354v-29h-322v-223h317v-29h-317v-269z"/>
<glyph horiz-adv-x="634" unicode="" glyph-name="G.smcp" d="M348 -12c-161 0 -288 118 -288 287s127 287 288 287c87 0 156 -31 213 -87l-21 -23c-46 49 -116 81 -192 81c-142 0 -254 -106 -254 -258c0 -151 112 -259 254 -259c82 0 146 40 180 73v149h-203v29h235v-190c-50 -53 -126 -89 -212 -89z"/>
<glyph horiz-adv-x="652" glyph-name="G.smcp.alt1" d="M348 -12c-161 0 -288 118 -288 287s127 287 288 287c87 0 156 -31 213 -87l-21 -23c-46 49 -116 81 -192 81c-142 0 -254 -106 -254 -258c0 -151 112 -259 254 -259c118 0 215 82 227 222h-250v29h284c0 -156 -100 -279 -261 -279z"/>
<glyph horiz-adv-x="622" unicode="" glyph-name="H.smcp" d="M536 0h-31v269h-387v-269h-32v550h32v-252h387v252h31v-550z"/>
<glyph horiz-adv-x="204" unicode="" glyph-name="I.smcp" d="M118 0h-32v550h32v-550z"/>
<glyph horiz-adv-x="412" unicode="" glyph-name="J.smcp" d="M158 -12c-63 0 -110 25 -146 75l24 21c27 -37 65 -67 122 -67c84 0 136 55 136 134v399h32v-399c0 -110 -77 -163 -168 -163z"/>
<glyph horiz-adv-x="507" unicode="" glyph-name="K.smcp" d="M482 0h-43l-255 268l-66 -70v-198h-32v550h32v-312l295 312h43l-252 -263z"/>
<glyph horiz-adv-x="449" unicode="" glyph-name="L.smcp" d="M406 0h-320v550h32v-521h288v-29z"/>
<glyph horiz-adv-x="687" unicode="" glyph-name="M.smcp" d="M601 0h-32v506l-220 -506h-11l-220 506v-506h-32v550h47l210 -485l210 485h48v-550z"/>
<glyph horiz-adv-x="618" unicode="" glyph-name="N.smcp" d="M532 0h-30l-384 500v-500h-32v550h30l384 -495v495h32v-550z"/>
<glyph horiz-adv-x="669" unicode="" glyph-name="O.smcp" d="M335 -12c-169 0 -275 128 -275 287s106 287 275 287c167 0 274 -128 274 -287s-107 -287 -274 -287zM335 17c145 0 240 111 240 258c0 149 -95 258 -240 258c-148 0 -241 -109 -241 -258c0 -147 93 -258 241 -258z"/>
<glyph horiz-adv-x="496" unicode="" glyph-name="P.smcp" d="M118 0h-32v550h200c115 0 170 -73 170 -157c0 -85 -56 -158 -170 -158h-168v-235zM286 264c92 0 136 55 136 129s-46 128 -136 128h-168v-257h168z"/>
<glyph horiz-adv-x="669" unicode="" glyph-name="Q.smcp" d="M335 -12c-169 0 -275 128 -275 287s106 287 275 287c167 0 274 -128 274 -287c0 -85 -31 -162 -85 -214l60 -64l-22 -22l-63 65c-44 -33 -99 -52 -164 -52zM335 17c56 0 104 16 143 45l-92 97l23 23l93 -99c46 47 73 114 73 192c0 149 -95 258 -240 258 c-148 0 -241 -109 -241 -258c0 -147 93 -258 241 -258z"/>
<glyph horiz-adv-x="521" unicode="" glyph-name="R.smcp" d="M467 0h-42l-173 235h-134v-235h-32v550h200c110 0 171 -67 171 -157c0 -91 -61 -157 -167 -158zM286 264c92 0 137 54 137 129s-48 128 -137 128h-168v-257h168z"/>
<glyph horiz-adv-x="494" unicode="" glyph-name="S.smcp" d="M248 -12c-90 0 -161 37 -203 89l26 21c35 -41 96 -81 177 -81c121 0 165 62 165 125c0 181 -351 84 -351 276c0 90 85 144 181 144c85 0 147 -31 189 -79l-23 -21c-41 51 -100 71 -166 71c-82 0 -147 -49 -147 -115c0 -153 351 -69 351 -276c0 -81 -57 -154 -199 -154z "/>
<glyph horiz-adv-x="459" unicode="" glyph-name="T.smcp" d="M245 0h-32v521h-182v29h397v-29h-183v-521z"/>
<glyph horiz-adv-x="603" unicode="" glyph-name="U.smcp" d="M301 -12c-141 0 -215 84 -215 219v343h32v-343c0 -119 64 -190 183 -190s184 71 184 190v343h32v-343c0 -136 -75 -219 -216 -219z"/>
<glyph horiz-adv-x="551" unicode="" glyph-name="V.smcp" d="M293 0h-35l-241 550h37l222 -512l223 512h35z"/>
<glyph horiz-adv-x="735" unicode="" glyph-name="W.smcp" d="M550 0h-34l-149 494l-148 -494h-35l-164 550h34l147 -500l150 500h33l149 -501l148 501h34z"/>
<glyph horiz-adv-x="553" unicode="" glyph-name="X.smcp" d="M533 0h-41l-216 259l-215 -259h-41l238 282l-226 268h42l202 -244l203 244h41l-225 -267z"/>
<glyph horiz-adv-x="531" unicode="" glyph-name="Y.smcp" d="M284 0h-32v238l-235 312h41l210 -282l206 282h40l-230 -312v-238z"/>
<glyph horiz-adv-x="510" unicode="" glyph-name="Z.smcp" d="M467 0h-424v27l379 494h-379v29h417v-28l-379 -493h386v-29z"/>
<glyph horiz-adv-x="636" unicode="Á" glyph-name="Aacute" d="M615 0h-37l-74 179h-372l-74 -179h-37l278 667h38zM492 209l-174 421l-174 -421h348zM472 867l-175 -144h-30l160 144h45z"/>
<glyph horiz-adv-x="636" unicode="Ă" glyph-name="Abreve" d="M615 0h-37l-74 179h-372l-74 -179h-37l278 667h38zM492 209l-174 421l-174 -421h348zM493 799c-40 -54 -103 -88 -175 -88c-71 0 -135 34 -176 88l21 19c35 -49 90 -80 155 -80s120 31 155 80z"/>
<glyph horiz-adv-x="636" unicode="Â" glyph-name="Acircumflex" d="M437 723h-28l-91 120l-88 -120h-28l98 144h36zM615 0h-37l-74 179h-372l-74 -179h-37l278 667h38zM492 209l-174 421l-174 -421h348z"/>
<glyph horiz-adv-x="636" unicode="Ä" glyph-name="Adieresis" d="M448 765c0 -15 -13 -28 -28 -28s-28 13 -28 28s13 28 28 28s28 -13 28 -28zM246 765c0 -15 -13 -28 -28 -28s-28 13 -28 28s13 28 28 28s28 -13 28 -28zM615 0h-37l-74 179h-372l-74 -179h-37l278 667h38zM492 209l-174 421l-174 -421h348z"/>
<glyph horiz-adv-x="636" unicode="À" glyph-name="Agrave" d="M615 0h-37l-74 179h-372l-74 -179h-37l278 667h38zM492 209l-174 421l-174 -421h348zM369 723h-30l-175 144h45z"/>
<glyph horiz-adv-x="636" unicode="Ā" glyph-name="Amacron" d="M615 0h-37l-74 179h-372l-74 -179h-37l278 667h38zM492 209l-174 421l-174 -421h348zM499 748h-363v27h363v-27z"/>
<glyph horiz-adv-x="636" unicode="Ą" glyph-name="Aogonek" d="M643 -112l25 -11c-11 -31 -35 -63 -83 -63c-43 0 -81 25 -81 84c0 43 29 84 71 109l-71 172h-372l-74 -179h-37l278 667h38l278 -667c-48 -23 -82 -55 -82 -102c0 -37 19 -57 52 -57c31 0 48 16 58 47zM492 209l-174 421l-174 -421h348z"/>
<glyph horiz-adv-x="636" unicode="Å" glyph-name="Aring" d="M615 0h-37l-74 179h-372l-74 -179h-37l278 667h38zM492 209l-174 421l-174 -421h348zM319 692c-51 0 -93 42 -93 93s42 93 93 93s92 -42 92 -93s-41 -93 -92 -93zM319 716c38 0 68 31 68 69s-30 69 -68 69s-69 -31 -69 -69s31 -69 69 -69z"/>
<glyph horiz-adv-x="636" unicode="Ã" glyph-name="Atilde" d="M615 0h-37l-74 179h-372l-74 -179h-37l278 667h38zM492 209l-174 421l-174 -421h348zM381 721c-77 0 -71 113 -128 113c-33 0 -59 -32 -59 -107h-26c0 72 31 134 88 134c77 0 71 -113 128 -113c33 0 59 32 59 107h26c0 -72 -31 -134 -88 -134z"/>
<glyph horiz-adv-x="636" unicode="Ạ" glyph-name="uni1EA0" d="M615 0h-37l-74 179h-372l-74 -179h-37l278 667h38zM492 209l-174 421l-174 -421h348zM318 -173c-15 0 -29 13 -29 29s14 29 29 29c16 0 29 -13 29 -29s-13 -29 -29 -29z"/>
<glyph horiz-adv-x="636" unicode="Ả" glyph-name="uni1EA2" d="M615 0h-37l-74 179h-372l-74 -179h-37l278 667h38zM492 209l-174 421l-174 -421h348zM273 761l-21 6c8 26 29 53 67 53c34 0 65 -20 65 -67c0 -22 -7 -37 -22 -56h-27c19 19 26 38 26 56c0 29 -16 45 -42 45c-23 0 -38 -12 -46 -37z"/>
<glyph horiz-adv-x="636" unicode="Ấ" glyph-name="uni1EA4" d="M437 682h-28l-91 90l-88 -90h-28l98 108h36zM615 0h-37l-74 179h-372l-74 -179h-37l278 667h38zM492 209l-174 421l-174 -421h348zM611 845l-175 -108h-30l160 108h45z"/>
<glyph horiz-adv-x="636" unicode="Ậ" glyph-name="uni1EAC" d="M615 0h-37l-74 179h-372l-74 -179h-37l278 667h38zM492 209l-174 421l-174 -421h348zM436 723h-28l-91 120l-88 -120h-28l98 144h36zM318 -173c-15 0 -29 13 -29 29s14 29 29 29c16 0 29 -13 29 -29s-13 -29 -29 -29z"/>
<glyph horiz-adv-x="636" unicode="Ầ" glyph-name="uni1EA6" d="M437 682h-28l-91 90l-88 -90h-28l98 108h36zM615 0h-37l-74 179h-372l-74 -179h-37l278 667h38zM492 209l-174 421l-174 -421h348zM230 737h-30l-175 108h45z"/>
<glyph horiz-adv-x="636" unicode="Ẩ" glyph-name="uni1EA8" d="M437 682h-28l-91 90l-88 -90h-28l98 108h36zM615 0h-37l-74 179h-372l-74 -179h-37l278 667h38zM492 209l-174 421l-174 -421h348zM394 792l-21 5c8 19 29 39 67 39c34 0 65 -15 65 -50c0 -16 -7 -28 -22 -42h-27c19 14 26 29 26 42c0 22 -16 34 -42 34 c-23 0 -38 -9 -46 -28z"/>
<glyph horiz-adv-x="636" unicode="Ắ" glyph-name="uni1EAE" d="M615 0h-37l-74 179h-372l-74 -179h-37l278 667h38zM492 209l-174 421l-174 -421h348zM469 844l-175 -108h-30l160 108h45zM493 777c-40 -54 -103 -88 -175 -88c-71 0 -135 34 -176 88l21 19c35 -49 90 -80 155 -80s120 31 155 80z"/>
<glyph horiz-adv-x="636" unicode="Ẫ" glyph-name="uni1EAA" d="M437 678h-28l-91 60l-88 -60h-28l98 72h36zM615 0h-37l-74 179h-372l-74 -179h-37l278 667h38zM492 209l-174 421l-174 -421h348zM380 757c-77 0 -71 56 -128 56c-33 0 -59 -16 -59 -53h-26c0 36 31 67 88 67c77 0 71 -57 128 -57c33 0 59 16 59 54h26 c0 -36 -31 -67 -88 -67z"/>
<glyph horiz-adv-x="636" unicode="Ằ" glyph-name="uni1EB0" d="M615 0h-37l-74 179h-372l-74 -179h-37l278 667h38zM492 209l-174 421l-174 -421h348zM373 736h-30l-175 108h45zM493 775c-40 -54 -103 -88 -175 -88c-71 0 -135 34 -176 88l21 19c35 -49 90 -80 155 -80s120 31 155 80z"/>
<glyph horiz-adv-x="636" unicode="Ẳ" glyph-name="uni1EB2" d="M615 0h-37l-74 179h-372l-74 -179h-37l278 667h38zM492 209l-174 421l-174 -421h348zM273 788l-21 5c8 19 29 39 67 39c34 0 65 -15 65 -50c0 -16 -7 -28 -22 -42h-27c19 14 26 29 26 42c0 22 -16 34 -42 34c-23 0 -38 -9 -46 -28zM493 777c-40 -54 -103 -88 -175 -88 c-71 0 -135 34 -176 88l21 19c35 -49 90 -80 155 -80s120 31 155 80z"/>
<glyph horiz-adv-x="636" unicode="Ẵ" glyph-name="uni1EB4" d="M615 0h-37l-74 179h-372l-74 -179h-37l278 667h38zM492 209l-174 421l-174 -421h348zM494 739c-40 -36 -103 -58 -175 -58c-71 0 -135 22 -176 58l21 13c35 -33 90 -53 155 -53s120 20 155 53zM380 757c-77 0 -71 56 -128 56c-33 0 -59 -16 -59 -53h-26c0 36 31 67 88 67 c77 0 71 -57 128 -57c33 0 59 16 59 54h26c0 -36 -31 -67 -88 -67z"/>
<glyph horiz-adv-x="636" unicode="Ặ" glyph-name="uni1EB6" d="M615 0h-37l-74 179h-372l-74 -179h-37l278 667h38zM492 209l-174 421l-174 -421h348zM318 -173c-15 0 -29 13 -29 29s14 29 29 29c16 0 29 -13 29 -29s-13 -29 -29 -29zM493 799c-40 -54 -103 -88 -175 -88c-71 0 -135 34 -176 88l21 19c35 -49 90 -80 155 -80 s120 31 155 80z"/>
<glyph horiz-adv-x="930" unicode="Æ" glyph-name="AE" d="M865 0h-408v179h-286l-113 -179h-37l425 667h419v-30h-376v-279h369v-30h-369v-298h376v-30zM457 209v421l-269 -421h269z"/>
<glyph horiz-adv-x="930" unicode="Ǽ" glyph-name="AEacute" d="M627 867l-175 -144h-30l160 144h45zM865 0h-408v179h-286l-113 -179h-37l425 667h419v-30h-376v-279h369v-30h-369v-298h376v-30zM457 209v421l-269 -421h269z"/>
<glyph horiz-adv-x="600" unicode="Ḃ" glyph-name="uni1E02" d="M343 0h-255v667h251c107 0 182 -60 182 -170c0 -84 -59 -141 -118 -153c71 -11 131 -87 131 -164c0 -114 -74 -180 -191 -180zM339 358c98 0 147 62 147 139c0 76 -49 140 -147 140h-219v-279h219zM343 30c98 0 156 58 156 149c0 76 -52 149 -156 149h-223v-298h223z M300 733c-15 0 -29 13 -29 29s14 29 29 29c16 0 29 -13 29 -29s-13 -29 -29 -29z"/>
<glyph horiz-adv-x="667" unicode="Ć" glyph-name="Cacute" d="M552 867l-175 -144h-30l160 144h45zM398 -12c-185 0 -333 140 -333 345s148 345 333 345c94 0 173 -37 232 -105l-25 -22c-47 59 -124 97 -207 97c-167 0 -298 -127 -298 -315c0 -186 131 -315 298 -315c83 0 160 38 207 97l26 -21c-63 -71 -139 -106 -233 -106z"/>
<glyph horiz-adv-x="667" unicode="Ç" glyph-name="Ccedilla" d="M392 -183c-38 0 -74 13 -93 28l14 27c24 -21 52 -28 79 -28c37 0 69 18 69 49c0 26 -14 43 -44 43c-16 0 -33 -7 -43 -19l-22 13l21 59c-173 12 -308 148 -308 344c0 205 148 345 333 345c94 0 173 -37 232 -105l-25 -22c-47 59 -124 97 -207 97 c-167 0 -298 -127 -298 -315c0 -186 131 -315 298 -315c83 0 160 38 207 97l26 -21c-62 -70 -137 -105 -228 -106l-16 -42c10 8 25 12 38 12c39 0 65 -25 65 -65c0 -45 -43 -76 -98 -76z"/>
<glyph horiz-adv-x="667" unicode="Ĉ" glyph-name="Ccircumflex" d="M516 723h-28l-91 120l-88 -120h-28l98 144h36zM398 -12c-185 0 -333 140 -333 345s148 345 333 345c94 0 173 -37 232 -105l-25 -22c-47 59 -124 97 -207 97c-167 0 -298 -127 -298 -315c0 -186 131 -315 298 -315c83 0 160 38 207 97l26 -21 c-63 -71 -139 -106 -233 -106z"/>
<glyph horiz-adv-x="667" unicode="Ċ" glyph-name="Cdotaccent" d="M398 -12c-185 0 -333 140 -333 345s148 345 333 345c94 0 173 -37 232 -105l-25 -22c-47 59 -124 97 -207 97c-167 0 -298 -127 -298 -315c0 -186 131 -315 298 -315c83 0 160 38 207 97l26 -21c-63 -71 -139 -106 -233 -106zM400 733c-15 0 -29 13 -29 29s14 29 29 29 c16 0 29 -13 29 -29s-13 -29 -29 -29z"/>
<glyph horiz-adv-x="667" unicode="Č" glyph-name="Ccaron" d="M418 723h-36l-101 144h28l91 -120l88 120h28zM398 -12c-185 0 -333 140 -333 345s148 345 333 345c94 0 173 -37 232 -105l-25 -22c-47 59 -124 97 -207 97c-167 0 -298 -127 -298 -315c0 -186 131 -315 298 -315c83 0 160 38 207 97l26 -21c-63 -71 -139 -106 -233 -106 z"/>
<glyph horiz-adv-x="684" unicode="Ď" glyph-name="Dcaron" d="M361 723h-36l-101 144h28l91 -120l88 120h28zM286 0h-198v667h198c207 0 332 -156 332 -334c0 -180 -125 -333 -332 -333zM286 30c189 0 297 134 297 303c0 167 -108 304 -297 304h-166v-607h166z"/>
<glyph horiz-adv-x="715" unicode="Đ" glyph-name="Dcroat" d="M317 0h-198v318h-107v30h107v319h198c207 0 332 -156 332 -334c0 -180 -125 -333 -332 -333zM317 30c189 0 297 134 297 303c0 167 -108 304 -297 304h-166v-289h188v-30h-188v-288h166z"/>
<glyph horiz-adv-x="684" unicode="Ḋ" glyph-name="uni1E0A" d="M286 0h-198v667h198c207 0 332 -156 332 -334c0 -180 -125 -333 -332 -333zM286 30c189 0 297 134 297 303c0 167 -108 304 -297 304h-166v-607h166zM342 733c-15 0 -29 13 -29 29s14 29 29 29c16 0 29 -13 29 -29s-13 -29 -29 -29z"/>
<glyph horiz-adv-x="558" unicode="É" glyph-name="Eacute" d="M446 867l-175 -144h-30l160 144h45zM496 0h-408v667h408v-30h-376v-279h369v-30h-369v-298h376v-30z"/>
<glyph horiz-adv-x="558" unicode="Ĕ" glyph-name="Ebreve" d="M496 0h-408v667h408v-30h-376v-279h369v-30h-369v-298h376v-30zM468 799c-40 -54 -103 -88 -175 -88c-71 0 -135 34 -176 88l21 19c35 -49 90 -80 155 -80s120 31 155 80z"/>
<glyph horiz-adv-x="558" unicode="Ê" glyph-name="Ecircumflex" d="M408 723h-28l-91 120l-88 -120h-28l98 144h36zM496 0h-408v667h408v-30h-376v-279h369v-30h-369v-298h376v-30z"/>
<glyph horiz-adv-x="558" unicode="Ë" glyph-name="Edieresis" d="M419 765c0 -15 -13 -28 -28 -28s-28 13 -28 28s13 28 28 28s28 -13 28 -28zM217 765c0 -15 -13 -28 -28 -28s-28 13 -28 28s13 28 28 28s28 -13 28 -28zM496 0h-408v667h408v-30h-376v-279h369v-30h-369v-298h376v-30z"/>
<glyph horiz-adv-x="558" unicode="Ė" glyph-name="Edotaccent" d="M496 0h-408v667h408v-30h-376v-279h369v-30h-369v-298h376v-30zM299 733c-15 0 -29 13 -29 29s14 29 29 29c16 0 29 -13 29 -29s-13 -29 -29 -29z"/>
<glyph horiz-adv-x="558" unicode="È" glyph-name="Egrave" d="M496 0h-408v667h408v-30h-376v-279h369v-30h-369v-298h376v-30zM343 723h-30l-175 144h45z"/>
<glyph horiz-adv-x="558" unicode="Ē" glyph-name="Emacron" d="M496 0h-408v667h408v-30h-376v-279h369v-30h-369v-298h376v-30zM471 748h-363v27h363v-27z"/>
<glyph horiz-adv-x="558" unicode="Ę" glyph-name="Eogonek" d="M496 0c-48 -23 -82 -55 -82 -102c0 -37 19 -57 52 -57c31 0 48 16 58 47l25 -11c-11 -31 -35 -63 -83 -63c-43 0 -81 25 -81 84c0 39 24 76 60 102h-357v667h408v-30h-376v-279h369v-30h-369v-298h376v-30z"/>
<glyph horiz-adv-x="558" unicode="Ě" glyph-name="Ecaron" d="M313 723h-36l-101 144h28l91 -120l88 120h28zM496 0h-408v667h408v-30h-376v-279h369v-30h-369v-298h376v-30z"/>
<glyph horiz-adv-x="558" unicode="Ẹ" glyph-name="uni1EB8" d="M496 0h-408v667h408v-30h-376v-279h369v-30h-369v-298h376v-30zM299 -173c-15 0 -29 13 -29 29s14 29 29 29c16 0 29 -13 29 -29s-13 -29 -29 -29z"/>
<glyph horiz-adv-x="558" unicode="Ẻ" glyph-name="uni1EBA" d="M496 0h-408v667h408v-30h-376v-279h369v-30h-369v-298h376v-30zM234 761l-21 6c8 26 29 53 67 53c34 0 65 -20 65 -67c0 -22 -7 -37 -22 -56h-27c19 19 26 38 26 56c0 29 -16 45 -42 45c-23 0 -38 -12 -46 -37z"/>
<glyph horiz-adv-x="558" unicode="Ẽ" glyph-name="uni1EBC" d="M496 0h-408v667h408v-30h-376v-279h369v-30h-369v-298h376v-30zM356 721c-77 0 -71 113 -128 113c-33 0 -59 -32 -59 -107h-26c0 72 31 134 88 134c77 0 71 -113 128 -113c33 0 59 32 59 107h26c0 -72 -31 -134 -88 -134z"/>
<glyph horiz-adv-x="558" unicode="Ế" glyph-name="uni1EBE" d="M414 682h-28l-91 90l-88 -90h-28l98 108h36zM588 845l-175 -108h-30l160 108h45zM496 0h-408v667h408v-30h-376v-279h369v-30h-369v-298h376v-30z"/>
<glyph horiz-adv-x="558" unicode="Ề" glyph-name="uni1EC0" d="M411 682h-28l-91 90l-88 -90h-28l98 108h36zM496 0h-408v667h408v-30h-376v-279h369v-30h-369v-298h376v-30zM204 737h-30l-175 108h45z"/>
<glyph horiz-adv-x="558" unicode="Ể" glyph-name="uni1EC2" d="M415 682h-28l-91 90l-88 -90h-28l98 108h36zM496 0h-408v667h408v-30h-376v-279h369v-30h-369v-298h376v-30zM372 792l-21 5c8 19 29 39 67 39c34 0 65 -15 65 -50c0 -16 -7 -28 -22 -42h-27c19 14 26 29 26 42c0 22 -16 34 -42 34c-23 0 -38 -9 -46 -28z"/>
<glyph horiz-adv-x="558" unicode="Ễ" glyph-name="uni1EC4" d="M414 678h-28l-91 60l-88 -60h-28l98 72h36zM496 0h-408v667h408v-30h-376v-279h369v-30h-369v-298h376v-30zM357 757c-77 0 -71 56 -128 56c-33 0 -59 -16 -59 -53h-26c0 36 31 67 88 67c77 0 71 -57 128 -57c33 0 59 16 59 54h26c0 -36 -31 -67 -88 -67z"/>
<glyph horiz-adv-x="558" unicode="Ệ" glyph-name="uni1EC6" d="M408 723h-28l-91 120l-88 -120h-28l98 144h36zM496 0h-408v667h408v-30h-376v-279h369v-30h-369v-298h376v-30zM299 -173c-15 0 -29 13 -29 29s14 29 29 29c16 0 29 -13 29 -29s-13 -29 -29 -29z"/>
<glyph horiz-adv-x="533" unicode="Ḟ" glyph-name="uni1E1E" d="M292 733c-15 0 -29 13 -29 29s14 29 29 29c16 0 29 -13 29 -29s-13 -29 -29 -29zM120 0h-32v667h408v-30h-376v-279h369v-30h-369v-328z"/>
<glyph horiz-adv-x="708" unicode="Ĝ" glyph-name="Gcircumflex" d="M521 723h-28l-91 120l-88 -120h-28l98 144h36zM398 -13c-185 0 -333 141 -333 346s148 345 333 345c101 0 179 -36 244 -103l-21 -22c-52 59 -134 95 -223 95c-167 0 -298 -127 -298 -315c0 -186 131 -316 298 -316c98 0 173 49 212 90v183h-275v30h307v-226 c-57 -64 -144 -107 -244 -107z"/>
<glyph horiz-adv-x="708" unicode="Ğ" glyph-name="Gbreve" d="M398 -13c-185 0 -333 141 -333 346s148 345 333 345c101 0 179 -36 244 -103l-21 -22c-52 59 -134 95 -223 95c-167 0 -298 -127 -298 -315c0 -186 131 -316 298 -316c98 0 173 49 212 90v183h-275v30h307v-226c-57 -64 -144 -107 -244 -107zM577 799 c-40 -54 -103 -88 -175 -88c-71 0 -135 34 -176 88l21 19c35 -49 90 -80 155 -80s120 31 155 80z"/>
<glyph horiz-adv-x="708" unicode="Ġ" glyph-name="Gdotaccent" d="M398 -13c-185 0 -333 141 -333 346s148 345 333 345c101 0 179 -36 244 -103l-21 -22c-52 59 -134 95 -223 95c-167 0 -298 -127 -298 -315c0 -186 131 -316 298 -316c98 0 173 49 212 90v183h-275v30h307v-226c-57 -64 -144 -107 -244 -107zM401 733 c-15 0 -29 13 -29 29s14 29 29 29c16 0 29 -13 29 -29s-13 -29 -29 -29z"/>
<glyph horiz-adv-x="708" unicode="Ģ" glyph-name="Gcommaaccent" d="M439 -137c0 -50 -30 -98 -62 -121l-22 18c32 24 53 62 53 92c0 0 -6 -1 -8 -1c-19 0 -32 15 -32 33c0 17 13 32 32 32c21 0 39 -19 39 -53zM398 -13c-185 0 -333 141 -333 346s148 345 333 345c101 0 179 -36 244 -103l-21 -22c-52 59 -134 95 -223 95 c-167 0 -298 -127 -298 -315c0 -186 131 -316 298 -316c98 0 173 49 212 90v183h-275v30h307v-226c-57 -64 -144 -107 -244 -107z"/>
<glyph horiz-adv-x="749" glyph-name="Gbreve.alt1" d="M577 799c-40 -54 -103 -88 -175 -88c-71 0 -135 34 -176 88l21 19c35 -49 90 -80 155 -80s120 31 155 80zM398 -13c-185 0 -333 141 -333 346s148 345 333 345c101 0 179 -36 244 -103l-21 -22c-52 59 -134 95 -223 95c-167 0 -298 -127 -298 -315 c0 -186 131 -316 298 -316c173 0 256 129 268 273h-331v30h364c0 -185 -102 -333 -301 -333z"/>
<glyph horiz-adv-x="749" glyph-name="Gcommaaccent.alt1" d="M439 -137c0 -50 -30 -98 -62 -121l-22 18c32 24 53 62 53 92c0 0 -6 -1 -8 -1c-19 0 -32 15 -32 33c0 17 13 32 32 32c21 0 39 -19 39 -53zM398 -13c-185 0 -333 141 -333 346s148 345 333 345c101 0 179 -36 244 -103l-21 -22c-52 59 -134 95 -223 95 c-167 0 -298 -127 -298 -315c0 -186 131 -316 298 -316c173 0 256 129 268 273h-331v30h364c0 -185 -102 -333 -301 -333z"/>
<glyph horiz-adv-x="749" glyph-name="Gcircumflex.alt1" d="M516 723h-28l-91 120l-88 -120h-28l98 144h36zM398 -13c-185 0 -333 141 -333 346s148 345 333 345c101 0 179 -36 244 -103l-21 -22c-52 59 -134 95 -223 95c-167 0 -298 -127 -298 -315c0 -186 131 -316 298 -316c173 0 256 129 268 273h-331v30h364 c0 -185 -102 -333 -301 -333z"/>
<glyph horiz-adv-x="749" glyph-name="Gdotaccent.alt1" d="M395 733c-15 0 -29 13 -29 29s14 29 29 29c16 0 29 -13 29 -29s-13 -29 -29 -29zM398 -13c-185 0 -333 141 -333 346s148 345 333 345c101 0 179 -36 244 -103l-21 -22c-52 59 -134 95 -223 95c-167 0 -298 -127 -298 -315c0 -186 131 -316 298 -316 c173 0 256 129 268 273h-331v30h364c0 -185 -102 -333 -301 -333z"/>
<glyph horiz-adv-x="717" unicode="Ħ" glyph-name="Hbar" d="M619 0h-32v328h-455v-328h-32v501h-88v27h88v139h32v-139h455v139h32v-139h86v-27h-86v-501zM132 358h455v143h-455v-143z"/>
<glyph horiz-adv-x="695" unicode="Ĥ" glyph-name="Hcircumflex" d="M462 723h-28l-91 120l-88 -120h-28l98 144h36zM607 0h-32v328h-455v-328h-32v667h32v-309h455v309h32v-667z"/>
<glyph horiz-adv-x="695" unicode="Ḣ" glyph-name="uni1E22" d="M607 0h-32v328h-455v-328h-32v667h32v-309h455v309h32v-667zM347 733c-15 0 -29 13 -29 29s14 29 29 29c16 0 29 -13 29 -29s-13 -29 -29 -29z"/>
<glyph horiz-adv-x="208" unicode="Í" glyph-name="Iacute" d="M120 0h-32v667h32v-667zM258 867l-175 -144h-30l160 144h45z"/>
<glyph horiz-adv-x="208" unicode="Ĭ" glyph-name="Ibreve" d="M120 0h-32v667h32v-667zM280 799c-40 -54 -103 -88 -175 -88c-71 0 -135 34 -176 88l21 19c35 -49 90 -80 155 -80s120 31 155 80z"/>
<glyph horiz-adv-x="208" unicode="Î" glyph-name="Icircumflex" d="M223 723h-28l-91 120l-88 -120h-28l98 144h36zM120 0h-32v667h32v-667z"/>
<glyph horiz-adv-x="208" unicode="Ï" glyph-name="Idieresis" d="M233 765c0 -15 -13 -28 -28 -28s-28 13 -28 28s13 28 28 28s28 -13 28 -28zM31 765c0 -15 -13 -28 -28 -28s-28 13 -28 28s13 28 28 28s28 -13 28 -28zM120 0h-32v667h32v-667z"/>
<glyph horiz-adv-x="208" unicode="İ" glyph-name="Idotaccent" d="M120 0h-32v667h32v-667zM104 733c-15 0 -29 13 -29 29s14 29 29 29c16 0 29 -13 29 -29s-13 -29 -29 -29z"/>
<glyph horiz-adv-x="208" unicode="Ì" glyph-name="Igrave" d="M120 0h-32v667h32v-667zM155 723h-30l-175 144h45z"/>
<glyph horiz-adv-x="208" unicode="Ī" glyph-name="Imacron" d="M120 0h-32v667h32v-667zM286 748h-363v27h363v-27z"/>
<glyph horiz-adv-x="208" unicode="Į" glyph-name="Iogonek" d="M148 -112l25 -11c-11 -31 -35 -63 -83 -63c-43 0 -81 25 -81 84c0 45 33 88 79 114v655h32v-667c-48 -23 -82 -55 -82 -102c0 -37 19 -57 52 -57c31 0 48 16 58 47z"/>
<glyph horiz-adv-x="208" unicode="Ĩ" glyph-name="Itilde" d="M120 0h-32v667h32v-667zM166 721c-77 0 -71 113 -128 113c-33 0 -59 -32 -59 -107h-26c0 72 31 134 88 134c77 0 71 -113 128 -113c33 0 59 32 59 107h26c0 -72 -31 -134 -88 -134z"/>
<glyph horiz-adv-x="208" unicode="Ỉ" glyph-name="uni1EC8" d="M120 0h-32v667h32v-667zM59 761l-21 6c8 26 29 53 67 53c34 0 65 -20 65 -67c0 -22 -7 -37 -22 -56h-27c19 19 26 38 26 56c0 29 -16 45 -42 45c-23 0 -38 -12 -46 -37z"/>
<glyph horiz-adv-x="208" unicode="Ị" glyph-name="uni1ECA" d="M120 0h-32v667h32v-667zM104 -173c-15 0 -29 13 -29 29s14 29 29 29c16 0 29 -13 29 -29s-13 -29 -29 -29z"/>
<glyph horiz-adv-x="673" unicode="Ĳ" glyph-name="IJ" d="M120 0h-32v667h32v-667zM393 -12c-73 0 -126 27 -169 87l27 24c31 -44 74 -81 142 -81c99 0 160 69 160 167v482h32v-482c0 -133 -89 -197 -192 -197z"/>
<glyph horiz-adv-x="465" unicode="Ĵ" glyph-name="Jcircumflex" d="M478 723h-28l-91 120l-88 -120h-28l98 144h36zM185 -12c-73 0 -126 27 -169 87l27 24c31 -44 74 -81 142 -81c99 0 160 69 160 167v482h32v-482c0 -133 -89 -197 -192 -197z"/>
<glyph horiz-adv-x="571" unicode="Ķ" glyph-name="Kcommaaccent" d="M330 -137c0 -50 -30 -98 -62 -121l-22 18c32 24 53 62 53 92c0 0 -6 -1 -8 -1c-19 0 -32 15 -32 33c0 17 13 32 32 32c21 0 39 -19 39 -53zM540 0h-43l-297 328l-80 -87v-241h-32v667h32v-385l347 385h43l-290 -319z"/>
<glyph horiz-adv-x="499" unicode="Ĺ" glyph-name="Lacute" d="M425 867l-175 -144h-30l160 144h45zM455 0h-367v667h32v-637h335v-30z"/>
<glyph horiz-adv-x="499" unicode="Ľ" glyph-name="Lcaron" d="M298 626c0 -50 -30 -98 -62 -121l-22 18c32 24 53 62 53 92c0 0 -6 -1 -8 -1c-19 0 -32 15 -32 33c0 17 13 32 32 32c21 0 39 -19 39 -53zM455 0h-367v667h32v-637h335v-30z"/>
<glyph horiz-adv-x="499" unicode="Ļ" glyph-name="Lcommaaccent" d="M313 -137c0 -50 -30 -98 -62 -121l-22 18c32 24 53 62 53 92c0 0 -6 -1 -8 -1c-19 0 -32 15 -32 33c0 17 13 32 32 32c21 0 39 -19 39 -53zM455 0h-367v667h32v-637h335v-30z"/>
<glyph horiz-adv-x="499" unicode="Ŀ" glyph-name="Ldot" d="M455 0h-367v667h32v-637h335v-30zM378 342c0 -18 -15 -33 -33 -33s-33 15 -33 33c0 17 15 32 33 32s33 -15 33 -32z"/>
<glyph horiz-adv-x="523" unicode="Ł" glyph-name="Lslash" d="M12 246v34l100 58v329h32v-311l114 67v-34l-114 -67v-292h335v-30h-367v304z"/>
<glyph horiz-adv-x="690" unicode="Ń" glyph-name="Nacute" d="M520 867l-175 -144h-30l160 144h45zM602 0h-32l-450 615v-615h-32v667h32l450 -609v609h32v-667z"/>
<glyph horiz-adv-x="690" unicode="Ň" glyph-name="Ncaron" d="M364 723h-36l-101 144h28l91 -120l88 120h28zM602 0h-32l-450 615v-615h-32v667h32l450 -609v609h32v-667z"/>
<glyph horiz-adv-x="690" unicode="Ņ" glyph-name="Ncommaaccent" d="M390 -137c0 -50 -30 -98 -62 -121l-22 18c32 24 53 62 53 92c0 0 -6 -1 -8 -1c-19 0 -32 15 -32 33c0 17 13 32 32 32c21 0 39 -19 39 -53zM602 0h-32l-450 615v-615h-32v667h32l450 -609v609h32v-667z"/>
<glyph horiz-adv-x="690" unicode="Ñ" glyph-name="Ntilde" d="M406 721c-77 0 -71 113 -128 113c-33 0 -59 -32 -59 -107h-26c0 72 31 134 88 134c77 0 71 -113 128 -113c33 0 59 32 59 107h26c0 -72 -31 -134 -88 -134zM602 0h-32l-450 615v-615h-32v667h32l450 -609v609h32v-667z"/>
<glyph horiz-adv-x="690" unicode="Ŋ" glyph-name="Eng" d="M410 -196c-73 0 -126 27 -169 87l27 24c31 -44 74 -81 142 -81c99 0 160 66 160 164v2l-450 615v-615h-32v667h32l450 -609v609h32v-669c0 -133 -89 -194 -192 -194z"/>
<glyph horiz-adv-x="764" unicode="Ó" glyph-name="Oacute" d="M536 867l-175 -144h-30l160 144h45zM382 -12c-194 0 -317 152 -317 345s123 345 317 345c193 0 317 -152 317 -345s-124 -345 -317 -345zM382 18c171 0 282 134 282 315c0 183 -111 315 -282 315c-173 0 -282 -132 -282 -315c0 -181 109 -315 282 -315z"/>
<glyph horiz-adv-x="764" unicode="Ŏ" glyph-name="Obreve" d="M382 -12c-194 0 -317 152 -317 345s123 345 317 345c193 0 317 -152 317 -345s-124 -345 -317 -345zM382 18c171 0 282 134 282 315c0 183 -111 315 -282 315c-173 0 -282 -132 -282 -315c0 -181 109 -315 282 -315zM556 799c-40 -54 -103 -88 -175 -88 c-71 0 -135 34 -176 88l21 19c35 -49 90 -80 155 -80s120 31 155 80z"/>
<glyph horiz-adv-x="764" unicode="Ô" glyph-name="Ocircumflex" d="M501 723h-28l-91 120l-88 -120h-28l98 144h36zM382 -12c-194 0 -317 152 -317 345s123 345 317 345c193 0 317 -152 317 -345s-124 -345 -317 -345zM382 18c171 0 282 134 282 315c0 183 -111 315 -282 315c-173 0 -282 -132 -282 -315c0 -181 109 -315 282 -315z"/>
<glyph horiz-adv-x="764" unicode="Ö" glyph-name="Odieresis" d="M509 765c0 -15 -13 -28 -28 -28s-28 13 -28 28s13 28 28 28s28 -13 28 -28zM307 765c0 -15 -13 -28 -28 -28s-28 13 -28 28s13 28 28 28s28 -13 28 -28zM382 -12c-194 0 -317 152 -317 345s123 345 317 345c193 0 317 -152 317 -345s-124 -345 -317 -345zM382 18 c171 0 282 134 282 315c0 183 -111 315 -282 315c-173 0 -282 -132 -282 -315c0 -181 109 -315 282 -315z"/>
<glyph horiz-adv-x="764" unicode="Ò" glyph-name="Ograve" d="M433 723h-30l-175 144h45zM382 -12c-194 0 -317 152 -317 345s123 345 317 345c193 0 317 -152 317 -345s-124 -345 -317 -345zM382 18c171 0 282 134 282 315c0 183 -111 315 -282 315c-173 0 -282 -132 -282 -315c0 -181 109 -315 282 -315z"/>
<glyph horiz-adv-x="764" unicode="Ő" glyph-name="Ohungarumlaut" d="M424 867l-115 -144h-26l100 144h41zM560 867l-115 -144h-26l100 144h41zM382 -12c-194 0 -317 152 -317 345s123 345 317 345c193 0 317 -152 317 -345s-124 -345 -317 -345zM382 18c171 0 282 134 282 315c0 183 -111 315 -282 315c-173 0 -282 -132 -282 -315 c0 -181 109 -315 282 -315z"/>
<glyph horiz-adv-x="764" unicode="Ō" glyph-name="Omacron" d="M563 748h-363v27h363v-27zM382 -12c-194 0 -317 152 -317 345s123 345 317 345c193 0 317 -152 317 -345s-124 -345 -317 -345zM382 18c171 0 282 134 282 315c0 183 -111 315 -282 315c-173 0 -282 -132 -282 -315c0 -181 109 -315 282 -315z"/>
<glyph horiz-adv-x="764" unicode="Ø" glyph-name="Oslash" d="M382 -12c-62 0 -117 15 -163 43l-18 -31h-36l29 48c-82 62 -129 165 -129 285c0 193 123 345 317 345c61 0 116 -16 162 -43l19 32h36l-30 -50c82 -61 130 -165 130 -284c0 -193 -124 -345 -317 -345zM382 18c171 0 282 134 282 315c0 110 -41 202 -111 258l-318 -534 c41 -25 91 -39 147 -39zM100 333c0 -110 40 -202 110 -258l318 534c-41 25 -91 39 -146 39c-173 0 -282 -132 -282 -315z"/>
<glyph horiz-adv-x="764" unicode="Ǿ" glyph-name="Oslashacute" d="M536 867l-175 -144h-30l160 144h45zM382 -12c-62 0 -117 15 -163 43l-18 -31h-36l29 48c-82 62 -129 165 -129 285c0 193 123 345 317 345c61 0 116 -16 162 -43l19 32h36l-30 -50c82 -61 130 -165 130 -284c0 -193 -124 -345 -317 -345zM382 18c171 0 282 134 282 315 c0 110 -41 202 -111 258l-318 -534c41 -25 91 -39 147 -39zM100 333c0 -110 40 -202 110 -258l318 534c-41 25 -91 39 -146 39c-173 0 -282 -132 -282 -315z"/>
<glyph horiz-adv-x="764" unicode="Õ" glyph-name="Otilde" d="M382 -12c-194 0 -317 152 -317 345s123 345 317 345c193 0 317 -152 317 -345s-124 -345 -317 -345zM382 18c171 0 282 134 282 315c0 183 -111 315 -282 315c-173 0 -282 -132 -282 -315c0 -181 109 -315 282 -315zM445 721c-77 0 -71 113 -128 113 c-33 0 -59 -32 -59 -107h-26c0 72 31 134 88 134c77 0 71 -113 128 -113c33 0 59 32 59 107h26c0 -72 -31 -134 -88 -134z"/>
<glyph horiz-adv-x="764" unicode="Ọ" glyph-name="uni1ECC" d="M382 -12c-194 0 -317 152 -317 345s123 345 317 345c193 0 317 -152 317 -345s-124 -345 -317 -345zM382 18c171 0 282 134 282 315c0 183 -111 315 -282 315c-173 0 -282 -132 -282 -315c0 -181 109 -315 282 -315zM383 -173c-15 0 -29 13 -29 29s14 29 29 29 c16 0 29 -13 29 -29s-13 -29 -29 -29z"/>
<glyph horiz-adv-x="764" unicode="Ỏ" glyph-name="uni1ECE" d="M382 -12c-194 0 -317 152 -317 345s123 345 317 345c193 0 317 -152 317 -345s-124 -345 -317 -345zM382 18c171 0 282 134 282 315c0 183 -111 315 -282 315c-173 0 -282 -132 -282 -315c0 -181 109 -315 282 -315zM337 761l-21 6c8 26 29 53 67 53c34 0 65 -20 65 -67 c0 -22 -7 -37 -22 -56h-27c19 19 26 38 26 56c0 29 -16 45 -42 45c-23 0 -38 -12 -46 -37z"/>
<glyph horiz-adv-x="764" unicode="Ố" glyph-name="uni1ED0" d="M501 682h-28l-91 90l-88 -90h-28l98 108h36zM675 845l-175 -108h-30l160 108h45zM382 -12c-194 0 -317 152 -317 345s123 345 317 345c193 0 317 -152 317 -345s-124 -345 -317 -345zM382 18c171 0 282 134 282 315c0 183 -111 315 -282 315c-173 0 -282 -132 -282 -315 c0 -181 109 -315 282 -315z"/>
<glyph horiz-adv-x="764" unicode="Ồ" glyph-name="uni1ED2" d="M501 682h-28l-91 90l-88 -90h-28l98 108h36zM382 -12c-194 0 -317 152 -317 345s123 345 317 345c193 0 317 -152 317 -345s-124 -345 -317 -345zM382 18c171 0 282 134 282 315c0 183 -111 315 -282 315c-173 0 -282 -132 -282 -315c0 -181 109 -315 282 -315zM294 737 h-30l-175 108h45z"/>
<glyph horiz-adv-x="764" unicode="Ổ" glyph-name="uni1ED4" d="M501 682h-28l-91 90l-88 -90h-28l98 108h36zM382 -12c-194 0 -317 152 -317 345s123 345 317 345c193 0 317 -152 317 -345s-124 -345 -317 -345zM382 18c171 0 282 134 282 315c0 183 -111 315 -282 315c-173 0 -282 -132 -282 -315c0 -181 109 -315 282 -315zM458 792 l-21 5c8 19 29 39 67 39c34 0 65 -15 65 -50c0 -16 -7 -28 -22 -42h-27c19 14 26 29 26 42c0 22 -16 34 -42 34c-23 0 -38 -9 -46 -28z"/>
<glyph horiz-adv-x="764" unicode="Ỗ" glyph-name="uni1ED6" d="M500 678h-28l-91 60l-88 -60h-28l98 72h36zM382 -12c-194 0 -317 152 -317 345s123 345 317 345c193 0 317 -152 317 -345s-124 -345 -317 -345zM382 18c171 0 282 134 282 315c0 183 -111 315 -282 315c-173 0 -282 -132 -282 -315c0 -181 109 -315 282 -315zM443 757 c-77 0 -71 56 -128 56c-33 0 -59 -16 -59 -53h-26c0 36 31 67 88 67c77 0 71 -57 128 -57c33 0 59 16 59 54h26c0 -36 -31 -67 -88 -67z"/>
<glyph horiz-adv-x="764" unicode="Ộ" glyph-name="uni1ED8" d="M501 723h-28l-91 120l-88 -120h-28l98 144h36zM382 -12c-194 0 -317 152 -317 345s123 345 317 345c193 0 317 -152 317 -345s-124 -345 -317 -345zM382 18c171 0 282 134 282 315c0 183 -111 315 -282 315c-173 0 -282 -132 -282 -315c0 -181 109 -315 282 -315z M385 -173c-15 0 -29 13 -29 29s14 29 29 29c16 0 29 -13 29 -29s-13 -29 -29 -29z"/>
<glyph horiz-adv-x="764" unicode="Ơ" glyph-name="Ohorn" d="M382 -12c-194 0 -317 152 -317 345s123 345 317 345c102 0 185 -43 241 -113c28 24 46 59 46 87c0 0 -6 -1 -8 -1c-19 0 -32 15 -32 33c0 17 13 32 32 32c21 0 39 -19 39 -53c0 -50 -29 -97 -61 -120c39 -58 60 -131 60 -210c0 -193 -124 -345 -317 -345zM382 18 c171 0 282 134 282 315c0 183 -111 315 -282 315c-173 0 -282 -132 -282 -315c0 -181 109 -315 282 -315z"/>
<glyph horiz-adv-x="764" unicode="Ớ" glyph-name="uni1EDA" d="M536 867l-175 -144h-30l160 144h45zM382 -12c-194 0 -317 152 -317 345s123 345 317 345c102 0 185 -43 241 -113c28 24 46 59 46 87c0 0 -6 -1 -8 -1c-19 0 -32 15 -32 33c0 17 13 32 32 32c21 0 39 -19 39 -53c0 -50 -29 -97 -61 -120c39 -58 60 -131 60 -210 c0 -193 -124 -345 -317 -345zM382 18c171 0 282 134 282 315c0 183 -111 315 -282 315c-173 0 -282 -132 -282 -315c0 -181 109 -315 282 -315z"/>
<glyph horiz-adv-x="764" unicode="Ờ" glyph-name="uni1EDC" d="M382 -12c-194 0 -317 152 -317 345s123 345 317 345c102 0 185 -43 241 -113c28 24 46 59 46 87c0 0 -6 -1 -8 -1c-19 0 -32 15 -32 33c0 17 13 32 32 32c21 0 39 -19 39 -53c0 -50 -29 -97 -61 -120c39 -58 60 -131 60 -210c0 -193 -124 -345 -317 -345zM382 18 c171 0 282 134 282 315c0 183 -111 315 -282 315c-173 0 -282 -132 -282 -315c0 -181 109 -315 282 -315zM433 723h-30l-175 144h45z"/>
<glyph horiz-adv-x="764" unicode="Ở" glyph-name="uni1EDE" d="M382 -12c-194 0 -317 152 -317 345s123 345 317 345c102 0 185 -43 241 -113c28 24 46 59 46 87c0 0 -6 -1 -8 -1c-19 0 -32 15 -32 33c0 17 13 32 32 32c21 0 39 -19 39 -53c0 -50 -29 -97 -61 -120c39 -58 60 -131 60 -210c0 -193 -124 -345 -317 -345zM382 18 c171 0 282 134 282 315c0 183 -111 315 -282 315c-173 0 -282 -132 -282 -315c0 -181 109 -315 282 -315zM337 761l-21 6c8 26 29 53 67 53c34 0 65 -20 65 -67c0 -22 -7 -37 -22 -56h-27c19 19 26 38 26 56c0 29 -16 45 -42 45c-23 0 -38 -12 -46 -37z"/>
<glyph horiz-adv-x="764" unicode="Ỡ" glyph-name="uni1EE0" d="M382 -12c-194 0 -317 152 -317 345s123 345 317 345c102 0 185 -43 241 -113c28 24 46 59 46 87c0 0 -6 -1 -8 -1c-19 0 -32 15 -32 33c0 17 13 32 32 32c21 0 39 -19 39 -53c0 -50 -29 -97 -61 -120c39 -58 60 -131 60 -210c0 -193 -124 -345 -317 -345zM382 18 c171 0 282 134 282 315c0 183 -111 315 -282 315c-173 0 -282 -132 -282 -315c0 -181 109 -315 282 -315zM445 721c-77 0 -71 113 -128 113c-33 0 -59 -32 -59 -107h-26c0 72 31 134 88 134c77 0 71 -113 128 -113c33 0 59 32 59 107h26c0 -72 -31 -134 -88 -134z"/>
<glyph horiz-adv-x="764" unicode="Ợ" glyph-name="uni1EE2" d="M382 -12c-194 0 -317 152 -317 345s123 345 317 345c102 0 185 -43 241 -113c28 24 46 59 46 87c0 0 -6 -1 -8 -1c-19 0 -32 15 -32 33c0 17 13 32 32 32c21 0 39 -19 39 -53c0 -50 -29 -97 -61 -120c39 -58 60 -131 60 -210c0 -193 -124 -345 -317 -345zM382 18 c171 0 282 134 282 315c0 183 -111 315 -282 315c-173 0 -282 -132 -282 -315c0 -181 109 -315 282 -315zM383 -173c-15 0 -29 13 -29 29s14 29 29 29c16 0 29 -13 29 -29s-13 -29 -29 -29z"/>
<glyph horiz-adv-x="1124" unicode="Œ" glyph-name="OE" d="M1059 0h-408v157c-53 -111 -158 -169 -269 -169c-194 0 -317 152 -317 345s123 344 317 344c111 0 216 -57 269 -167v157h408v-30h-376v-279h369v-30h-369v-298h376v-30zM651 218v231c-46 134 -148 198 -269 198c-173 0 -282 -131 -282 -314c0 -182 109 -315 282 -315 c121 0 223 66 269 200z"/>
<glyph horiz-adv-x="555" unicode="Ṗ" glyph-name="uni1E56" d="M120 0h-32v667h231c124 0 195 -87 195 -189s-73 -189 -195 -189h-199v-289zM318 319c98 0 161 67 161 159s-63 159 -161 159h-198v-318h198zM277 733c-15 0 -29 13 -29 29s14 29 29 29c16 0 29 -13 29 -29s-13 -29 -29 -29z"/>
<glyph horiz-adv-x="579" unicode="Ŕ" glyph-name="Racute" d="M450 867l-175 -144h-30l160 144h45zM524 0h-41l-203 288h-160v-288h-32v667h230c108 0 197 -67 197 -189s-89 -190 -197 -190zM318 318c98 0 162 68 162 160s-64 159 -162 159h-198v-319h198z"/>
<glyph horiz-adv-x="579" unicode="Ř" glyph-name="Rcaron" d="M309 723h-36l-101 144h28l91 -120l88 120h28zM524 0h-41l-203 288h-160v-288h-32v667h230c108 0 197 -67 197 -189s-89 -190 -197 -190zM318 318c98 0 162 68 162 160s-64 159 -162 159h-198v-319h198z"/>
<glyph horiz-adv-x="579" unicode="Ŗ" glyph-name="Rcommaaccent" d="M334 -137c0 -50 -30 -98 -62 -121l-22 18c32 24 53 62 53 92c0 0 -6 -1 -8 -1c-19 0 -32 15 -32 33c0 17 13 32 32 32c21 0 39 -19 39 -53zM524 0h-41l-203 288h-160v-288h-32v667h230c108 0 197 -67 197 -189s-89 -190 -197 -190zM318 318c98 0 162 68 162 160 s-64 159 -162 159h-198v-319h198z"/>
<glyph horiz-adv-x="575" unicode="Ś" glyph-name="Sacute" d="M438 867l-175 -144h-30l160 144h45zM286 -12c-104 0 -185 45 -233 106l26 23c41 -50 111 -99 207 -99c154 0 193 88 193 151c0 220 -405 111 -405 339c0 108 99 170 209 170c98 0 169 -36 216 -94l-25 -23c-47 61 -114 87 -191 87c-97 0 -174 -58 -174 -140 c0 -190 405 -90 405 -339c0 -75 -48 -181 -228 -181z"/>
<glyph horiz-adv-x="575" unicode="Š" glyph-name="Scaron" d="M299 723h-36l-101 144h28l91 -120l88 120h28zM286 -12c-104 0 -185 45 -233 106l26 23c41 -50 111 -99 207 -99c154 0 193 88 193 151c0 220 -405 111 -405 339c0 108 99 170 209 170c98 0 169 -36 216 -94l-25 -23c-47 61 -114 87 -191 87c-97 0 -174 -58 -174 -140 c0 -190 405 -90 405 -339c0 -75 -48 -181 -228 -181z"/>
<glyph horiz-adv-x="575" unicode="Ŝ" glyph-name="Scircumflex" d="M397 723h-28l-91 120l-88 -120h-28l98 144h36zM286 -12c-104 0 -185 45 -233 106l26 23c41 -50 111 -99 207 -99c154 0 193 88 193 151c0 220 -405 111 -405 339c0 108 99 170 209 170c98 0 169 -36 216 -94l-25 -23c-47 61 -114 87 -191 87c-97 0 -174 -58 -174 -140 c0 -190 405 -90 405 -339c0 -75 -48 -181 -228 -181z"/>
<glyph horiz-adv-x="575" unicode="Ş" glyph-name="Scedilla" d="M284 -187c-38 0 -74 13 -93 28l14 27c24 -21 52 -28 79 -28c37 0 69 18 69 49c0 26 -14 43 -44 43c-16 0 -33 -7 -43 -19l-22 13l22 63c-94 5 -168 48 -213 105l26 23c41 -50 111 -99 207 -99c154 0 193 88 193 151c0 220 -405 111 -405 339c0 108 99 170 209 170 c98 0 169 -36 216 -94l-25 -23c-47 61 -114 87 -191 87c-97 0 -174 -58 -174 -140c0 -190 405 -90 405 -339c0 -74 -46 -177 -218 -181l-17 -46c10 8 25 12 38 12c39 0 65 -25 65 -65c0 -45 -43 -76 -98 -76z"/>
<glyph horiz-adv-x="575" unicode="Ș" glyph-name="Scommaaccent" d="M327 -137c0 -50 -30 -98 -62 -121l-22 18c32 24 53 62 53 92c0 0 -6 -1 -8 -1c-19 0 -32 15 -32 33c0 17 13 32 32 32c21 0 39 -19 39 -53zM286 -12c-104 0 -185 45 -233 106l26 23c41 -50 111 -99 207 -99c154 0 193 88 193 151c0 220 -405 111 -405 339 c0 108 99 170 209 170c98 0 169 -36 216 -94l-25 -23c-47 61 -114 87 -191 87c-97 0 -174 -58 -174 -140c0 -190 405 -90 405 -339c0 -75 -48 -181 -228 -181z"/>
<glyph horiz-adv-x="575" unicode="Ṡ" glyph-name="uni1E60" d="M286 -12c-104 0 -185 45 -233 106l26 23c41 -50 111 -99 207 -99c154 0 193 88 193 151c0 220 -405 111 -405 339c0 108 99 170 209 170c98 0 169 -36 216 -94l-25 -23c-47 61 -114 87 -191 87c-97 0 -174 -58 -174 -140c0 -190 405 -90 405 -339 c0 -75 -48 -181 -228 -181zM287 733c-15 0 -29 13 -29 29s14 29 29 29c16 0 29 -13 29 -29s-13 -29 -29 -29z"/>
<glyph horiz-adv-x="559" unicode="Ŧ" glyph-name="Tbar" d="M295 0h-32v321h-165v27h165v289h-225v30h483v-30h-226v-289h166v-27h-166v-321z"/>
<glyph horiz-adv-x="559" unicode="Ť" glyph-name="Tcaron" d="M299 723h-36l-101 144h28l91 -120l88 120h28zM295 0h-32v637h-225v30h483v-30h-226v-637z"/>
<glyph horiz-adv-x="559" unicode="Ţ" glyph-name="Tcommaaccent" d="M324 -137c0 -50 -30 -98 -62 -121l-22 18c32 24 53 62 53 92c0 0 -6 -1 -8 -1c-19 0 -32 15 -32 33c0 17 13 32 32 32c21 0 39 -19 39 -53zM295 0h-32v637h-225v30h483v-30h-226v-637z"/>
<glyph horiz-adv-x="559" unicode="Ț" glyph-name="uni021A" d="M324 -137c0 -50 -30 -98 -62 -121l-22 18c32 24 53 62 53 92c0 0 -6 -1 -8 -1c-19 0 -32 15 -32 33c0 17 13 32 32 32c21 0 39 -19 39 -53zM295 0h-32v637h-225v30h483v-30h-226v-637z"/>
<glyph horiz-adv-x="559" unicode="Ṫ" glyph-name="uni1E6A" d="M295 0h-32v637h-225v30h483v-30h-226v-637zM279 733c-15 0 -29 13 -29 29s14 29 29 29c16 0 29 -13 29 -29s-13 -29 -29 -29z"/>
<glyph horiz-adv-x="672" unicode="Ú" glyph-name="Uacute" d="M490 867l-175 -144h-30l160 144h45zM336 -12c-162 0 -248 101 -248 265v414h32v-414c0 -148 76 -235 216 -235s216 87 216 235v414h32v-414c0 -165 -86 -265 -248 -265z"/>
<glyph horiz-adv-x="672" unicode="Ŭ" glyph-name="Ubreve" d="M336 -12c-162 0 -248 101 -248 265v414h32v-414c0 -148 76 -235 216 -235s216 87 216 235v414h32v-414c0 -165 -86 -265 -248 -265zM515 799c-40 -54 -103 -88 -175 -88c-71 0 -135 34 -176 88l21 19c35 -49 90 -80 155 -80s120 31 155 80z"/>
<glyph horiz-adv-x="672" unicode="Û" glyph-name="Ucircumflex" d="M457 723h-28l-91 120l-88 -120h-28l98 144h36zM336 -12c-162 0 -248 101 -248 265v414h32v-414c0 -148 76 -235 216 -235s216 87 216 235v414h32v-414c0 -165 -86 -265 -248 -265z"/>
<glyph horiz-adv-x="672" unicode="Ü" glyph-name="Udieresis" d="M465 765c0 -15 -13 -28 -28 -28s-28 13 -28 28s13 28 28 28s28 -13 28 -28zM263 765c0 -15 -13 -28 -28 -28s-28 13 -28 28s13 28 28 28s28 -13 28 -28zM336 -12c-162 0 -248 101 -248 265v414h32v-414c0 -148 76 -235 216 -235s216 87 216 235v414h32v-414 c0 -165 -86 -265 -248 -265z"/>
<glyph horiz-adv-x="672" unicode="Ù" glyph-name="Ugrave" d="M336 -12c-162 0 -248 101 -248 265v414h32v-414c0 -148 76 -235 216 -235s216 87 216 235v414h32v-414c0 -165 -86 -265 -248 -265zM387 723h-30l-175 144h45z"/>
<glyph horiz-adv-x="672" unicode="Ű" glyph-name="Uhungarumlaut" d="M336 -12c-162 0 -248 101 -248 265v414h32v-414c0 -148 76 -235 216 -235s216 87 216 235v414h32v-414c0 -165 -86 -265 -248 -265zM378 867l-115 -144h-26l100 144h41zM514 867l-115 -144h-26l100 144h41z"/>
<glyph horiz-adv-x="672" unicode="Ū" glyph-name="Umacron" d="M336 -12c-162 0 -248 101 -248 265v414h32v-414c0 -148 76 -235 216 -235s216 87 216 235v414h32v-414c0 -165 -86 -265 -248 -265zM517 748h-363v27h363v-27z"/>
<glyph horiz-adv-x="672" unicode="Ų" glyph-name="Uogonek" d="M336 -12c-162 0 -248 101 -248 265v414h32v-414c0 -148 76 -235 216 -235s216 87 216 235v414h32v-414c0 -132 -55 -223 -161 -253c-47 -23 -80 -55 -80 -102c0 -37 19 -57 52 -57c31 0 48 16 58 47l25 -11c-11 -31 -35 -63 -83 -63c-43 0 -81 25 -81 84 c0 33 18 66 46 91c-8 -1 -16 -1 -24 -1z"/>
<glyph horiz-adv-x="672" unicode="Ů" glyph-name="Uring" d="M336 720c-51 0 -93 42 -93 93s42 93 93 93s92 -42 92 -93s-41 -93 -92 -93zM336 744c38 0 68 31 68 69s-30 69 -68 69s-69 -31 -69 -69s31 -69 69 -69zM336 -12c-162 0 -248 101 -248 265v414h32v-414c0 -148 76 -235 216 -235s216 87 216 235v414h32v-414 c0 -165 -86 -265 -248 -265z"/>
<glyph horiz-adv-x="672" unicode="Ũ" glyph-name="Utilde" d="M336 -12c-162 0 -248 101 -248 265v414h32v-414c0 -148 76 -235 216 -235s216 87 216 235v414h32v-414c0 -165 -86 -265 -248 -265zM401 721c-77 0 -71 113 -128 113c-33 0 -59 -32 -59 -107h-26c0 72 31 134 88 134c77 0 71 -113 128 -113c33 0 59 32 59 107h26 c0 -72 -31 -134 -88 -134z"/>
<glyph horiz-adv-x="672" unicode="Ụ" glyph-name="uni1EE4" d="M336 -12c-162 0 -248 101 -248 265v414h32v-414c0 -148 76 -235 216 -235s216 87 216 235v414h32v-414c0 -165 -86 -265 -248 -265zM341 -173c-15 0 -29 13 -29 29s14 29 29 29c16 0 29 -13 29 -29s-13 -29 -29 -29z"/>
<glyph horiz-adv-x="672" unicode="Ư" glyph-name="Uhorn" d="M704 730c0 -68 -49 -128 -120 -152v-325c0 -165 -86 -265 -248 -265s-248 101 -248 265v414h32v-414c0 -148 76 -235 216 -235s216 87 216 235v414h32v-61c50 21 89 67 89 113c0 0 -6 -1 -8 -1c-19 0 -32 15 -32 33c0 17 13 32 32 32c21 0 39 -19 39 -53z"/>
<glyph horiz-adv-x="672" unicode="Ủ" glyph-name="uni1EE6" d="M336 -12c-162 0 -248 101 -248 265v414h32v-414c0 -148 76 -235 216 -235s216 87 216 235v414h32v-414c0 -165 -86 -265 -248 -265zM291 761l-21 6c8 26 29 53 67 53c34 0 65 -20 65 -67c0 -22 -7 -37 -22 -56h-27c19 19 26 38 26 56c0 29 -16 45 -42 45 c-23 0 -38 -12 -46 -37z"/>
<glyph horiz-adv-x="672" unicode="Ứ" glyph-name="uni1EE8" d="M490 867l-175 -144h-30l160 144h45zM704 730c0 -68 -49 -128 -120 -152v-325c0 -165 -86 -265 -248 -265s-248 101 -248 265v414h32v-414c0 -148 76 -235 216 -235s216 87 216 235v414h32v-61c50 21 89 67 89 113c0 0 -6 -1 -8 -1c-19 0 -32 15 -32 33c0 17 13 32 32 32 c21 0 39 -19 39 -53z"/>
<glyph horiz-adv-x="672" unicode="Ừ" glyph-name="uni1EEA" d="M387 723h-30l-175 144h45zM704 730c0 -68 -49 -128 -120 -152v-325c0 -165 -86 -265 -248 -265s-248 101 -248 265v414h32v-414c0 -148 76 -235 216 -235s216 87 216 235v414h32v-61c50 21 89 67 89 113c0 0 -6 -1 -8 -1c-19 0 -32 15 -32 33c0 17 13 32 32 32 c21 0 39 -19 39 -53z"/>
<glyph horiz-adv-x="672" unicode="Ử" glyph-name="uni1EEC" d="M291 761l-21 6c8 26 29 53 67 53c34 0 65 -20 65 -67c0 -22 -7 -37 -22 -56h-27c19 19 26 38 26 56c0 29 -16 45 -42 45c-23 0 -38 -12 -46 -37zM704 730c0 -68 -49 -128 -120 -152v-325c0 -165 -86 -265 -248 -265s-248 101 -248 265v414h32v-414 c0 -148 76 -235 216 -235s216 87 216 235v414h32v-61c50 21 89 67 89 113c0 0 -6 -1 -8 -1c-19 0 -32 15 -32 33c0 17 13 32 32 32c21 0 39 -19 39 -53z"/>
<glyph horiz-adv-x="672" unicode="Ữ" glyph-name="uni1EEE" d="M704 730c0 -68 -49 -128 -120 -152v-325c0 -165 -86 -265 -248 -265s-248 101 -248 265v414h32v-414c0 -148 76 -235 216 -235s216 87 216 235v414h32v-61c50 21 89 67 89 113c0 0 -6 -1 -8 -1c-19 0 -32 15 -32 33c0 17 13 32 32 32c21 0 39 -19 39 -53zM398 721 c-77 0 -71 113 -128 113c-33 0 -59 -32 -59 -107h-26c0 72 31 134 88 134c77 0 71 -113 128 -113c33 0 59 32 59 107h26c0 -72 -31 -134 -88 -134z"/>
<glyph horiz-adv-x="672" unicode="Ự" glyph-name="uni1EF0" d="M341 -173c-15 0 -29 13 -29 29s14 29 29 29c16 0 29 -13 29 -29s-13 -29 -29 -29zM704 730c0 -68 -49 -128 -120 -152v-325c0 -165 -86 -265 -248 -265s-248 101 -248 265v414h32v-414c0 -148 76 -235 216 -235s216 87 216 235v414h32v-61c50 21 89 67 89 113 c0 0 -6 -1 -8 -1c-19 0 -32 15 -32 33c0 17 13 32 32 32c21 0 39 -19 39 -53z"/>
<glyph horiz-adv-x="852" unicode="Ẃ" glyph-name="Wacute" d="M580 867l-175 -144h-30l160 144h45zM637 0h-38l-173 607l-173 -607h-38l-190 667h35l174 -619l175 619h34l175 -619l174 619h35z"/>
<glyph horiz-adv-x="852" unicode="Ŵ" glyph-name="Wcircumflex" d="M544 723h-28l-91 120l-88 -120h-28l98 144h36zM637 0h-38l-173 607l-173 -607h-38l-190 667h35l174 -619l175 619h34l175 -619l174 619h35z"/>
<glyph horiz-adv-x="852" unicode="Ẅ" glyph-name="Wdieresis" d="M555 765c0 -15 -13 -28 -28 -28s-28 13 -28 28s13 28 28 28s28 -13 28 -28zM353 765c0 -15 -13 -28 -28 -28s-28 13 -28 28s13 28 28 28s28 -13 28 -28zM637 0h-38l-173 607l-173 -607h-38l-190 667h35l174 -619l175 619h34l175 -619l174 619h35z"/>
<glyph horiz-adv-x="852" unicode="Ẁ" glyph-name="Wgrave" d="M637 0h-38l-173 607l-173 -607h-38l-190 667h35l174 -619l175 619h34l175 -619l174 619h35zM477 723h-30l-175 144h45z"/>
<glyph horiz-adv-x="610" unicode="Ý" glyph-name="Yacute" d="M321 0h-32v289l-268 378h41l243 -346l243 346h41l-268 -378v-289zM459 867l-175 -144h-30l160 144h45z"/>
<glyph horiz-adv-x="610" unicode="Ŷ" glyph-name="Ycircumflex" d="M424 723h-28l-91 120l-88 -120h-28l98 144h36zM321 0h-32v289l-268 378h41l243 -346l243 346h41l-268 -378v-289z"/>
<glyph horiz-adv-x="610" unicode="Ÿ" glyph-name="Ydieresis" d="M438 765c0 -15 -13 -28 -28 -28s-28 13 -28 28s13 28 28 28s28 -13 28 -28zM236 765c0 -15 -13 -28 -28 -28s-28 13 -28 28s13 28 28 28s28 -13 28 -28zM321 0h-32v289l-268 378h41l243 -346l243 346h41l-268 -378v-289z"/>
<glyph horiz-adv-x="610" unicode="Ỳ" glyph-name="Ygrave" d="M321 0h-32v289l-268 378h41l243 -346l243 346h41l-268 -378v-289zM356 723h-30l-175 144h45z"/>
<glyph horiz-adv-x="578" unicode="Ź" glyph-name="Zacute" d="M443 867l-175 -144h-30l160 144h45zM525 0h-472v30l427 607h-427v30h465v-30l-428 -607h435v-30z"/>
<glyph horiz-adv-x="578" unicode="Ž" glyph-name="Zcaron" d="M308 723h-36l-101 144h28l91 -120l88 120h28zM525 0h-472v30l427 607h-427v30h465v-30l-428 -607h435v-30z"/>
<glyph horiz-adv-x="578" unicode="Ż" glyph-name="Zdotaccent" d="M525 0h-472v30l427 607h-427v30h465v-30l-428 -607h435v-30zM289 733c-15 0 -29 13 -29 29s14 29 29 29c16 0 29 -13 29 -29s-13 -29 -29 -29z"/>
<glyph horiz-adv-x="715" unicode="Ð" glyph-name="Eth" d="M317 0h-198v318h-107v30h107v319h198c207 0 332 -156 332 -334c0 -180 -125 -333 -332 -333zM317 30c189 0 297 134 297 303c0 167 -108 304 -297 304h-166v-289h188v-30h-188v-288h166z"/>
<glyph horiz-adv-x="555" unicode="Þ" glyph-name="Thorn" d="M120 0h-32v667h32v-129h199c124 0 195 -88 195 -190s-73 -188 -195 -188h-199v-160zM318 190c98 0 161 66 161 158s-63 160 -161 160h-198v-318h198z"/>
<glyph horiz-adv-x="514" unicode="á" glyph-name="aacute" d="M428 0h-30v59c-45 -49 -99 -71 -167 -71c-85 0 -169 58 -169 161s83 161 169 161c68 0 122 -22 167 -71v109c0 78 -62 120 -136 120c-63 0 -110 -22 -155 -76l-23 20c47 55 97 83 178 83c95 0 166 -48 166 -146v-349zM239 15c63 0 122 25 159 74v120 c-37 49 -96 74 -159 74c-88 0 -144 -59 -144 -134s56 -134 144 -134zM416 700l-175 -144h-30l160 144h45z"/>
<glyph horiz-adv-x="514" unicode="ă" glyph-name="abreve" d="M428 0h-30v59c-45 -49 -99 -71 -167 -71c-85 0 -169 58 -169 161s83 161 169 161c68 0 122 -22 167 -71v109c0 78 -62 120 -136 120c-63 0 -110 -22 -155 -76l-23 20c47 55 97 83 178 83c95 0 166 -48 166 -146v-349zM239 15c63 0 122 25 159 74v120 c-37 49 -96 74 -159 74c-88 0 -144 -59 -144 -134s56 -134 144 -134zM432 632c-40 -54 -103 -88 -175 -88c-71 0 -135 34 -176 88l21 19c35 -49 90 -80 155 -80s120 31 155 80z"/>
<glyph horiz-adv-x="514" unicode="â" glyph-name="acircumflex" d="M428 0h-30v59c-45 -49 -99 -71 -167 -71c-85 0 -169 58 -169 161s83 161 169 161c68 0 122 -22 167 -71v109c0 78 -62 120 -136 120c-63 0 -110 -22 -155 -76l-23 20c47 55 97 83 178 83c95 0 166 -48 166 -146v-349zM239 15c63 0 122 25 159 74v120 c-37 49 -96 74 -159 74c-88 0 -144 -59 -144 -134s56 -134 144 -134zM381 556h-28l-91 120l-88 -120h-28l98 144h36z"/>
<glyph horiz-adv-x="514" unicode="ä" glyph-name="adieresis" d="M428 0h-30v59c-45 -49 -99 -71 -167 -71c-85 0 -169 58 -169 161s83 161 169 161c68 0 122 -22 167 -71v109c0 78 -62 120 -136 120c-63 0 -110 -22 -155 -76l-23 20c47 55 97 83 178 83c95 0 166 -48 166 -146v-349zM239 15c63 0 122 25 159 74v120 c-37 49 -96 74 -159 74c-88 0 -144 -59 -144 -134s56 -134 144 -134zM389 598c0 -15 -13 -28 -28 -28s-28 13 -28 28s13 28 28 28s28 -13 28 -28zM187 598c0 -15 -13 -28 -28 -28s-28 13 -28 28s13 28 28 28s28 -13 28 -28z"/>
<glyph horiz-adv-x="514" unicode="à" glyph-name="agrave" d="M428 0h-30v59c-45 -49 -99 -71 -167 -71c-85 0 -169 58 -169 161s83 161 169 161c68 0 122 -22 167 -71v109c0 78 -62 120 -136 120c-63 0 -110 -22 -155 -76l-23 20c47 55 97 83 178 83c95 0 166 -48 166 -146v-349zM239 15c63 0 122 25 159 74v120 c-37 49 -96 74 -159 74c-88 0 -144 -59 -144 -134s56 -134 144 -134zM313 556h-30l-175 144h45z"/>
<glyph horiz-adv-x="514" unicode="ā" glyph-name="amacron" d="M428 0h-30v59c-45 -49 -99 -71 -167 -71c-85 0 -169 58 -169 161s83 161 169 161c68 0 122 -22 167 -71v109c0 78 -62 120 -136 120c-63 0 -110 -22 -155 -76l-23 20c47 55 97 83 178 83c95 0 166 -48 166 -146v-349zM239 15c63 0 122 25 159 74v120 c-37 49 -96 74 -159 74c-88 0 -144 -59 -144 -134s56 -134 144 -134zM438 581h-363v27h363v-27z"/>
<glyph horiz-adv-x="514" unicode="ą" glyph-name="aogonek" d="M456 -112l25 -11c-11 -31 -35 -63 -83 -63c-43 0 -81 25 -81 84c0 46 34 90 81 115v46c-45 -49 -99 -71 -167 -71c-85 0 -169 58 -169 161s83 161 169 161c68 0 122 -22 167 -71v109c0 78 -62 120 -136 120c-63 0 -110 -22 -155 -76l-23 20c47 55 97 83 178 83 c95 0 166 -48 166 -146v-349c-48 -23 -82 -55 -82 -102c0 -37 19 -57 52 -57c31 0 48 16 58 47zM239 15c63 0 122 25 159 74v120c-37 49 -96 74 -159 74c-88 0 -144 -59 -144 -134s56 -134 144 -134z"/>
<glyph horiz-adv-x="514" unicode="å" glyph-name="aring" d="M428 0h-30v59c-45 -49 -99 -71 -167 -71c-85 0 -169 58 -169 161s83 161 169 161c68 0 122 -22 167 -71v109c0 78 -62 120 -136 120c-63 0 -110 -22 -155 -76l-23 20c47 55 97 83 178 83c95 0 166 -48 166 -146v-349zM239 15c63 0 122 25 159 74v120 c-37 49 -96 74 -159 74c-88 0 -144 -59 -144 -134s56 -134 144 -134zM261 553c-51 0 -93 42 -93 93s42 93 93 93s92 -42 92 -93s-41 -93 -92 -93zM261 577c38 0 68 31 68 69s-30 69 -68 69s-69 -31 -69 -69s31 -69 69 -69z"/>
<glyph horiz-adv-x="514" unicode="ã" glyph-name="atilde" d="M428 0h-30v59c-45 -49 -99 -71 -167 -71c-85 0 -169 58 -169 161s83 161 169 161c68 0 122 -22 167 -71v109c0 78 -62 120 -136 120c-63 0 -110 -22 -155 -76l-23 20c47 55 97 83 178 83c95 0 166 -48 166 -146v-349zM239 15c63 0 122 25 159 74v120 c-37 49 -96 74 -159 74c-88 0 -144 -59 -144 -134s56 -134 144 -134zM324 554c-77 0 -71 113 -128 113c-33 0 -59 -32 -59 -107h-26c0 72 31 134 88 134c77 0 71 -113 128 -113c33 0 59 32 59 107h26c0 -72 -31 -134 -88 -134z"/>
<glyph horiz-adv-x="514" unicode="ạ" glyph-name="uni1EA1" d="M428 0h-30v59c-45 -49 -99 -71 -167 -71c-85 0 -169 58 -169 161s83 161 169 161c68 0 122 -22 167 -71v109c0 78 -62 120 -136 120c-63 0 -110 -22 -155 -76l-23 20c47 55 97 83 178 83c95 0 166 -48 166 -146v-349zM239 15c63 0 122 25 159 74v120 c-37 49 -96 74 -159 74c-88 0 -144 -59 -144 -134s56 -134 144 -134zM258 -173c-15 0 -29 13 -29 29s14 29 29 29c16 0 29 -13 29 -29s-13 -29 -29 -29z"/>
<glyph horiz-adv-x="514" unicode="ả" glyph-name="uni1EA3" d="M428 0h-30v59c-45 -49 -99 -71 -167 -71c-85 0 -169 58 -169 161s83 161 169 161c68 0 122 -22 167 -71v109c0 78 -62 120 -136 120c-63 0 -110 -22 -155 -76l-23 20c47 55 97 83 178 83c95 0 166 -48 166 -146v-349zM239 15c63 0 122 25 159 74v120 c-37 49 -96 74 -159 74c-88 0 -144 -59 -144 -134s56 -134 144 -134zM212 591l-21 6c8 26 29 53 67 53c34 0 65 -20 65 -67c0 -22 -7 -37 -22 -56h-27c19 19 26 38 26 56c0 29 -16 45 -42 45c-23 0 -38 -12 -46 -37z"/>
<glyph horiz-adv-x="514" unicode="ấ" glyph-name="uni1EA5" d="M428 0h-30v59c-45 -49 -99 -71 -167 -71c-85 0 -169 58 -169 161s83 161 169 161c68 0 122 -22 167 -71v109c0 78 -62 120 -136 120c-63 0 -110 -22 -155 -76l-23 20c47 55 97 83 178 83c95 0 166 -48 166 -146v-349zM239 15c63 0 122 25 159 74v120 c-37 49 -96 74 -159 74c-88 0 -144 -59 -144 -134s56 -134 144 -134zM381 556h-28l-91 120l-88 -120h-28l98 144h36zM547 770l-175 -144h-30l160 144h45z"/>
<glyph horiz-adv-x="514" unicode="ậ" glyph-name="uni1EAD" d="M428 0h-30v59c-45 -49 -99 -71 -167 -71c-85 0 -169 58 -169 161s83 161 169 161c68 0 122 -22 167 -71v109c0 78 -62 120 -136 120c-63 0 -110 -22 -155 -76l-23 20c47 55 97 83 178 83c95 0 166 -48 166 -146v-349zM239 15c63 0 122 25 159 74v120 c-37 49 -96 74 -159 74c-88 0 -144 -59 -144 -134s56 -134 144 -134zM374 556h-28l-91 120l-88 -120h-28l98 144h36zM258 -173c-15 0 -29 13 -29 29s14 29 29 29c16 0 29 -13 29 -29s-13 -29 -29 -29z"/>
<glyph horiz-adv-x="514" unicode="ầ" glyph-name="uni1EA7" d="M428 0h-30v59c-45 -49 -99 -71 -167 -71c-85 0 -169 58 -169 161s83 161 169 161c68 0 122 -22 167 -71v109c0 78 -62 120 -136 120c-63 0 -110 -22 -155 -76l-23 20c47 55 97 83 178 83c95 0 166 -48 166 -146v-349zM239 15c63 0 122 25 159 74v120 c-37 49 -96 74 -159 74c-88 0 -144 -59 -144 -134s56 -134 144 -134zM381 556h-28l-91 120l-88 -120h-28l98 144h36zM182 626h-30l-175 144h45z"/>
<glyph horiz-adv-x="514" unicode="ẩ" glyph-name="uni1EA9" d="M428 0h-30v59c-45 -49 -99 -71 -167 -71c-85 0 -169 58 -169 161s83 161 169 161c68 0 122 -22 167 -71v109c0 78 -62 120 -136 120c-63 0 -110 -22 -155 -76l-23 20c47 55 97 83 178 83c95 0 166 -48 166 -146v-349zM239 15c63 0 122 25 159 74v120 c-37 49 -96 74 -159 74c-88 0 -144 -59 -144 -134s56 -134 144 -134zM381 556h-28l-91 120l-88 -120h-28l98 144h36zM295 731l-21 6c8 26 29 53 67 53c34 0 65 -20 65 -67c0 -22 -7 -37 -22 -56h-27c19 19 26 38 26 56c0 29 -16 45 -42 45c-23 0 -38 -12 -46 -37z"/>
<glyph horiz-adv-x="514" unicode="ắ" glyph-name="uni1EAF" d="M428 0h-30v59c-45 -49 -99 -71 -167 -71c-85 0 -169 58 -169 161s83 161 169 161c68 0 122 -22 167 -71v109c0 78 -62 120 -136 120c-63 0 -110 -22 -155 -76l-23 20c47 55 97 83 178 83c95 0 166 -48 166 -146v-349zM239 15c63 0 122 25 159 74v120 c-37 49 -96 74 -159 74c-88 0 -144 -59 -144 -134s56 -134 144 -134zM415 756l-175 -144h-30l160 144h45zM436 614c-40 -54 -103 -88 -175 -88c-71 0 -135 34 -176 88l21 19c35 -49 90 -80 155 -80s120 31 155 80z"/>
<glyph horiz-adv-x="514" unicode="ẫ" glyph-name="uni1EAB" d="M428 0h-30v59c-45 -49 -99 -71 -167 -71c-85 0 -169 58 -169 161s83 161 169 161c68 0 122 -22 167 -71v109c0 78 -62 120 -136 120c-63 0 -110 -22 -155 -76l-23 20c47 55 97 83 178 83c95 0 166 -48 166 -146v-349zM239 15c63 0 122 25 159 74v120 c-37 49 -96 74 -159 74c-88 0 -144 -59 -144 -134s56 -134 144 -134zM381 523h-28l-91 120l-88 -120h-28l98 144h36zM319 682c-77 0 -71 113 -128 113c-33 0 -59 -32 -59 -107h-26c0 72 31 134 88 134c77 0 71 -113 128 -113c33 0 59 32 59 107h26c0 -72 -31 -134 -88 -134z "/>
<glyph horiz-adv-x="514" unicode="ằ" glyph-name="uni1EB1" d="M428 0h-30v59c-45 -49 -99 -71 -167 -71c-85 0 -169 58 -169 161s83 161 169 161c68 0 122 -22 167 -71v109c0 78 -62 120 -136 120c-63 0 -110 -22 -155 -76l-23 20c47 55 97 83 178 83c95 0 166 -48 166 -146v-349zM239 15c63 0 122 25 159 74v120 c-37 49 -96 74 -159 74c-88 0 -144 -59 -144 -134s56 -134 144 -134zM311 612h-30l-175 144h45zM436 619c-40 -54 -103 -88 -175 -88c-71 0 -135 34 -176 88l21 19c35 -49 90 -80 155 -80s120 31 155 80z"/>
<glyph horiz-adv-x="514" unicode="ẳ" glyph-name="uni1EB3" d="M428 0h-30v59c-45 -49 -99 -71 -167 -71c-85 0 -169 58 -169 161s83 161 169 161c68 0 122 -22 167 -71v109c0 78 -62 120 -136 120c-63 0 -110 -22 -155 -76l-23 20c47 55 97 83 178 83c95 0 166 -48 166 -146v-349zM239 15c63 0 122 25 159 74v120 c-37 49 -96 74 -159 74c-88 0 -144 -59 -144 -134s56 -134 144 -134zM214 671l-21 6c8 26 29 53 67 53c34 0 65 -20 65 -67c0 -22 -7 -37 -22 -56h-27c19 19 26 38 26 56c0 29 -16 45 -42 45c-23 0 -38 -12 -46 -37zM436 619c-40 -54 -103 -88 -175 -88 c-71 0 -135 34 -176 88l21 19c35 -49 90 -80 155 -80s120 31 155 80z"/>
<glyph horiz-adv-x="514" unicode="ẵ" glyph-name="uni1EB5" d="M428 0h-30v59c-45 -49 -99 -71 -167 -71c-85 0 -169 58 -169 161s83 161 169 161c68 0 122 -22 167 -71v109c0 78 -62 120 -136 120c-63 0 -110 -22 -155 -76l-23 20c47 55 97 83 178 83c95 0 166 -48 166 -146v-349zM239 15c63 0 122 25 159 74v120 c-37 49 -96 74 -159 74c-88 0 -144 -59 -144 -134s56 -134 144 -134zM436 619c-40 -54 -103 -88 -175 -88c-71 0 -135 34 -176 88l21 19c35 -49 90 -80 155 -80s120 31 155 80zM319 656c-77 0 -71 113 -128 113c-33 0 -59 -32 -59 -107h-26c0 72 31 134 88 134 c77 0 71 -113 128 -113c33 0 59 32 59 107h26c0 -72 -31 -134 -88 -134z"/>
<glyph horiz-adv-x="514" unicode="ặ" glyph-name="uni1EB7" d="M428 0h-30v59c-45 -49 -99 -71 -167 -71c-85 0 -169 58 -169 161s83 161 169 161c68 0 122 -22 167 -71v109c0 78 -62 120 -136 120c-63 0 -110 -22 -155 -76l-23 20c47 55 97 83 178 83c95 0 166 -48 166 -146v-349zM239 15c63 0 122 25 159 74v120 c-37 49 -96 74 -159 74c-88 0 -144 -59 -144 -134s56 -134 144 -134zM258 -173c-15 0 -29 13 -29 29s14 29 29 29c16 0 29 -13 29 -29s-13 -29 -29 -29zM432 632c-40 -54 -103 -88 -175 -88c-71 0 -135 34 -176 88l21 19c35 -49 90 -80 155 -80s120 31 155 80z"/>
<glyph horiz-adv-x="905" unicode="æ" glyph-name="ae" d="M845 232h-391c4 -118 74 -217 188 -217c64 0 115 25 157 73l18 -19c-45 -51 -96 -81 -174 -81c-90 0 -164 50 -198 142c-28 -87 -101 -142 -192 -142c-109 0 -191 59 -191 162s86 160 180 160c74 0 133 -21 182 -69v107c0 78 -60 120 -148 120c-69 0 -120 -22 -169 -76 l-23 20c47 55 111 83 200 83c67 0 158 -28 168 -124c30 69 100 124 181 124c142 0 212 -119 212 -253v-10zM454 259h359c0 93 -52 209 -180 209c-115 0 -176 -114 -179 -209zM424 188v19c-40 50 -104 76 -172 76c-96 0 -157 -59 -157 -134s61 -134 157 -134 c108 0 172 82 172 173z"/>
<glyph horiz-adv-x="905" unicode="ǽ" glyph-name="aeacute" d="M567 700l-175 -144h-30l160 144h45zM845 232h-391c4 -118 74 -217 188 -217c64 0 115 25 157 73l18 -19c-45 -51 -96 -81 -174 -81c-90 0 -164 50 -198 142c-28 -87 -101 -142 -192 -142c-109 0 -191 59 -191 162s86 160 180 160c74 0 133 -21 182 -69v107 c0 78 -60 120 -148 120c-69 0 -120 -22 -169 -76l-23 20c47 55 111 83 200 83c67 0 158 -28 168 -124c30 69 100 124 181 124c142 0 212 -119 212 -253v-10zM454 259h359c0 93 -52 209 -180 209c-115 0 -176 -114 -179 -209zM424 188v19c-40 50 -104 76 -172 76 c-96 0 -157 -59 -157 -134s61 -134 157 -134c108 0 172 82 172 173z"/>
<glyph horiz-adv-x="566" glyph-name="aacute.alt1" d="M430 700l-175 -144h-30l160 144h45zM480 0h-30v81c-33 -50 -98 -93 -174 -93c-130 0 -216 100 -216 253c0 152 86 254 216 254c72 0 135 -38 174 -95v83h30v-483zM276 15c75 0 144 45 174 96v259c-30 51 -99 98 -174 98c-118 0 -183 -100 -183 -227s65 -226 183 -226z "/>
<glyph horiz-adv-x="566" glyph-name="abreve.alt1" d="M480 0h-30v81c-33 -50 -98 -93 -174 -93c-130 0 -216 100 -216 253c0 152 86 254 216 254c72 0 135 -38 174 -95v83h30v-483zM276 15c75 0 144 45 174 96v259c-30 51 -99 98 -174 98c-118 0 -183 -100 -183 -227s65 -226 183 -226zM461 632c-40 -54 -103 -88 -175 -88 c-71 0 -135 34 -176 88l21 19c35 -49 90 -80 155 -80s120 31 155 80z"/>
<glyph horiz-adv-x="566" glyph-name="acircumflex.alt1" d="M405 556h-28l-91 120l-88 -120h-28l98 144h36zM480 0h-30v81c-33 -50 -98 -93 -174 -93c-130 0 -216 100 -216 253c0 152 86 254 216 254c72 0 135 -38 174 -95v83h30v-483zM276 15c75 0 144 45 174 96v259c-30 51 -99 98 -174 98c-118 0 -183 -100 -183 -227 s65 -226 183 -226z"/>
<glyph horiz-adv-x="566" glyph-name="adieresis.alt1" d="M415 598c0 -15 -13 -28 -28 -28s-28 13 -28 28s13 28 28 28s28 -13 28 -28zM213 598c0 -15 -13 -28 -28 -28s-28 13 -28 28s13 28 28 28s28 -13 28 -28zM480 0h-30v81c-33 -50 -98 -93 -174 -93c-130 0 -216 100 -216 253c0 152 86 254 216 254c72 0 135 -38 174 -95v83 h30v-483zM276 15c75 0 144 45 174 96v259c-30 51 -99 98 -174 98c-118 0 -183 -100 -183 -227s65 -226 183 -226z"/>
<glyph horiz-adv-x="566" glyph-name="agrave.alt1" d="M480 0h-30v81c-33 -50 -98 -93 -174 -93c-130 0 -216 100 -216 253c0 152 86 254 216 254c72 0 135 -38 174 -95v83h30v-483zM276 15c75 0 144 45 174 96v259c-30 51 -99 98 -174 98c-118 0 -183 -100 -183 -227s65 -226 183 -226zM327 556h-30l-175 144h45z"/>
<glyph horiz-adv-x="566" glyph-name="amacron.alt1" d="M471 581h-363v27h363v-27zM480 0h-30v81c-33 -50 -98 -93 -174 -93c-130 0 -216 100 -216 253c0 152 86 254 216 254c72 0 135 -38 174 -95v83h30v-483zM276 15c75 0 144 45 174 96v259c-30 51 -99 98 -174 98c-118 0 -183 -100 -183 -227s65 -226 183 -226z"/>
<glyph horiz-adv-x="566" glyph-name="aogonek.alt1" d="M480 0c-48 -23 -82 -55 -82 -102c0 -37 19 -57 52 -57c31 0 48 16 58 47l25 -11c-11 -31 -35 -63 -83 -63c-43 0 -81 25 -81 84c0 46 34 90 81 115v68c-33 -50 -98 -93 -174 -93c-130 0 -216 100 -216 253c0 152 86 254 216 254c72 0 135 -38 174 -95v83h30v-483zM276 15 c75 0 144 45 174 96v259c-30 51 -99 98 -174 98c-118 0 -183 -100 -183 -227s65 -226 183 -226z"/>
<glyph horiz-adv-x="566" glyph-name="aring.alt1" d="M283 553c-51 0 -93 42 -93 93s42 93 93 93s92 -42 92 -93s-41 -93 -92 -93zM283 577c38 0 68 31 68 69s-30 69 -68 69s-69 -31 -69 -69s31 -69 69 -69zM480 0h-30v81c-33 -50 -98 -93 -174 -93c-130 0 -216 100 -216 253c0 152 86 254 216 254c72 0 135 -38 174 -95v83 h30v-483zM276 15c75 0 144 45 174 96v259c-30 51 -99 98 -174 98c-118 0 -183 -100 -183 -227s65 -226 183 -226z"/>
<glyph horiz-adv-x="566" glyph-name="atilde.alt1" d="M480 0h-30v81c-33 -50 -98 -93 -174 -93c-130 0 -216 100 -216 253c0 152 86 254 216 254c72 0 135 -38 174 -95v83h30v-483zM276 15c75 0 144 45 174 96v259c-30 51 -99 98 -174 98c-118 0 -183 -100 -183 -227s65 -226 183 -226zM348 554c-77 0 -71 113 -128 113 c-33 0 -59 -32 -59 -107h-26c0 72 31 134 88 134c77 0 71 -113 128 -113c33 0 59 32 59 107h26c0 -72 -31 -134 -88 -134z"/>
<glyph horiz-adv-x="566" glyph-name="uni1EA1.alt1" d="M480 0h-30v81c-33 -50 -98 -93 -174 -93c-130 0 -216 100 -216 253c0 152 86 254 216 254c72 0 135 -38 174 -95v83h30v-483zM276 15c75 0 144 45 174 96v259c-30 51 -99 98 -174 98c-118 0 -183 -100 -183 -227s65 -226 183 -226zM282 -173c-15 0 -29 13 -29 29 s14 29 29 29c16 0 29 -13 29 -29s-13 -29 -29 -29z"/>
<glyph horiz-adv-x="566" glyph-name="uni1EA3.alt1" d="M480 0h-30v81c-33 -50 -98 -93 -174 -93c-130 0 -216 100 -216 253c0 152 86 254 216 254c72 0 135 -38 174 -95v83h30v-483zM276 15c75 0 144 45 174 96v259c-30 51 -99 98 -174 98c-118 0 -183 -100 -183 -227s65 -226 183 -226zM244 591l-21 6c8 26 29 53 67 53 c34 0 65 -20 65 -67c0 -22 -7 -37 -22 -56h-27c19 19 26 38 26 56c0 29 -16 45 -42 45c-23 0 -38 -12 -46 -37z"/>
<glyph horiz-adv-x="566" glyph-name="uni1EA5.alt1" d="M405 556h-28l-91 120l-88 -120h-28l98 144h36zM571 770l-175 -144h-30l160 144h45zM480 0h-30v81c-33 -50 -98 -93 -174 -93c-130 0 -216 100 -216 253c0 152 86 254 216 254c72 0 135 -38 174 -95v83h30v-483zM276 15c75 0 144 45 174 96v259c-30 51 -99 98 -174 98 c-118 0 -183 -100 -183 -227s65 -226 183 -226z"/>
<glyph horiz-adv-x="566" glyph-name="uni1EAD.alt1" d="M406 556h-28l-91 120l-88 -120h-28l98 144h36zM480 0h-30v81c-33 -50 -98 -93 -174 -93c-130 0 -216 100 -216 253c0 152 86 254 216 254c72 0 135 -38 174 -95v83h30v-483zM276 15c75 0 144 45 174 96v259c-30 51 -99 98 -174 98c-118 0 -183 -100 -183 -227 s65 -226 183 -226zM290 -173c-15 0 -29 13 -29 29s14 29 29 29c16 0 29 -13 29 -29s-13 -29 -29 -29z"/>
<glyph horiz-adv-x="566" glyph-name="uni1EA7.alt1" d="M405 556h-28l-91 120l-88 -120h-28l98 144h36zM480 0h-30v81c-33 -50 -98 -93 -174 -93c-130 0 -216 100 -216 253c0 152 86 254 216 254c72 0 135 -38 174 -95v83h30v-483zM276 15c75 0 144 45 174 96v259c-30 51 -99 98 -174 98c-118 0 -183 -100 -183 -227 s65 -226 183 -226zM206 626h-30l-175 144h45z"/>
<glyph horiz-adv-x="566" glyph-name="uni1EA9.alt1" d="M405 556h-28l-91 120l-88 -120h-28l98 144h36zM480 0h-30v81c-33 -50 -98 -93 -174 -93c-130 0 -216 100 -216 253c0 152 86 254 216 254c72 0 135 -38 174 -95v83h30v-483zM276 15c75 0 144 45 174 96v259c-30 51 -99 98 -174 98c-118 0 -183 -100 -183 -227 s65 -226 183 -226zM319 731l-21 6c8 26 29 53 67 53c34 0 65 -20 65 -67c0 -22 -7 -37 -22 -56h-27c19 19 26 38 26 56c0 29 -16 45 -42 45c-23 0 -38 -12 -46 -37z"/>
<glyph horiz-adv-x="566" glyph-name="uni1EAF.alt1" d="M435 756l-175 -144h-30l160 144h45zM480 0h-30v81c-33 -50 -98 -93 -174 -93c-130 0 -216 100 -216 253c0 152 86 254 216 254c72 0 135 -38 174 -95v83h30v-483zM276 15c75 0 144 45 174 96v259c-30 51 -99 98 -174 98c-118 0 -183 -100 -183 -227s65 -226 183 -226z M456 614c-40 -54 -103 -88 -175 -88c-71 0 -135 34 -176 88l21 19c35 -49 90 -80 155 -80s120 31 155 80z"/>
<glyph horiz-adv-x="566" glyph-name="uni1EAB.alt1" d="M405 523h-28l-91 120l-88 -120h-28l98 144h36zM480 0h-30v81c-33 -50 -98 -93 -174 -93c-130 0 -216 100 -216 253c0 152 86 254 216 254c72 0 135 -38 174 -95v83h30v-483zM276 15c75 0 144 45 174 96v259c-30 51 -99 98 -174 98c-118 0 -183 -100 -183 -227 s65 -226 183 -226zM343 682c-77 0 -71 113 -128 113c-33 0 -59 -32 -59 -107h-26c0 72 31 134 88 134c77 0 71 -113 128 -113c33 0 59 32 59 107h26c0 -72 -31 -134 -88 -134z"/>
<glyph horiz-adv-x="566" glyph-name="uni1EB1.alt1" d="M480 0h-30v81c-33 -50 -98 -93 -174 -93c-130 0 -216 100 -216 253c0 152 86 254 216 254c72 0 135 -38 174 -95v83h30v-483zM276 15c75 0 144 45 174 96v259c-30 51 -99 98 -174 98c-118 0 -183 -100 -183 -227s65 -226 183 -226zM331 612h-30l-175 144h45zM456 619 c-40 -54 -103 -88 -175 -88c-71 0 -135 34 -176 88l21 19c35 -49 90 -80 155 -80s120 31 155 80z"/>
<glyph horiz-adv-x="566" glyph-name="uni1EB3.alt1" d="M480 0h-30v81c-33 -50 -98 -93 -174 -93c-130 0 -216 100 -216 253c0 152 86 254 216 254c72 0 135 -38 174 -95v83h30v-483zM276 15c75 0 144 45 174 96v259c-30 51 -99 98 -174 98c-118 0 -183 -100 -183 -227s65 -226 183 -226zM234 671l-21 6c8 26 29 53 67 53 c34 0 65 -20 65 -67c0 -22 -7 -37 -22 -56h-27c19 19 26 38 26 56c0 29 -16 45 -42 45c-23 0 -38 -12 -46 -37zM456 619c-40 -54 -103 -88 -175 -88c-71 0 -135 34 -176 88l21 19c35 -49 90 -80 155 -80s120 31 155 80z"/>
<glyph horiz-adv-x="566" glyph-name="uni1EB5.alt1" d="M456 619c-40 -54 -103 -88 -175 -88c-71 0 -135 34 -176 88l21 19c35 -49 90 -80 155 -80s120 31 155 80zM480 0h-30v81c-33 -50 -98 -93 -174 -93c-130 0 -216 100 -216 253c0 152 86 254 216 254c72 0 135 -38 174 -95v83h30v-483zM276 15c75 0 144 45 174 96v259 c-30 51 -99 98 -174 98c-118 0 -183 -100 -183 -227s65 -226 183 -226zM339 656c-77 0 -71 113 -128 113c-33 0 -59 -32 -59 -107h-26c0 72 31 134 88 134c77 0 71 -113 128 -113c33 0 59 32 59 107h26c0 -72 -31 -134 -88 -134z"/>
<glyph horiz-adv-x="566" glyph-name="uni1EB7.alt1" d="M480 0h-30v81c-33 -50 -98 -93 -174 -93c-130 0 -216 100 -216 253c0 152 86 254 216 254c72 0 135 -38 174 -95v83h30v-483zM276 15c75 0 144 45 174 96v259c-30 51 -99 98 -174 98c-118 0 -183 -100 -183 -227s65 -226 183 -226zM290 -173c-15 0 -29 13 -29 29 s14 29 29 29c16 0 29 -13 29 -29s-13 -29 -29 -29zM456 632c-40 -54 -103 -88 -175 -88c-71 0 -135 34 -176 88l21 19c35 -49 90 -80 155 -80s120 31 155 80z"/>
<glyph horiz-adv-x="957" glyph-name="ae.alt1" d="M276 15c75 0 144 45 174 96v259c-30 51 -99 98 -174 98c-118 0 -183 -100 -183 -227s65 -226 183 -226zM480 119v-119h-30v81c-33 -50 -98 -93 -174 -93c-130 0 -216 100 -216 253c0 152 86 254 216 254c72 0 135 -38 174 -95v83h30v-121c34 77 100 133 193 133 c148 0 224 -119 224 -253v-10h-417c3 -118 80 -217 203 -217c68 0 123 25 168 73l18 -19c-49 -51 -105 -81 -186 -81c-104 0 -170 57 -203 131zM865 259c0 93 -61 209 -193 209c-124 0 -189 -114 -192 -209h385z"/>
<glyph horiz-adv-x="957" glyph-name="aeacute.alt1" d="M276 15c75 0 144 45 174 96v259c-30 51 -99 98 -174 98c-118 0 -183 -100 -183 -227s65 -226 183 -226zM480 119v-119h-30v81c-33 -50 -98 -93 -174 -93c-130 0 -216 100 -216 253c0 152 86 254 216 254c72 0 135 -38 174 -95v83h30v-121c34 77 100 133 193 133 c148 0 224 -119 224 -253v-10h-417c3 -118 80 -217 203 -217c68 0 123 25 168 73l18 -19c-49 -51 -105 -81 -186 -81c-104 0 -170 57 -203 131zM865 259c0 93 -61 209 -193 209c-124 0 -189 -114 -192 -209h385zM620 700l-175 -144h-30l160 144h45z"/>
<glyph horiz-adv-x="566" unicode="ḃ" glyph-name="uni1E03" d="M116 111c30 -51 99 -96 174 -96c118 0 183 99 183 226s-65 227 -183 227c-75 0 -144 -47 -174 -98v-259zM116 0h-30v667h30v-267c39 57 102 95 174 95c130 0 216 -102 216 -254c0 -153 -86 -253 -216 -253c-76 0 -141 43 -174 93v-81zM290 733c-15 0 -29 13 -29 29 s14 29 29 29c16 0 29 -13 29 -29s-13 -29 -29 -29z"/>
<glyph horiz-adv-x="493" unicode="ć" glyph-name="cacute" d="M442 700l-175 -144h-30l160 144h45zM288 -12c-140 0 -228 115 -228 254s88 253 228 253c79 0 124 -30 165 -81l-22 -18c-39 53 -85 72 -141 72c-124 0 -197 -100 -197 -226s73 -227 197 -227c56 0 102 20 141 73l22 -19c-41 -51 -86 -81 -165 -81z"/>
<glyph horiz-adv-x="493" unicode="ç" glyph-name="ccedilla" d="M288 -185c-38 0 -74 13 -93 28l14 27c24 -21 52 -28 79 -28c37 0 69 18 69 49c0 26 -14 43 -44 43c-16 0 -33 -7 -43 -19l-22 13l22 61c-130 9 -210 120 -210 253c0 139 88 253 228 253c79 0 124 -30 165 -81l-22 -18c-39 53 -85 72 -141 72c-124 0 -197 -100 -197 -226 s73 -227 197 -227c56 0 102 20 141 73l22 -19c-39 -49 -82 -78 -154 -81l-16 -44c10 8 25 12 38 12c39 0 65 -25 65 -65c0 -45 -43 -76 -98 -76z"/>
<glyph horiz-adv-x="493" unicode="ĉ" glyph-name="ccircumflex" d="M407 556h-28l-91 120l-88 -120h-28l98 144h36zM288 -12c-140 0 -228 115 -228 254s88 253 228 253c79 0 124 -30 165 -81l-22 -18c-39 53 -85 72 -141 72c-124 0 -197 -100 -197 -226s73 -227 197 -227c56 0 102 20 141 73l22 -19c-41 -51 -86 -81 -165 -81z"/>
<glyph horiz-adv-x="493" unicode="ċ" glyph-name="cdotaccent" d="M288 -12c-140 0 -228 115 -228 254s88 253 228 253c79 0 124 -30 165 -81l-22 -18c-39 53 -85 72 -141 72c-124 0 -197 -100 -197 -226s73 -227 197 -227c56 0 102 20 141 73l22 -19c-41 -51 -86 -81 -165 -81zM291 566c-15 0 -29 13 -29 29s14 29 29 29 c16 0 29 -13 29 -29s-13 -29 -29 -29z"/>
<glyph horiz-adv-x="493" unicode="č" glyph-name="ccaron" d="M309 556h-36l-101 144h28l91 -120l88 120h28zM288 -12c-140 0 -228 115 -228 254s88 253 228 253c79 0 124 -30 165 -81l-22 -18c-39 53 -85 72 -141 72c-124 0 -197 -100 -197 -226s73 -227 197 -227c56 0 102 20 141 73l22 -19c-41 -51 -86 -81 -165 -81z"/>
<glyph horiz-adv-x="605" unicode="ď" glyph-name="dcaron" d="M608 627c0 -50 -30 -98 -62 -121l-22 18c32 24 53 62 53 92c0 0 -6 -1 -8 -1c-19 0 -32 15 -32 33c0 17 13 32 32 32c21 0 39 -19 39 -53zM480 0h-30v81c-33 -50 -98 -93 -174 -93c-130 0 -216 100 -216 253c0 152 86 254 216 254c72 0 135 -38 174 -95v267h30v-667z M276 15c75 0 144 45 174 96v259c-30 51 -99 98 -174 98c-118 0 -183 -100 -183 -227s65 -226 183 -226z"/>
<glyph horiz-adv-x="566" unicode="đ" glyph-name="dcroat" d="M480 0h-30v81c-33 -50 -98 -93 -174 -93c-130 0 -216 100 -216 253c0 152 86 254 216 254c72 0 135 -38 174 -95v141h-166v27h166v99h30v-99h77v-27h-77v-541zM276 15c75 0 144 45 174 96v259c-30 51 -99 98 -174 98c-118 0 -183 -100 -183 -227s65 -226 183 -226z"/>
<glyph horiz-adv-x="566" unicode="ḋ" glyph-name="uni1E0B" d="M480 0h-30v81c-33 -50 -98 -93 -174 -93c-130 0 -216 100 -216 253c0 152 86 254 216 254c72 0 135 -38 174 -95v267h30v-667zM276 15c75 0 144 45 174 96v259c-30 51 -99 98 -174 98c-118 0 -183 -100 -183 -227s65 -226 183 -226zM277 733c-15 0 -29 13 -29 29 s14 29 29 29c16 0 29 -13 29 -29s-13 -29 -29 -29z"/>
<glyph horiz-adv-x="571" unicode="é" glyph-name="eacute" d="M441 700l-175 -144h-30l160 144h45zM297 -12c-140 0 -237 107 -237 254c0 140 97 253 227 253c148 0 224 -119 224 -253v-10h-417c3 -118 80 -217 203 -217c68 0 123 25 168 73l18 -19c-49 -51 -105 -81 -186 -81zM479 259c0 93 -61 209 -193 209 c-124 0 -189 -114 -192 -209h385z"/>
<glyph horiz-adv-x="571" unicode="ĕ" glyph-name="ebreve" d="M297 -12c-140 0 -237 107 -237 254c0 140 97 253 227 253c148 0 224 -119 224 -253v-10h-417c3 -118 80 -217 203 -217c68 0 123 25 168 73l18 -19c-49 -51 -105 -81 -186 -81zM479 259c0 93 -61 209 -193 209c-124 0 -189 -114 -192 -209h385zM465 632 c-40 -54 -103 -88 -175 -88c-71 0 -135 34 -176 88l21 19c35 -49 90 -80 155 -80s120 31 155 80z"/>
<glyph horiz-adv-x="571" unicode="ê" glyph-name="ecircumflex" d="M407 556h-28l-91 120l-88 -120h-28l98 144h36zM297 -12c-140 0 -237 107 -237 254c0 140 97 253 227 253c148 0 224 -119 224 -253v-10h-417c3 -118 80 -217 203 -217c68 0 123 25 168 73l18 -19c-49 -51 -105 -81 -186 -81zM479 259c0 93 -61 209 -193 209 c-124 0 -189 -114 -192 -209h385z"/>
<glyph horiz-adv-x="571" unicode="ë" glyph-name="edieresis" d="M417 598c0 -15 -13 -28 -28 -28s-28 13 -28 28s13 28 28 28s28 -13 28 -28zM215 598c0 -15 -13 -28 -28 -28s-28 13 -28 28s13 28 28 28s28 -13 28 -28zM297 -12c-140 0 -237 107 -237 254c0 140 97 253 227 253c148 0 224 -119 224 -253v-10h-417 c3 -118 80 -217 203 -217c68 0 123 25 168 73l18 -19c-49 -51 -105 -81 -186 -81zM479 259c0 93 -61 209 -193 209c-124 0 -189 -114 -192 -209h385z"/>
<glyph horiz-adv-x="571" unicode="ė" glyph-name="edotaccent" d="M297 -12c-140 0 -237 107 -237 254c0 140 97 253 227 253c148 0 224 -119 224 -253v-10h-417c3 -118 80 -217 203 -217c68 0 123 25 168 73l18 -19c-49 -51 -105 -81 -186 -81zM479 259c0 93 -61 209 -193 209c-124 0 -189 -114 -192 -209h385zM288 566 c-15 0 -29 13 -29 29s14 29 29 29c16 0 29 -13 29 -29s-13 -29 -29 -29z"/>
<glyph horiz-adv-x="571" unicode="è" glyph-name="egrave" d="M297 -12c-140 0 -237 107 -237 254c0 140 97 253 227 253c148 0 224 -119 224 -253v-10h-417c3 -118 80 -217 203 -217c68 0 123 25 168 73l18 -19c-49 -51 -105 -81 -186 -81zM479 259c0 93 -61 209 -193 209c-124 0 -189 -114 -192 -209h385zM338 556h-30l-175 144h45z "/>
<glyph horiz-adv-x="571" unicode="ē" glyph-name="emacron" d="M297 -12c-140 0 -237 107 -237 254c0 140 97 253 227 253c148 0 224 -119 224 -253v-10h-417c3 -118 80 -217 203 -217c68 0 123 25 168 73l18 -19c-49 -51 -105 -81 -186 -81zM479 259c0 93 -61 209 -193 209c-124 0 -189 -114 -192 -209h385zM467 581h-363v27h363v-27z "/>
<glyph horiz-adv-x="571" unicode="ę" glyph-name="eogonek" d="M297 -12c-140 0 -237 107 -237 254c0 140 97 253 227 253c148 0 224 -119 224 -253v-10h-417c3 -118 80 -217 203 -217c68 0 123 25 168 73l18 -19c-31 -32 -65 -56 -105 -69c-48 -23 -82 -55 -82 -102c0 -37 19 -57 52 -57c31 0 48 16 58 47l25 -11 c-11 -31 -35 -63 -83 -63c-43 0 -81 25 -81 84c0 33 18 66 45 91c-5 0 -10 -1 -15 -1zM479 259c0 93 -61 209 -193 209c-124 0 -189 -114 -192 -209h385z"/>
<glyph horiz-adv-x="571" unicode="ě" glyph-name="ecaron" d="M308 556h-36l-101 144h28l91 -120l88 120h28zM297 -12c-140 0 -237 107 -237 254c0 140 97 253 227 253c148 0 224 -119 224 -253v-10h-417c3 -118 80 -217 203 -217c68 0 123 25 168 73l18 -19c-49 -51 -105 -81 -186 -81zM479 259c0 93 -61 209 -193 209 c-124 0 -189 -114 -192 -209h385z"/>
<glyph horiz-adv-x="571" unicode="ẹ" glyph-name="uni1EB9" d="M297 -12c-140 0 -237 107 -237 254c0 140 97 253 227 253c148 0 224 -119 224 -253v-10h-417c3 -118 80 -217 203 -217c68 0 123 25 168 73l18 -19c-49 -51 -105 -81 -186 -81zM479 259c0 93 -61 209 -193 209c-124 0 -189 -114 -192 -209h385zM288 -173 c-15 0 -29 13 -29 29s14 29 29 29c16 0 29 -13 29 -29s-13 -29 -29 -29z"/>
<glyph horiz-adv-x="571" unicode="ẻ" glyph-name="uni1EBB" d="M297 -12c-140 0 -237 107 -237 254c0 140 97 253 227 253c148 0 224 -119 224 -253v-10h-417c3 -118 80 -217 203 -217c68 0 123 25 168 73l18 -19c-49 -51 -105 -81 -186 -81zM479 259c0 93 -61 209 -193 209c-124 0 -189 -114 -192 -209h385zM240 591l-21 6 c8 26 29 53 67 53c34 0 65 -20 65 -67c0 -22 -7 -37 -22 -56h-27c19 19 26 38 26 56c0 29 -16 45 -42 45c-23 0 -38 -12 -46 -37z"/>
<glyph horiz-adv-x="571" unicode="ẽ" glyph-name="uni1EBD" d="M297 -12c-140 0 -237 107 -237 254c0 140 97 253 227 253c148 0 224 -119 224 -253v-10h-417c3 -118 80 -217 203 -217c68 0 123 25 168 73l18 -19c-49 -51 -105 -81 -186 -81zM479 259c0 93 -61 209 -193 209c-124 0 -189 -114 -192 -209h385zM348 554 c-77 0 -71 113 -128 113c-33 0 -59 -32 -59 -107h-26c0 72 31 134 88 134c77 0 71 -113 128 -113c33 0 59 32 59 107h26c0 -72 -31 -134 -88 -134z"/>
<glyph horiz-adv-x="571" unicode="ế" glyph-name="uni1EBF" d="M405 556h-28l-91 120l-88 -120h-28l98 144h36zM571 770l-175 -144h-30l160 144h45zM297 -12c-140 0 -237 107 -237 254c0 140 97 253 227 253c148 0 224 -119 224 -253v-10h-417c3 -118 80 -217 203 -217c68 0 123 25 168 73l18 -19c-49 -51 -105 -81 -186 -81zM479 259 c0 93 -61 209 -193 209c-124 0 -189 -114 -192 -209h385z"/>
<glyph horiz-adv-x="571" unicode="ề" glyph-name="uni1EC1" d="M403 556h-28l-91 120l-88 -120h-28l98 144h36zM297 -12c-140 0 -237 107 -237 254c0 140 97 253 227 253c148 0 224 -119 224 -253v-10h-417c3 -118 80 -217 203 -217c68 0 123 25 168 73l18 -19c-49 -51 -105 -81 -186 -81zM479 259c0 93 -61 209 -193 209 c-124 0 -189 -114 -192 -209h385zM204 626h-30l-175 144h45z"/>
<glyph horiz-adv-x="571" unicode="ể" glyph-name="uni1EC3" d="M402 556h-28l-91 120l-88 -120h-28l98 144h36zM297 -12c-140 0 -237 107 -237 254c0 140 97 253 227 253c148 0 224 -119 224 -253v-10h-417c3 -118 80 -217 203 -217c68 0 123 25 168 73l18 -19c-49 -51 -105 -81 -186 -81zM479 259c0 93 -61 209 -193 209 c-124 0 -189 -114 -192 -209h385zM316 731l-21 6c8 26 29 53 67 53c34 0 65 -20 65 -67c0 -22 -7 -37 -22 -56h-27c19 19 26 38 26 56c0 29 -16 45 -42 45c-23 0 -38 -12 -46 -37z"/>
<glyph horiz-adv-x="571" unicode="ễ" glyph-name="uni1EC5" d="M400 523h-28l-91 120l-88 -120h-28l98 144h36zM297 -12c-140 0 -237 107 -237 254c0 140 97 253 227 253c148 0 224 -119 224 -253v-10h-417c3 -118 80 -217 203 -217c68 0 123 25 168 73l18 -19c-49 -51 -105 -81 -186 -81zM479 259c0 93 -61 209 -193 209 c-124 0 -189 -114 -192 -209h385zM338 682c-77 0 -71 113 -128 113c-33 0 -59 -32 -59 -107h-26c0 72 31 134 88 134c77 0 71 -113 128 -113c33 0 59 32 59 107h26c0 -72 -31 -134 -88 -134z"/>
<glyph horiz-adv-x="571" unicode="ệ" glyph-name="uni1EC7" d="M406 556h-28l-91 120l-88 -120h-28l98 144h36zM297 -12c-140 0 -237 107 -237 254c0 140 97 253 227 253c148 0 224 -119 224 -253v-10h-417c3 -118 80 -217 203 -217c68 0 123 25 168 73l18 -19c-49 -51 -105 -81 -186 -81zM479 259c0 93 -61 209 -193 209 c-124 0 -189 -114 -192 -209h385zM288 -173c-15 0 -29 13 -29 29s14 29 29 29c16 0 29 -13 29 -29s-13 -29 -29 -29z"/>
<glyph horiz-adv-x="489" glyph-name="fl.alt1" d="M130 0h-30v456h-80v27h80v51c0 90 45 143 121 143c21 0 40 -3 57 -13l-13 -26c-12 7 -25 12 -44 12c-61 0 -91 -43 -91 -116v-51h98v-27h-98v-456zM414 -12c-56 0 -82 37 -82 97v582h30v-582c0 -41 16 -70 52 -70c24 0 45 12 57 26l18 -23c-19 -18 -39 -30 -75 -30z"/>
<glyph horiz-adv-x="735" glyph-name="f_f_l.alt1" d="M376 0h-30v456h-80v27h80v51c0 90 45 143 121 143c21 0 40 -3 57 -13l-13 -26c-12 7 -25 12 -44 12c-61 0 -91 -43 -91 -116v-51h98v-27h-98v-456zM660 -12c-56 0 -82 37 -82 97v582h30v-582c0 -41 16 -70 52 -70c24 0 45 12 57 26l18 -23c-19 -18 -39 -30 -75 -30z M130 0h-30v456h-80v27h80v51c0 90 45 143 121 143c31 0 51 -5 82 -30l-18 -24c-17 16 -38 27 -64 27c-61 0 -91 -43 -91 -116v-51h98v-27h-98v-456z"/>
<glyph horiz-adv-x="246" unicode="ḟ" glyph-name="uni1E1F" d="M222 733c-15 0 -29 13 -29 29s14 29 29 29c16 0 29 -13 29 -29s-13 -29 -29 -29zM130 0h-30v456h-80v27h80v51c0 90 45 143 121 143c31 0 51 -5 82 -30l-18 -24c-17 16 -38 27 -64 27c-61 0 -91 -43 -91 -116v-51h98v-27h-98v-456z"/>
<glyph horiz-adv-x="566" unicode="ĝ" glyph-name="gcircumflex" d="M402 556h-28l-91 120l-88 -120h-28l98 144h36zM276 -196c-81 0 -129 14 -185 73l22 25c42 -52 87 -71 163 -71c96 0 174 49 174 166v84c-33 -50 -98 -95 -174 -95c-130 0 -216 101 -216 254c0 152 86 255 216 255c72 0 135 -38 174 -95v83h30v-486 c0 -138 -87 -193 -204 -193zM276 13c75 0 144 47 174 98v259c-30 51 -99 98 -174 98c-118 0 -183 -101 -183 -228s65 -227 183 -227z"/>
<glyph horiz-adv-x="566" unicode="ğ" glyph-name="gbreve" d="M276 -196c-81 0 -129 14 -185 73l22 25c42 -52 87 -71 163 -71c96 0 174 49 174 166v84c-33 -50 -98 -95 -174 -95c-130 0 -216 101 -216 254c0 152 86 255 216 255c72 0 135 -38 174 -95v83h30v-486c0 -138 -87 -193 -204 -193zM276 13c75 0 144 47 174 98v259 c-30 51 -99 98 -174 98c-118 0 -183 -101 -183 -228s65 -227 183 -227zM458 632c-40 -54 -103 -88 -175 -88c-71 0 -135 34 -176 88l21 19c35 -49 90 -80 155 -80s120 31 155 80z"/>
<glyph horiz-adv-x="566" unicode="ġ" glyph-name="gdotaccent" d="M276 -196c-81 0 -129 14 -185 73l22 25c42 -52 87 -71 163 -71c96 0 174 49 174 166v84c-33 -50 -98 -95 -174 -95c-130 0 -216 101 -216 254c0 152 86 255 216 255c72 0 135 -38 174 -95v83h30v-486c0 -138 -87 -193 -204 -193zM276 13c75 0 144 47 174 98v259 c-30 51 -99 98 -174 98c-118 0 -183 -101 -183 -228s65 -227 183 -227zM281 566c-15 0 -29 13 -29 29s14 29 29 29c16 0 29 -13 29 -29s-13 -29 -29 -29z"/>
<glyph horiz-adv-x="566" unicode="ģ" glyph-name="gcommaaccent" d="M241 610c0 57 33 110 60 129l24 -19c-32 -24 -53 -62 -53 -92c0 0 2 1 4 1c16 0 33 -15 33 -33c0 -16 -14 -32 -33 -32c-21 0 -35 20 -35 46zM276 -196c-81 0 -129 14 -185 73l22 25c42 -52 87 -71 163 -71c96 0 174 49 174 166v84c-33 -50 -98 -95 -174 -95 c-130 0 -216 101 -216 254c0 152 86 255 216 255c72 0 135 -38 174 -95v83h30v-486c0 -138 -87 -193 -204 -193zM276 13c75 0 144 47 174 98v259c-30 51 -99 98 -174 98c-118 0 -183 -101 -183 -228s65 -227 183 -227z"/>
<glyph unicode="ħ" glyph-name="hbar" d="M282 541h-166v-134c36 44 108 88 175 88c96 0 151 -42 151 -156v-339h-30v339c0 101 -50 129 -125 129c-66 0 -137 -43 -171 -91v-377h-30v541h-76v27h76v99h30v-99h166v-27z"/>
<glyph unicode="ĥ" glyph-name="hcircumflex" d="M385 723h-28l-91 120l-88 -120h-28l98 144h36zM442 0h-30v339c0 101 -50 129 -125 129c-66 0 -137 -43 -171 -91v-377h-30v667h30v-260c36 44 108 88 175 88c96 0 151 -42 151 -156v-339z"/>
<glyph unicode="ḣ" glyph-name="uni1E23" d="M442 0h-30v339c0 101 -50 129 -125 129c-66 0 -137 -43 -171 -91v-377h-30v667h30v-260c36 44 108 88 175 88c96 0 151 -42 151 -156v-339zM264 733c-15 0 -29 13 -29 29s14 29 29 29c16 0 29 -13 29 -29s-13 -29 -29 -29z"/>
<glyph horiz-adv-x="202" unicode="ı" glyph-name="dotlessi" d="M116 0h-30v483h30v-483z"/>
<glyph horiz-adv-x="202" unicode="í" glyph-name="iacute" d="M255 700l-175 -144h-30l160 144h45zM116 0h-30v483h30v-483z"/>
<glyph horiz-adv-x="202" unicode="ĭ" glyph-name="ibreve" d="M116 0h-30v483h30v-483zM277 632c-40 -54 -103 -88 -175 -88c-71 0 -135 34 -176 88l21 19c35 -49 90 -80 155 -80s120 31 155 80z"/>
<glyph horiz-adv-x="202" unicode="î" glyph-name="icircumflex" d="M219 556h-28l-91 120l-88 -120h-28l98 144h36zM116 0h-30v483h30v-483z"/>
<glyph horiz-adv-x="202" unicode="ï" glyph-name="idieresis" d="M230 598c0 -15 -13 -28 -28 -28s-28 13 -28 28s13 28 28 28s28 -13 28 -28zM28 598c0 -15 -13 -28 -28 -28s-28 13 -28 28s13 28 28 28s28 -13 28 -28zM116 0h-30v483h30v-483z"/>
<glyph horiz-adv-x="202" unicode="ì" glyph-name="igrave" d="M116 0h-30v483h30v-483zM152 556h-30l-175 144h45z"/>
<glyph horiz-adv-x="202" unicode="ī" glyph-name="imacron" d="M116 0h-30v483h30v-483zM283 581h-363v27h363v-27z"/>
<glyph horiz-adv-x="202" unicode="į" glyph-name="iogonek" d="M144 -112l25 -11c-11 -31 -35 -63 -83 -63c-43 0 -81 25 -81 84c0 46 34 90 81 115v470h30v-483c-48 -23 -82 -55 -82 -102c0 -37 19 -57 52 -57c31 0 48 16 58 47zM101 566c-15 0 -29 13 -29 29s14 29 29 29c16 0 29 -13 29 -29s-13 -29 -29 -29z"/>
<glyph horiz-adv-x="202" unicode="ĩ" glyph-name="itilde" d="M116 0h-30v483h30v-483zM163 554c-77 0 -71 113 -128 113c-33 0 -59 -32 -59 -107h-26c0 72 31 134 88 134c77 0 71 -113 128 -113c33 0 59 32 59 107h26c0 -72 -31 -134 -88 -134z"/>
<glyph horiz-adv-x="202" unicode="ỉ" glyph-name="uni1EC9" d="M116 0h-30v483h30v-483zM56 591l-21 6c8 26 29 53 67 53c34 0 65 -20 65 -67c0 -22 -7 -37 -22 -56h-27c19 19 26 38 26 56c0 29 -16 45 -42 45c-23 0 -38 -12 -46 -37z"/>
<glyph horiz-adv-x="202" unicode="ị" glyph-name="uni1ECB" d="M101 566c-15 0 -29 13 -29 29s14 29 29 29c16 0 29 -13 29 -29s-13 -29 -29 -29zM116 0h-30v483h30v-483zM102 -173c-15 0 -29 13 -29 29s14 29 29 29c16 0 29 -13 29 -29s-13 -29 -29 -29z"/>
<glyph horiz-adv-x="404" unicode="ĳ" glyph-name="ij" d="M101 566c-15 0 -29 13 -29 29s14 29 29 29c16 0 29 -13 29 -29s-13 -29 -29 -29zM116 0h-30v483h30v-483zM303 566c-15 0 -29 13 -29 29s14 29 29 29c16 0 29 -13 29 -29s-13 -29 -29 -29zM199 -196c-38 0 -65 13 -92 38l19 25c16 -18 42 -36 73 -36c50 0 89 27 89 93 v559h30v-559c0 -83 -46 -120 -119 -120z"/>
<glyph horiz-adv-x="202" unicode="ȷ" glyph-name="uni0237" d="M-3 -196c-38 0 -65 13 -92 38l19 25c16 -18 42 -36 73 -36c50 0 89 27 89 93v559h30v-559c0 -83 -46 -120 -119 -120z"/>
<glyph horiz-adv-x="202" unicode="ĵ" glyph-name="jcircumflex" d="M220 556h-28l-91 120l-88 -120h-28l98 144h36zM-3 -196c-38 0 -65 13 -92 38l19 25c16 -18 42 -36 73 -36c50 0 89 27 89 93v559h30v-559c0 -83 -46 -120 -119 -120z"/>
<glyph horiz-adv-x="496" unicode="ķ" glyph-name="kcommaaccent" d="M293 -137c0 -50 -30 -98 -62 -121l-22 18c32 24 53 62 53 92c0 0 -6 -1 -8 -1c-19 0 -32 15 -32 33c0 17 13 32 32 32c21 0 39 -19 39 -53zM471 0h-43l-212 243l-100 -92v-151h-30v667h30v-478l315 294h43l-235 -218z"/>
<glyph horiz-adv-x="496" unicode="ĸ" glyph-name="kgreenlandic" d="M471 0h-43l-212 243l-100 -92v-151h-30v483h30v-294l315 294h43l-235 -218z"/>
<glyph horiz-adv-x="202" unicode="ĺ" glyph-name="lacute" d="M255 867l-175 -144h-30l160 144h45zM116 0h-30v667h30v-667z"/>
<glyph horiz-adv-x="202" unicode="ļ" glyph-name="lcommaaccent" d="M146 -137c0 -50 -30 -98 -62 -121l-22 18c32 24 53 62 53 92c0 0 -6 -1 -8 -1c-19 0 -32 15 -32 33c0 17 13 32 32 32c21 0 39 -19 39 -53zM116 0h-30v667h30v-667z"/>
<glyph horiz-adv-x="237" unicode="ľ" glyph-name="lcaron" d="M259 626c0 -50 -30 -98 -62 -121l-22 18c32 24 53 62 53 92c0 0 -6 -1 -8 -1c-19 0 -32 15 -32 33c0 17 13 32 32 32c21 0 39 -19 39 -53zM116 0h-30v667h30v-667z"/>
<glyph horiz-adv-x="240" unicode="ŀ" glyph-name="ldot" d="M116 0h-30v667h30v-667zM254 245c0 -18 -15 -33 -33 -33s-33 15 -33 33c0 17 15 32 33 32s33 -15 33 -32z"/>
<glyph horiz-adv-x="268" unicode="ł" glyph-name="lslash" d="M12 248v32l107 61v326h30v-309l107 62v-32l-107 -62v-326h-30v309z"/>
<glyph horiz-adv-x="243" glyph-name="lacute.alt1" d="M255 867l-175 -144h-30l160 144h45zM168 -12c-56 0 -82 37 -82 97v582h30v-582c0 -41 16 -70 52 -70c24 0 45 12 57 26l18 -23c-19 -18 -39 -30 -75 -30z"/>
<glyph horiz-adv-x="243" glyph-name="lcommaaccent.alt1" d="M166 -137c0 -50 -30 -98 -62 -121l-22 18c32 24 53 62 53 92c0 0 -6 -1 -8 -1c-19 0 -32 15 -32 33c0 17 13 32 32 32c21 0 39 -19 39 -53zM168 -12c-56 0 -82 37 -82 97v582h30v-582c0 -41 16 -70 52 -70c24 0 45 12 57 26l18 -23c-19 -18 -39 -30 -75 -30z"/>
<glyph horiz-adv-x="243" glyph-name="lcaron.alt1" d="M259 626c0 -50 -30 -98 -62 -121l-22 18c32 24 53 62 53 92c0 0 -6 -1 -8 -1c-19 0 -32 15 -32 33c0 17 13 32 32 32c21 0 39 -19 39 -53zM168 -12c-56 0 -82 37 -82 97v582h30v-582c0 -41 16 -70 52 -70c24 0 45 12 57 26l18 -23c-19 -18 -39 -30 -75 -30z"/>
<glyph horiz-adv-x="240" glyph-name="ldot.alt1" d="M168 -12c-56 0 -82 37 -82 97v582h30v-582c0 -41 16 -70 52 -70c24 0 45 12 57 26l18 -23c-19 -18 -39 -30 -75 -30zM254 245c0 -18 -15 -33 -33 -33s-33 15 -33 33c0 17 15 32 33 32s33 -15 33 -32z"/>
<glyph horiz-adv-x="276" glyph-name="lslash.alt1" d="M12 248v32l107 61v326h30v-309l107 62v-32l-107 -62v-241c0 -41 16 -70 52 -70c24 0 45 12 57 26l18 -23c-19 -18 -39 -30 -75 -30c-56 0 -82 37 -82 97v224z"/>
<glyph unicode="ń" glyph-name="nacute" d="M418 700l-175 -144h-30l160 144h45zM442 0h-30v337c0 101 -50 131 -125 131c-66 0 -137 -43 -171 -91v-377h-30v483h30v-76c36 44 108 88 175 88c96 0 151 -44 151 -158v-337z"/>
<glyph unicode="ŉ" glyph-name="napostrophe" d="M149 672c0 -50 -30 -98 -62 -121l-22 18c32 24 53 62 53 92c0 0 -6 -1 -8 -1c-19 0 -32 15 -32 33c0 17 13 32 32 32c21 0 39 -19 39 -53zM442 0h-30v337c0 101 -50 131 -125 131c-66 0 -137 -43 -171 -91v-377h-30v483h30v-76c36 44 108 88 175 88 c96 0 151 -44 151 -158v-337z"/>
<glyph unicode="ň" glyph-name="ncaron" d="M283 556h-36l-101 144h28l91 -120l88 120h28zM442 0h-30v337c0 101 -50 131 -125 131c-66 0 -137 -43 -171 -91v-377h-30v483h30v-76c36 44 108 88 175 88c96 0 151 -44 151 -158v-337z"/>
<glyph unicode="ņ" glyph-name="ncommaaccent" d="M309 -137c0 -50 -30 -98 -62 -121l-22 18c32 24 53 62 53 92c0 0 -6 -1 -8 -1c-19 0 -32 15 -32 33c0 17 13 32 32 32c21 0 39 -19 39 -53zM442 0h-30v337c0 101 -50 131 -125 131c-66 0 -137 -43 -171 -91v-377h-30v483h30v-76c36 44 108 88 175 88 c96 0 151 -44 151 -158v-337z"/>
<glyph unicode="ñ" glyph-name="ntilde" d="M442 0h-30v337c0 101 -50 131 -125 131c-66 0 -137 -43 -171 -91v-377h-30v483h30v-76c36 44 108 88 175 88c96 0 151 -44 151 -158v-337zM327 554c-77 0 -71 113 -128 113c-33 0 -59 -32 -59 -107h-26c0 72 31 134 88 134c77 0 71 -113 128 -113c33 0 59 32 59 107h26 c0 -72 -31 -134 -88 -134z"/>
<glyph unicode="ŋ" glyph-name="eng" d="M442 337v-413c0 -83 -46 -120 -119 -120c-38 0 -65 13 -92 38l19 25c16 -18 42 -36 73 -36c50 0 89 27 89 93v413c0 101 -50 131 -125 131c-66 0 -137 -43 -171 -91v-377h-30v483h30v-76c36 44 108 88 175 88c96 0 151 -44 151 -158z"/>
<glyph horiz-adv-x="570" unicode="ó" glyph-name="oacute" d="M439 700l-175 -144h-30l160 144h45zM285 -12c-136 0 -225 112 -225 254s89 253 225 253c137 0 225 -111 225 -253s-88 -254 -225 -254zM285 15c124 0 192 109 192 227c0 117 -68 226 -192 226c-123 0 -192 -109 -192 -226c0 -118 69 -227 192 -227z"/>
<glyph horiz-adv-x="570" unicode="ŏ" glyph-name="obreve" d="M285 -12c-136 0 -225 112 -225 254s89 253 225 253c137 0 225 -111 225 -253s-88 -254 -225 -254zM285 15c124 0 192 109 192 227c0 117 -68 226 -192 226c-123 0 -192 -109 -192 -226c0 -118 69 -227 192 -227zM462 632c-40 -54 -103 -88 -175 -88 c-71 0 -135 34 -176 88l21 19c35 -49 90 -80 155 -80s120 31 155 80z"/>
<glyph horiz-adv-x="570" unicode="ô" glyph-name="ocircumflex" d="M404 556h-28l-91 120l-88 -120h-28l98 144h36zM285 -12c-136 0 -225 112 -225 254s89 253 225 253c137 0 225 -111 225 -253s-88 -254 -225 -254zM285 15c124 0 192 109 192 227c0 117 -68 226 -192 226c-123 0 -192 -109 -192 -226c0 -118 69 -227 192 -227z"/>
<glyph horiz-adv-x="570" unicode="ö" glyph-name="odieresis" d="M414 598c0 -15 -13 -28 -28 -28s-28 13 -28 28s13 28 28 28s28 -13 28 -28zM212 598c0 -15 -13 -28 -28 -28s-28 13 -28 28s13 28 28 28s28 -13 28 -28zM285 -12c-136 0 -225 112 -225 254s89 253 225 253c137 0 225 -111 225 -253s-88 -254 -225 -254zM285 15 c124 0 192 109 192 227c0 117 -68 226 -192 226c-123 0 -192 -109 -192 -226c0 -118 69 -227 192 -227z"/>
<glyph horiz-adv-x="570" unicode="ò" glyph-name="ograve" d="M285 -12c-136 0 -225 112 -225 254s89 253 225 253c137 0 225 -111 225 -253s-88 -254 -225 -254zM285 15c124 0 192 109 192 227c0 117 -68 226 -192 226c-123 0 -192 -109 -192 -226c0 -118 69 -227 192 -227zM336 556h-30l-175 144h45z"/>
<glyph horiz-adv-x="570" unicode="ő" glyph-name="ohungarumlaut" d="M327 700l-115 -144h-26l100 144h41zM463 700l-115 -144h-26l100 144h41zM285 -12c-136 0 -225 112 -225 254s89 253 225 253c137 0 225 -111 225 -253s-88 -254 -225 -254zM285 15c124 0 192 109 192 227c0 117 -68 226 -192 226c-123 0 -192 -109 -192 -226 c0 -118 69 -227 192 -227z"/>
<glyph horiz-adv-x="570" unicode="ō" glyph-name="omacron" d="M466 581h-363v27h363v-27zM285 -12c-136 0 -225 112 -225 254s89 253 225 253c137 0 225 -111 225 -253s-88 -254 -225 -254zM285 15c124 0 192 109 192 227c0 117 -68 226 -192 226c-123 0 -192 -109 -192 -226c0 -118 69 -227 192 -227z"/>
<glyph horiz-adv-x="570" unicode="ø" glyph-name="oslash" d="M118 0h-34l42 56c-42 46 -66 112 -66 186c0 142 89 253 225 253c52 0 97 -16 133 -44l24 32h33l-37 -50c46 -46 72 -114 72 -191c0 -142 -88 -254 -225 -254c-55 0 -102 18 -139 49zM285 15c124 0 192 109 192 227c0 63 -20 124 -57 166l-257 -347c31 -29 72 -46 122 -46 zM93 242c0 -60 18 -118 52 -160l255 345c-30 25 -68 41 -115 41c-123 0 -192 -109 -192 -226z"/>
<glyph horiz-adv-x="570" unicode="ǿ" glyph-name="oslashacute" d="M439 700l-175 -144h-30l160 144h45zM118 0h-34l42 56c-42 46 -66 112 -66 186c0 142 89 253 225 253c52 0 97 -16 133 -44l24 32h33l-37 -50c46 -46 72 -114 72 -191c0 -142 -88 -254 -225 -254c-55 0 -102 18 -139 49zM285 15c124 0 192 109 192 227 c0 63 -20 124 -57 166l-257 -347c31 -29 72 -46 122 -46zM93 242c0 -60 18 -118 52 -160l255 345c-30 25 -68 41 -115 41c-123 0 -192 -109 -192 -226z"/>
<glyph horiz-adv-x="570" unicode="õ" glyph-name="otilde" d="M285 -12c-136 0 -225 112 -225 254s89 253 225 253c137 0 225 -111 225 -253s-88 -254 -225 -254zM285 15c124 0 192 109 192 227c0 117 -68 226 -192 226c-123 0 -192 -109 -192 -226c0 -118 69 -227 192 -227zM348 554c-77 0 -71 113 -128 113c-33 0 -59 -32 -59 -107 h-26c0 72 31 134 88 134c77 0 71 -113 128 -113c33 0 59 32 59 107h26c0 -72 -31 -134 -88 -134z"/>
<glyph horiz-adv-x="570" unicode="ọ" glyph-name="uni1ECD" d="M285 -12c-136 0 -225 112 -225 254s89 253 225 253c137 0 225 -111 225 -253s-88 -254 -225 -254zM285 15c124 0 192 109 192 227c0 117 -68 226 -192 226c-123 0 -192 -109 -192 -226c0 -118 69 -227 192 -227zM285 -173c-15 0 -29 13 -29 29s14 29 29 29 c16 0 29 -13 29 -29s-13 -29 -29 -29z"/>
<glyph horiz-adv-x="570" unicode="ỏ" glyph-name="uni1ECF" d="M285 -12c-136 0 -225 112 -225 254s89 253 225 253c137 0 225 -111 225 -253s-88 -254 -225 -254zM285 15c124 0 192 109 192 227c0 117 -68 226 -192 226c-123 0 -192 -109 -192 -226c0 -118 69 -227 192 -227zM240 591l-21 6c8 26 29 53 67 53c34 0 65 -20 65 -67 c0 -22 -7 -37 -22 -56h-27c19 19 26 38 26 56c0 29 -16 45 -42 45c-23 0 -38 -12 -46 -37z"/>
<glyph horiz-adv-x="570" unicode="ố" glyph-name="uni1ED1" d="M405 556h-28l-91 120l-88 -120h-28l98 144h36zM571 770l-175 -144h-30l160 144h45zM285 -12c-136 0 -225 112 -225 254s89 253 225 253c137 0 225 -111 225 -253s-88 -254 -225 -254zM285 15c124 0 192 109 192 227c0 117 -68 226 -192 226c-123 0 -192 -109 -192 -226 c0 -118 69 -227 192 -227z"/>
<glyph horiz-adv-x="570" unicode="ồ" glyph-name="uni1ED3" d="M403 556h-28l-91 120l-88 -120h-28l98 144h36zM285 -12c-136 0 -225 112 -225 254s89 253 225 253c137 0 225 -111 225 -253s-88 -254 -225 -254zM285 15c124 0 192 109 192 227c0 117 -68 226 -192 226c-123 0 -192 -109 -192 -226c0 -118 69 -227 192 -227zM204 626 h-30l-175 144h45z"/>
<glyph horiz-adv-x="570" unicode="ổ" glyph-name="uni1ED5" d="M403 556h-28l-91 120l-88 -120h-28l98 144h36zM285 -12c-136 0 -225 112 -225 254s89 253 225 253c137 0 225 -111 225 -253s-88 -254 -225 -254zM285 15c124 0 192 109 192 227c0 117 -68 226 -192 226c-123 0 -192 -109 -192 -226c0 -118 69 -227 192 -227zM317 731 l-21 6c8 26 29 53 67 53c34 0 65 -20 65 -67c0 -22 -7 -37 -22 -56h-27c19 19 26 38 26 56c0 29 -16 45 -42 45c-23 0 -38 -12 -46 -37z"/>
<glyph horiz-adv-x="570" unicode="ỗ" glyph-name="uni1ED7" d="M400 523h-28l-91 120l-88 -120h-28l98 144h36zM285 -12c-136 0 -225 112 -225 254s89 253 225 253c137 0 225 -111 225 -253s-88 -254 -225 -254zM285 15c124 0 192 109 192 227c0 117 -68 226 -192 226c-123 0 -192 -109 -192 -226c0 -118 69 -227 192 -227zM338 682 c-77 0 -71 113 -128 113c-33 0 -59 -32 -59 -107h-26c0 72 31 134 88 134c77 0 71 -113 128 -113c33 0 59 32 59 107h26c0 -72 -31 -134 -88 -134z"/>
<glyph horiz-adv-x="570" unicode="ộ" glyph-name="uni1ED9" d="M402 556h-28l-91 120l-88 -120h-28l98 144h36zM285 -12c-136 0 -225 112 -225 254s89 253 225 253c137 0 225 -111 225 -253s-88 -254 -225 -254zM285 15c124 0 192 109 192 227c0 117 -68 226 -192 226c-123 0 -192 -109 -192 -226c0 -118 69 -227 192 -227zM285 -173 c-15 0 -29 13 -29 29s14 29 29 29c16 0 29 -13 29 -29s-13 -29 -29 -29z"/>
<glyph horiz-adv-x="570" unicode="ơ" glyph-name="ohorn" d="M506 529c0 -45 -24 -88 -52 -113c36 -45 56 -106 56 -174c0 -142 -88 -254 -225 -254c-136 0 -225 112 -225 254s89 253 225 253c60 0 111 -22 149 -59c25 24 41 56 41 82c0 0 -6 -1 -8 -1c-19 0 -32 15 -32 33c0 17 13 32 32 32c21 0 39 -19 39 -53zM285 15 c124 0 192 109 192 227c0 117 -68 226 -192 226c-123 0 -192 -109 -192 -226c0 -118 69 -227 192 -227z"/>
<glyph horiz-adv-x="570" unicode="ớ" glyph-name="uni1EDB" d="M439 700l-175 -144h-30l160 144h45zM506 529c0 -45 -24 -88 -52 -113c36 -45 56 -106 56 -174c0 -142 -88 -254 -225 -254c-136 0 -225 112 -225 254s89 253 225 253c60 0 111 -22 149 -59c25 24 41 56 41 82c0 0 -6 -1 -8 -1c-19 0 -32 15 -32 33c0 17 13 32 32 32 c21 0 39 -19 39 -53zM285 15c124 0 192 109 192 227c0 117 -68 226 -192 226c-123 0 -192 -109 -192 -226c0 -118 69 -227 192 -227z"/>
<glyph horiz-adv-x="570" unicode="ờ" glyph-name="uni1EDD" d="M506 529c0 -45 -24 -88 -52 -113c36 -45 56 -106 56 -174c0 -142 -88 -254 -225 -254c-136 0 -225 112 -225 254s89 253 225 253c60 0 111 -22 149 -59c25 24 41 56 41 82c0 0 -6 -1 -8 -1c-19 0 -32 15 -32 33c0 17 13 32 32 32c21 0 39 -19 39 -53zM285 15 c124 0 192 109 192 227c0 117 -68 226 -192 226c-123 0 -192 -109 -192 -226c0 -118 69 -227 192 -227zM336 556h-30l-175 144h45z"/>
<glyph horiz-adv-x="570" unicode="ở" glyph-name="uni1EDF" d="M506 529c0 -45 -24 -88 -52 -113c36 -45 56 -106 56 -174c0 -142 -88 -254 -225 -254c-136 0 -225 112 -225 254s89 253 225 253c60 0 111 -22 149 -59c25 24 41 56 41 82c0 0 -6 -1 -8 -1c-19 0 -32 15 -32 33c0 17 13 32 32 32c21 0 39 -19 39 -53zM285 15 c124 0 192 109 192 227c0 117 -68 226 -192 226c-123 0 -192 -109 -192 -226c0 -118 69 -227 192 -227zM240 591l-21 6c8 26 29 53 67 53c34 0 65 -20 65 -67c0 -22 -7 -37 -22 -56h-27c19 19 26 38 26 56c0 29 -16 45 -42 45c-23 0 -38 -12 -46 -37z"/>
<glyph horiz-adv-x="570" unicode="ỡ" glyph-name="uni1EE1" d="M506 529c0 -45 -24 -88 -52 -113c36 -45 56 -106 56 -174c0 -142 -88 -254 -225 -254c-136 0 -225 112 -225 254s89 253 225 253c60 0 111 -22 149 -59c25 24 41 56 41 82c0 0 -6 -1 -8 -1c-19 0 -32 15 -32 33c0 17 13 32 32 32c21 0 39 -19 39 -53zM285 15 c124 0 192 109 192 227c0 117 -68 226 -192 226c-123 0 -192 -109 -192 -226c0 -118 69 -227 192 -227zM347 554c-77 0 -71 113 -128 113c-33 0 -59 -32 -59 -107h-26c0 72 31 134 88 134c77 0 71 -113 128 -113c33 0 59 32 59 107h26c0 -72 -31 -134 -88 -134z"/>
<glyph horiz-adv-x="570" unicode="ợ" glyph-name="uni1EE3" d="M506 529c0 -45 -24 -88 -52 -113c36 -45 56 -106 56 -174c0 -142 -88 -254 -225 -254c-136 0 -225 112 -225 254s89 253 225 253c60 0 111 -22 149 -59c25 24 41 56 41 82c0 0 -6 -1 -8 -1c-19 0 -32 15 -32 33c0 17 13 32 32 32c21 0 39 -19 39 -53zM285 15 c124 0 192 109 192 227c0 117 -68 226 -192 226c-123 0 -192 -109 -192 -226c0 -118 69 -227 192 -227zM285 -173c-15 0 -29 13 -29 29s14 29 29 29c16 0 29 -13 29 -29s-13 -29 -29 -29z"/>
<glyph horiz-adv-x="988" unicode="œ" glyph-name="oe" d="M928 232h-417c3 -118 80 -217 203 -217c68 0 123 25 168 73l18 -19c-49 -51 -105 -81 -186 -81c-140 0 -203 101 -220 164c-17 -58 -72 -164 -209 -164c-136 0 -225 112 -225 254s89 253 225 253c137 0 196 -108 209 -164c16 58 80 164 210 164c148 0 224 -119 224 -253 v-10zM511 259h385c0 93 -61 209 -193 209c-124 0 -189 -114 -192 -209zM477 242c0 117 -68 226 -192 226c-123 0 -192 -109 -192 -226c0 -118 69 -228 192 -228c124 0 192 110 192 228z"/>
<glyph horiz-adv-x="562" unicode="ṗ" glyph-name="uni1E57" d="M290 -12c-72 0 -135 38 -174 95v-267h-30v667h30v-81c33 50 98 93 174 93c130 0 216 -100 216 -253c0 -152 -86 -254 -216 -254zM290 15c118 0 183 100 183 227s-65 226 -183 226c-75 0 -144 -45 -174 -96v-259c30 -51 99 -98 174 -98zM288 566c-15 0 -29 13 -29 29 s14 29 29 29c16 0 29 -13 29 -29s-13 -29 -29 -29z"/>
<glyph horiz-adv-x="304" unicode="ŕ" glyph-name="racute" d="M338 700l-175 -144h-30l160 144h45zM116 0h-30v483h30v-88c43 57 96 97 166 97v-36c-9 1 -15 1 -24 1c-51 0 -120 -50 -142 -95v-362z"/>
<glyph horiz-adv-x="304" unicode="ř" glyph-name="rcaron" d="M201 556h-36l-101 144h28l91 -120l88 120h28zM116 0h-30v483h30v-88c43 57 96 97 166 97v-36c-9 1 -15 1 -24 1c-51 0 -120 -50 -142 -95v-362z"/>
<glyph horiz-adv-x="304" unicode="ŗ" glyph-name="rcommaaccent" d="M197 -137c0 -50 -30 -98 -62 -121l-22 18c32 24 53 62 53 92c0 0 -6 -1 -8 -1c-19 0 -32 15 -32 33c0 17 13 32 32 32c21 0 39 -19 39 -53zM116 0h-30v483h30v-88c43 57 96 97 166 97v-36c-9 1 -15 1 -24 1c-51 0 -120 -50 -142 -95v-362z"/>
<glyph horiz-adv-x="454" unicode="ś" glyph-name="sacute" d="M373 700l-175 -144h-30l160 144h45zM221 -12c-76 0 -129 22 -177 77l24 22c30 -40 82 -72 153 -72c89 0 143 48 143 112c0 148 -310 71 -310 240c0 71 60 128 164 128c83 0 135 -33 166 -73l-22 -20c-28 40 -79 66 -144 66c-84 0 -134 -44 -134 -101 c0 -135 310 -57 310 -240c0 -75 -56 -139 -173 -139z"/>
<glyph horiz-adv-x="454" unicode="š" glyph-name="scaron" d="M241 556h-36l-101 144h28l91 -120l88 120h28zM221 -12c-76 0 -129 22 -177 77l24 22c30 -40 82 -72 153 -72c89 0 143 48 143 112c0 148 -310 71 -310 240c0 71 60 128 164 128c83 0 135 -33 166 -73l-22 -20c-28 40 -79 66 -144 66c-84 0 -134 -44 -134 -101 c0 -135 310 -57 310 -240c0 -75 -56 -139 -173 -139z"/>
<glyph horiz-adv-x="454" unicode="ŝ" glyph-name="scircumflex" d="M339 556h-28l-91 120l-88 -120h-28l98 144h36zM221 -12c-76 0 -129 22 -177 77l24 22c30 -40 82 -72 153 -72c89 0 143 48 143 112c0 148 -310 71 -310 240c0 71 60 128 164 128c83 0 135 -33 166 -73l-22 -20c-28 40 -79 66 -144 66c-84 0 -134 -44 -134 -101 c0 -135 310 -57 310 -240c0 -75 -56 -139 -173 -139z"/>
<glyph horiz-adv-x="454" unicode="ş" glyph-name="scedilla" d="M220 -187c-38 0 -74 13 -93 28l14 27c24 -21 52 -28 79 -28c37 0 69 18 69 49c0 26 -14 43 -44 43c-16 0 -33 -7 -43 -19l-22 13l22 63c-66 3 -114 25 -158 76l24 22c30 -40 82 -72 153 -72c89 0 143 48 143 112c0 148 -310 71 -310 240c0 71 60 128 164 128 c83 0 135 -33 166 -73l-22 -20c-28 40 -79 66 -144 66c-84 0 -134 -44 -134 -101c0 -135 310 -57 310 -240c0 -73 -53 -135 -162 -139l-17 -46c10 8 25 12 38 12c39 0 65 -25 65 -65c0 -45 -43 -76 -98 -76z"/>
<glyph horiz-adv-x="454" unicode="ș" glyph-name="scommaaccent" d="M272 -137c0 -50 -30 -98 -62 -121l-22 18c32 24 53 62 53 92c0 0 -6 -1 -8 -1c-19 0 -32 15 -32 33c0 17 13 32 32 32c21 0 39 -19 39 -53zM221 -12c-76 0 -129 22 -177 77l24 22c30 -40 82 -72 153 -72c89 0 143 48 143 112c0 148 -310 71 -310 240c0 71 60 128 164 128 c83 0 135 -33 166 -73l-22 -20c-28 40 -79 66 -144 66c-84 0 -134 -44 -134 -101c0 -135 310 -57 310 -240c0 -75 -56 -139 -173 -139z"/>
<glyph horiz-adv-x="454" unicode="ṡ" glyph-name="uni1E61" d="M221 -12c-76 0 -129 22 -177 77l24 22c30 -40 82 -72 153 -72c89 0 143 48 143 112c0 148 -310 71 -310 240c0 71 60 128 164 128c83 0 135 -33 166 -73l-22 -20c-28 40 -79 66 -144 66c-84 0 -134 -44 -134 -101c0 -135 310 -57 310 -240c0 -75 -56 -139 -173 -139z M227 566c-15 0 -29 13 -29 29s14 29 29 29c16 0 29 -13 29 -29s-13 -29 -29 -29z"/>
<glyph horiz-adv-x="558" unicode="ß" glyph-name="germandbls" d="M536 127c0 -68 -48 -139 -173 -139c-96 0 -140 36 -177 77l24 22c30 -39 79 -72 153 -72c97 0 143 55 143 112c0 148 -310 71 -310 240c0 112 166 118 166 200c0 54 -64 83 -118 83c-69 0 -128 -50 -128 -131v-519h-30v519c0 89 64 158 158 158c79 0 148 -42 148 -110 c0 -107 -166 -102 -166 -202c0 -135 310 -55 310 -238z"/>
<glyph horiz-adv-x="246" unicode="ſ" glyph-name="longs" d="M130 0h-30v456h-80v27h80v51c0 90 45 143 121 143c31 0 51 -5 82 -30l-18 -24c-17 16 -38 27 -64 27c-61 0 -91 -43 -91 -116v-534z"/>
<glyph horiz-adv-x="256" unicode="ŧ" glyph-name="tbar" d="M174 -12c-56 0 -82 37 -82 97v157h-80v27h80v187h-80v27h80v132h30v-132h98v-27h-98v-187h71v-27h-71v-157c0 -41 16 -70 52 -70c24 0 45 12 57 26l18 -23c-19 -18 -39 -30 -75 -30z"/>
<glyph horiz-adv-x="256" unicode="ť" glyph-name="tcaron" d="M260 672c0 -50 -30 -98 -62 -121l-22 18c32 24 53 62 53 92c0 0 -6 -1 -8 -1c-19 0 -32 15 -32 33c0 17 13 32 32 32c21 0 39 -19 39 -53zM174 -12c-56 0 -82 37 -82 97v371h-80v27h80v132h30v-132h98v-27h-98v-371c0 -41 16 -70 52 -70c24 0 45 12 57 26l18 -23 c-19 -18 -39 -30 -75 -30z"/>
<glyph horiz-adv-x="256" unicode="ţ" glyph-name="tcommaaccent" d="M173 -137c0 -50 -30 -98 -62 -121l-22 18c32 24 53 62 53 92c0 0 -6 -1 -8 -1c-19 0 -32 15 -32 33c0 17 13 32 32 32c21 0 39 -19 39 -53zM174 -12c-56 0 -82 37 -82 97v371h-80v27h80v132h30v-132h98v-27h-98v-371c0 -41 16 -70 52 -70c24 0 45 12 57 26l18 -23 c-19 -18 -39 -30 -75 -30z"/>
<glyph horiz-adv-x="256" unicode="ț" glyph-name="uni021B" d="M173 -137c0 -50 -30 -98 -62 -121l-22 18c32 24 53 62 53 92c0 0 -6 -1 -8 -1c-19 0 -32 15 -32 33c0 17 13 32 32 32c21 0 39 -19 39 -53zM174 -12c-56 0 -82 37 -82 97v371h-80v27h80v132h30v-132h98v-27h-98v-371c0 -41 16 -70 52 -70c24 0 45 12 57 26l18 -23 c-19 -18 -39 -30 -75 -30z"/>
<glyph horiz-adv-x="256" unicode="ṫ" glyph-name="uni1E6B" d="M174 -12c-56 0 -82 37 -82 97v371h-80v27h80v132h30v-132h98v-27h-98v-371c0 -41 16 -70 52 -70c24 0 45 12 57 26l18 -23c-19 -18 -39 -30 -75 -30zM115 733c-15 0 -29 13 -29 29s14 29 29 29c16 0 29 -13 29 -29s-13 -29 -29 -29z"/>
<glyph unicode="ú" glyph-name="uacute" d="M418 700l-175 -144h-30l160 144h45zM442 0h-30v74c-41 -46 -108 -86 -175 -86c-96 0 -151 42 -151 156v339h30v-339c0 -101 50 -129 125 -129c66 0 137 40 171 88v380h30v-483z"/>
<glyph unicode="ŭ" glyph-name="ubreve" d="M442 0h-30v74c-41 -46 -108 -86 -175 -86c-96 0 -151 42 -151 156v339h30v-339c0 -101 50 -129 125 -129c66 0 137 40 171 88v380h30v-483zM441 632c-40 -54 -103 -88 -175 -88c-71 0 -135 34 -176 88l21 19c35 -49 90 -80 155 -80s120 31 155 80z"/>
<glyph unicode="û" glyph-name="ucircumflex" d="M381 556h-28l-91 120l-88 -120h-28l98 144h36zM442 0h-30v74c-41 -46 -108 -86 -175 -86c-96 0 -151 42 -151 156v339h30v-339c0 -101 50 -129 125 -129c66 0 137 40 171 88v380h30v-483z"/>
<glyph unicode="ü" glyph-name="udieresis" d="M397 598c0 -15 -13 -28 -28 -28s-28 13 -28 28s13 28 28 28s28 -13 28 -28zM195 598c0 -15 -13 -28 -28 -28s-28 13 -28 28s13 28 28 28s28 -13 28 -28zM442 0h-30v74c-41 -46 -108 -86 -175 -86c-96 0 -151 42 -151 156v339h30v-339c0 -101 50 -129 125 -129 c66 0 137 40 171 88v380h30v-483z"/>
<glyph unicode="ù" glyph-name="ugrave" d="M442 0h-30v74c-41 -46 -108 -86 -175 -86c-96 0 -151 42 -151 156v339h30v-339c0 -101 50 -129 125 -129c66 0 137 40 171 88v380h30v-483zM315 556h-30l-175 144h45z"/>
<glyph unicode="ű" glyph-name="uhungarumlaut" d="M442 0h-30v74c-41 -46 -108 -86 -175 -86c-96 0 -151 42 -151 156v339h30v-339c0 -101 50 -129 125 -129c66 0 137 40 171 88v380h30v-483zM306 700l-115 -144h-26l100 144h41zM442 700l-115 -144h-26l100 144h41z"/>
<glyph unicode="ū" glyph-name="umacron" d="M442 0h-30v74c-41 -46 -108 -86 -175 -86c-96 0 -151 42 -151 156v339h30v-339c0 -101 50 -129 125 -129c66 0 137 40 171 88v380h30v-483zM445 581h-363v27h363v-27z"/>
<glyph unicode="ų" glyph-name="uogonek" d="M442 0c-48 -23 -82 -55 -82 -102c0 -37 19 -57 52 -57c31 0 48 16 58 47l25 -11c-11 -31 -35 -63 -83 -63c-43 0 -81 25 -81 84c0 46 34 90 81 115v61c-41 -46 -108 -86 -175 -86c-96 0 -151 42 -151 156v339h30v-339c0 -101 50 -129 125 -129c66 0 137 40 171 88v380h30 v-483z"/>
<glyph unicode="ů" glyph-name="uring" d="M264 553c-51 0 -93 42 -93 93s42 93 93 93s92 -42 92 -93s-41 -93 -92 -93zM264 577c38 0 68 31 68 69s-30 69 -68 69s-69 -31 -69 -69s31 -69 69 -69zM442 0h-30v74c-41 -46 -108 -86 -175 -86c-96 0 -151 42 -151 156v339h30v-339c0 -101 50 -129 125 -129 c66 0 137 40 171 88v380h30v-483z"/>
<glyph unicode="ũ" glyph-name="utilde" d="M442 0h-30v74c-41 -46 -108 -86 -175 -86c-96 0 -151 42 -151 156v339h30v-339c0 -101 50 -129 125 -129c66 0 137 40 171 88v380h30v-483zM326 554c-77 0 -71 113 -128 113c-33 0 -59 -32 -59 -107h-26c0 72 31 134 88 134c77 0 71 -113 128 -113c33 0 59 32 59 107h26 c0 -72 -31 -134 -88 -134z"/>
<glyph unicode="ụ" glyph-name="uni1EE5" d="M442 0h-30v74c-41 -46 -108 -86 -175 -86c-96 0 -151 42 -151 156v339h30v-339c0 -101 50 -129 125 -129c66 0 137 40 171 88v380h30v-483zM267 -173c-15 0 -29 13 -29 29s14 29 29 29c16 0 29 -13 29 -29s-13 -29 -29 -29z"/>
<glyph unicode="ư" glyph-name="uhorn" d="M442 0h-30v74c-41 -46 -108 -86 -175 -86c-96 0 -151 42 -151 156v339h30v-339c0 -101 50 -129 125 -129c66 0 137 40 171 88v380h30v-69c41 23 72 64 72 104c0 0 -6 -1 -8 -1c-19 0 -32 15 -32 33c0 17 13 32 32 32c21 0 39 -19 39 -53c0 -63 -42 -118 -103 -146v-383z "/>
<glyph unicode="ủ" glyph-name="uni1EE7" d="M442 0h-30v74c-41 -46 -108 -86 -175 -86c-96 0 -151 42 -151 156v339h30v-339c0 -101 50 -129 125 -129c66 0 137 40 171 88v380h30v-483zM219 591l-21 6c8 26 29 53 67 53c34 0 65 -20 65 -67c0 -22 -7 -37 -22 -56h-27c19 19 26 38 26 56c0 29 -16 45 -42 45 c-23 0 -38 -12 -46 -37z"/>
<glyph unicode="ứ" glyph-name="uni1EE9" d="M418 700l-175 -144h-30l160 144h45zM442 0h-30v74c-41 -46 -108 -86 -175 -86c-96 0 -151 42 -151 156v339h30v-339c0 -101 50 -129 125 -129c66 0 137 40 171 88v380h30v-69c41 23 72 64 72 104c0 0 -6 -1 -8 -1c-19 0 -32 15 -32 33c0 17 13 32 32 32 c21 0 39 -19 39 -53c0 -63 -42 -118 -103 -146v-383z"/>
<glyph unicode="ừ" glyph-name="uni1EEB" d="M315 556h-30l-175 144h45zM442 0h-30v74c-41 -46 -108 -86 -175 -86c-96 0 -151 42 -151 156v339h30v-339c0 -101 50 -129 125 -129c66 0 137 40 171 88v380h30v-69c41 23 72 64 72 104c0 0 -6 -1 -8 -1c-19 0 -32 15 -32 33c0 17 13 32 32 32c21 0 39 -19 39 -53 c0 -63 -42 -118 -103 -146v-383z"/>
<glyph unicode="ử" glyph-name="uni1EED" d="M219 591l-21 6c8 26 29 53 67 53c34 0 65 -20 65 -67c0 -22 -7 -37 -22 -56h-27c19 19 26 38 26 56c0 29 -16 45 -42 45c-23 0 -38 -12 -46 -37zM442 0h-30v74c-41 -46 -108 -86 -175 -86c-96 0 -151 42 -151 156v339h30v-339c0 -101 50 -129 125 -129 c66 0 137 40 171 88v380h30v-69c41 23 72 64 72 104c0 0 -6 -1 -8 -1c-19 0 -32 15 -32 33c0 17 13 32 32 32c21 0 39 -19 39 -53c0 -63 -42 -118 -103 -146v-383z"/>
<glyph unicode="ữ" glyph-name="uni1EEF" d="M442 0h-30v74c-41 -46 -108 -86 -175 -86c-96 0 -151 42 -151 156v339h30v-339c0 -101 50 -129 125 -129c66 0 137 40 171 88v380h30v-69c41 23 72 64 72 104c0 0 -6 -1 -8 -1c-19 0 -32 15 -32 33c0 17 13 32 32 32c21 0 39 -19 39 -53c0 -63 -42 -118 -103 -146v-383z M326 554c-77 0 -71 113 -128 113c-33 0 -59 -32 -59 -107h-26c0 72 31 134 88 134c77 0 71 -113 128 -113c33 0 59 32 59 107h26c0 -72 -31 -134 -88 -134z"/>
<glyph unicode="ự" glyph-name="uni1EF1" d="M267 -173c-15 0 -29 13 -29 29s14 29 29 29c16 0 29 -13 29 -29s-13 -29 -29 -29zM442 0h-30v74c-41 -46 -108 -86 -175 -86c-96 0 -151 42 -151 156v339h30v-339c0 -101 50 -129 125 -129c66 0 137 40 171 88v380h30v-69c41 23 72 64 72 104c0 0 -6 -1 -8 -1 c-19 0 -32 15 -32 33c0 17 13 32 32 32c21 0 39 -19 39 -53c0 -63 -42 -118 -103 -146v-383z"/>
<glyph horiz-adv-x="704" unicode="ẃ" glyph-name="wacute" d="M506 700l-175 -144h-30l160 144h45zM522 0h-24l-146 438l-146 -438h-24l-160 483h33l140 -436l145 436h24l145 -436l140 436h33z"/>
<glyph horiz-adv-x="704" unicode="ŵ" glyph-name="wcircumflex" d="M470 556h-28l-91 120l-88 -120h-28l98 144h36zM522 0h-24l-146 438l-146 -438h-24l-160 483h33l140 -436l145 436h24l145 -436l140 436h33z"/>
<glyph horiz-adv-x="704" unicode="ẅ" glyph-name="wdieresis" d="M481 598c0 -15 -13 -28 -28 -28s-28 13 -28 28s13 28 28 28s28 -13 28 -28zM279 598c0 -15 -13 -28 -28 -28s-28 13 -28 28s13 28 28 28s28 -13 28 -28zM522 0h-24l-146 438l-146 -438h-24l-160 483h33l140 -436l145 436h24l145 -436l140 436h33z"/>
<glyph horiz-adv-x="704" unicode="ẁ" glyph-name="wgrave" d="M522 0h-24l-146 438l-146 -438h-24l-160 483h33l140 -436l145 436h24l145 -436l140 436h33zM403 556h-30l-175 144h45z"/>
<glyph horiz-adv-x="471" unicode="ý" glyph-name="yacute" d="M50 -189l6 28c11 -5 30 -8 42 -8c32 0 54 14 76 66l44 100l-207 486h35l190 -448l189 448h35l-256 -597c-23 -52 -58 -82 -106 -82c-17 0 -36 3 -48 7zM390 700l-175 -144h-30l160 144h45z"/>
<glyph horiz-adv-x="471" unicode="ŷ" glyph-name="ycircumflex" d="M50 -189l6 28c11 -5 30 -8 42 -8c32 0 54 14 76 66l44 100l-207 486h35l190 -448l189 448h35l-256 -597c-23 -52 -58 -82 -106 -82c-17 0 -36 3 -48 7zM354 556h-28l-91 120l-88 -120h-28l98 144h36z"/>
<glyph horiz-adv-x="471" unicode="ÿ" glyph-name="ydieresis" d="M50 -189l6 28c11 -5 30 -8 42 -8c32 0 54 14 76 66l44 100l-207 486h35l190 -448l189 448h35l-256 -597c-23 -52 -58 -82 -106 -82c-17 0 -36 3 -48 7zM365 598c0 -15 -13 -28 -28 -28s-28 13 -28 28s13 28 28 28s28 -13 28 -28zM163 598c0 -15 -13 -28 -28 -28 s-28 13 -28 28s13 28 28 28s28 -13 28 -28z"/>
<glyph horiz-adv-x="471" unicode="ỳ" glyph-name="ygrave" d="M50 -189l6 28c11 -5 30 -8 42 -8c32 0 54 14 76 66l44 100l-207 486h35l190 -448l189 448h35l-256 -597c-23 -52 -58 -82 -106 -82c-17 0 -36 3 -48 7zM287 556h-30l-175 144h45z"/>
<glyph glyph-name="yacute.alt1" d="M418 700l-175 -144h-30l160 144h45zM251 -196c-79 0 -127 25 -170 73l22 25c37 -48 85 -71 148 -71c100 0 161 60 161 165v78c-41 -46 -108 -86 -175 -86c-96 0 -151 42 -151 156v339h30v-339c0 -101 50 -129 125 -129c66 0 137 40 171 88v380h30v-487 c0 -143 -101 -192 -191 -192z"/>
<glyph glyph-name="ycircumflex.alt1" d="M383 556h-28l-91 120l-88 -120h-28l98 144h36zM251 -196c-79 0 -127 25 -170 73l22 25c37 -48 85 -71 148 -71c100 0 161 60 161 165v78c-41 -46 -108 -86 -175 -86c-96 0 -151 42 -151 156v339h30v-339c0 -101 50 -129 125 -129c66 0 137 40 171 88v380h30v-487 c0 -143 -101 -192 -191 -192z"/>
<glyph glyph-name="ydieresis.alt1" d="M388 598c0 -15 -13 -28 -28 -28s-28 13 -28 28s13 28 28 28s28 -13 28 -28zM186 598c0 -15 -13 -28 -28 -28s-28 13 -28 28s13 28 28 28s28 -13 28 -28zM251 -196c-79 0 -127 25 -170 73l22 25c37 -48 85 -71 148 -71c100 0 161 60 161 165v78c-41 -46 -108 -86 -175 -86 c-96 0 -151 42 -151 156v339h30v-339c0 -101 50 -129 125 -129c66 0 137 40 171 88v380h30v-487c0 -143 -101 -192 -191 -192z"/>
<glyph glyph-name="ygrave.alt1" d="M251 -196c-79 0 -127 25 -170 73l22 25c37 -48 85 -71 148 -71c100 0 161 60 161 165v78c-41 -46 -108 -86 -175 -86c-96 0 -151 42 -151 156v339h30v-339c0 -101 50 -129 125 -129c66 0 137 40 171 88v380h30v-487c0 -143 -101 -192 -191 -192zM315 556h-30l-175 144h45 z"/>
<glyph horiz-adv-x="466" unicode="ź" glyph-name="zacute" d="M387 700l-175 -144h-30l160 144h45zM406 0h-346v27l307 429h-307v27h342v-27l-309 -429h313v-27z"/>
<glyph horiz-adv-x="466" unicode="ž" glyph-name="zcaron" d="M245 556h-36l-101 144h28l91 -120l88 120h28zM406 0h-346v27l307 429h-307v27h342v-27l-309 -429h313v-27z"/>
<glyph horiz-adv-x="466" unicode="ż" glyph-name="zdotaccent" d="M406 0h-346v27l307 429h-307v27h342v-27l-309 -429h313v-27zM233 566c-15 0 -29 13 -29 29s14 29 29 29c16 0 29 -13 29 -29s-13 -29 -29 -29z"/>
<glyph horiz-adv-x="570" unicode="ð" glyph-name="eth" d="M138 522l-11 26l126 56c-27 19 -56 38 -87 57l18 27c34 -21 69 -43 103 -69l111 49l11 -26l-97 -43c108 -89 198 -207 198 -357c0 -142 -88 -254 -225 -254c-136 0 -225 112 -225 254s89 253 225 253c57 0 109 -20 156 -85c-46 72 -99 126 -162 174zM285 15 c124 0 192 109 192 227c0 117 -68 226 -192 226c-123 0 -192 -109 -192 -226c0 -118 69 -227 192 -227z"/>
<glyph horiz-adv-x="562" unicode="þ" glyph-name="thorn" d="M290 -12c-72 0 -135 38 -174 95v-267h-30v851h30v-265c33 50 98 93 174 93c130 0 216 -100 216 -253c0 -152 -86 -254 -216 -254zM290 15c118 0 183 100 183 227s-65 226 -183 226c-75 0 -144 -45 -174 -96v-259c30 -51 99 -98 174 -98z"/>
<glyph horiz-adv-x="551" unicode="" glyph-name="Aacute.smcp" d="M430 750l-175 -144h-30l160 144h45zM258 550h35l241 -550h-36l-64 146h-317l-63 -146h-37zM422 175l-146 337l-147 -337h293z"/>
<glyph horiz-adv-x="551" unicode="" glyph-name="Abreve.smcp" d="M258 550h35l241 -550h-36l-64 146h-317l-63 -146h-37zM422 175l-146 337l-147 -337h293zM452 682c-40 -54 -103 -88 -175 -88c-71 0 -135 34 -176 88l21 19c35 -49 90 -80 155 -80s120 31 155 80z"/>
<glyph horiz-adv-x="551" unicode="" glyph-name="Acircumflex.smcp" d="M395 606h-28l-91 120l-88 -120h-28l98 144h36zM258 550h35l241 -550h-36l-64 146h-317l-63 -146h-37zM422 175l-146 337l-147 -337h293z"/>
<glyph horiz-adv-x="551" unicode="" glyph-name="Adieresis.smcp" d="M405 648c0 -15 -13 -28 -28 -28s-28 13 -28 28s13 28 28 28s28 -13 28 -28zM203 648c0 -15 -13 -28 -28 -28s-28 13 -28 28s13 28 28 28s28 -13 28 -28zM258 550h35l241 -550h-36l-64 146h-317l-63 -146h-37zM422 175l-146 337l-147 -337h293z"/>
<glyph horiz-adv-x="551" unicode="" glyph-name="Agrave.smcp" d="M258 550h35l241 -550h-36l-64 146h-317l-63 -146h-37zM422 175l-146 337l-147 -337h293zM327 606h-30l-175 144h45z"/>
<glyph horiz-adv-x="551" unicode="" glyph-name="Amacron.smcp" d="M458 631h-363v27h363v-27zM258 550h35l241 -550h-36l-64 146h-317l-63 -146h-37zM422 175l-146 337l-147 -337h293z"/>
<glyph horiz-adv-x="551" unicode="" glyph-name="Aogonek.smcp" d="M258 550h35l241 -550c-48 -23 -82 -55 -82 -102c0 -37 19 -57 52 -57c31 0 48 16 58 47l25 -11c-11 -31 -35 -63 -83 -63c-43 0 -81 25 -81 84c0 43 30 84 71 110l-60 138h-317l-63 -146h-37zM422 175l-146 337l-147 -337h293z"/>
<glyph horiz-adv-x="551" unicode="" glyph-name="Aring.smcp" d="M277 575c-51 0 -93 42 -93 93s42 93 93 93s92 -42 92 -93s-41 -93 -92 -93zM277 599c38 0 68 31 68 69s-30 69 -68 69s-69 -31 -69 -69s31 -69 69 -69zM258 550h35l241 -550h-36l-64 146h-317l-63 -146h-37zM422 175l-146 337l-147 -337h293z"/>
<glyph horiz-adv-x="551" unicode="" glyph-name="Atilde.smcp" d="M258 550h35l241 -550h-36l-64 146h-317l-63 -146h-37zM422 175l-146 337l-147 -337h293zM339 604c-77 0 -71 113 -128 113c-33 0 -59 -32 -59 -107h-26c0 72 31 134 88 134c77 0 71 -113 128 -113c33 0 59 32 59 107h26c0 -72 -31 -134 -88 -134z"/>
<glyph horiz-adv-x="551" glyph-name="uni1EA0.smcp" d="M258 550h35l241 -550h-36l-64 146h-317l-63 -146h-37zM422 175l-146 337l-147 -337h293zM276 -173c-15 0 -29 13 -29 29s14 29 29 29c16 0 29 -13 29 -29s-13 -29 -29 -29z"/>
<glyph horiz-adv-x="551" glyph-name="uni1EA2.smcp" d="M258 550h35l241 -550h-36l-64 146h-317l-63 -146h-37zM422 175l-146 337l-147 -337h293zM231 644l-21 6c8 26 29 53 67 53c34 0 65 -20 65 -67c0 -22 -7 -37 -22 -56h-27c19 19 26 38 26 56c0 29 -16 45 -42 45c-23 0 -38 -12 -46 -37z"/>
<glyph horiz-adv-x="551" glyph-name="uni1EA4.smcp" d="M395 606h-28l-91 120l-88 -120h-28l98 144h36zM561 820l-175 -144h-30l160 144h45zM258 550h35l241 -550h-36l-64 146h-317l-63 -146h-37zM422 175l-146 337l-147 -337h293z"/>
<glyph horiz-adv-x="551" glyph-name="uni1EAC.smcp" d="M394 606h-28l-91 120l-88 -120h-28l98 144h36zM258 550h35l241 -550h-36l-64 146h-317l-63 -146h-37zM422 175l-146 337l-147 -337h293zM275 -173c-15 0 -29 13 -29 29s14 29 29 29c16 0 29 -13 29 -29s-13 -29 -29 -29z"/>
<glyph horiz-adv-x="551" glyph-name="uni1EA6.smcp" d="M395 606h-28l-91 120l-88 -120h-28l98 144h36zM258 550h35l241 -550h-36l-64 146h-317l-63 -146h-37zM422 175l-146 337l-147 -337h293zM196 676h-30l-175 144h45z"/>
<glyph horiz-adv-x="551" glyph-name="uni1EA8.smcp" d="M395 606h-28l-91 120l-88 -120h-28l98 144h36zM258 550h35l241 -550h-36l-64 146h-317l-63 -146h-37zM422 175l-146 337l-147 -337h293zM309 781l-21 6c8 26 29 53 67 53c34 0 65 -20 65 -67c0 -22 -7 -37 -22 -56h-27c19 19 26 38 26 56c0 29 -16 45 -42 45 c-23 0 -38 -12 -46 -37z"/>
<glyph horiz-adv-x="551" glyph-name="uni1EAE.smcp" d="M431 806l-175 -144h-30l160 144h45zM258 550h35l241 -550h-36l-64 146h-317l-63 -146h-37zM422 175l-146 337l-147 -337h293zM452 664c-40 -54 -103 -88 -175 -88c-71 0 -135 34 -176 88l21 19c35 -49 90 -80 155 -80s120 31 155 80z"/>
<glyph horiz-adv-x="551" glyph-name="uni1EAA.smcp" d="M395 573h-28l-91 120l-88 -120h-28l98 144h36zM258 550h35l241 -550h-36l-64 146h-317l-63 -146h-37zM422 175l-146 337l-147 -337h293zM339 732c-77 0 -71 113 -128 113c-33 0 -59 -32 -59 -107h-26c0 72 31 134 88 134c77 0 71 -113 128 -113c33 0 59 32 59 107h26 c0 -72 -31 -134 -88 -134z"/>
<glyph horiz-adv-x="551" glyph-name="uni1EB0.smcp" d="M258 550h35l241 -550h-36l-64 146h-317l-63 -146h-37zM422 175l-146 337l-147 -337h293zM329 662h-30l-175 144h45zM452 664c-40 -54 -103 -88 -175 -88c-71 0 -135 34 -176 88l21 19c35 -49 90 -80 155 -80s120 31 155 80z"/>
<glyph horiz-adv-x="551" glyph-name="uni1EB2.smcp" d="M258 550h35l241 -550h-36l-64 146h-317l-63 -146h-37zM422 175l-146 337l-147 -337h293zM232 716l-21 6c8 26 29 53 67 53c34 0 65 -20 65 -67c0 -22 -7 -37 -22 -56h-27c19 19 26 38 26 56c0 29 -16 45 -42 45c-23 0 -38 -12 -46 -37zM453 664 c-40 -54 -103 -88 -175 -88c-71 0 -135 34 -176 88l21 19c35 -49 90 -80 155 -80s120 31 155 80z"/>
<glyph horiz-adv-x="551" glyph-name="uni1EB4.smcp" d="M453 664c-40 -54 -103 -88 -175 -88c-71 0 -135 34 -176 88l21 19c35 -49 90 -80 155 -80s120 31 155 80zM258 550h35l241 -550h-36l-64 146h-317l-63 -146h-37zM422 175l-146 337l-147 -337h293zM336 701c-77 0 -71 113 -128 113c-33 0 -59 -32 -59 -107h-26 c0 72 31 134 88 134c77 0 71 -113 128 -113c33 0 59 32 59 107h26c0 -72 -31 -134 -88 -134z"/>
<glyph horiz-adv-x="551" glyph-name="uni1EB6.smcp" d="M258 550h35l241 -550h-36l-64 146h-317l-63 -146h-37zM422 175l-146 337l-147 -337h293zM276 -173c-15 0 -29 13 -29 29s14 29 29 29c16 0 29 -13 29 -29s-13 -29 -29 -29zM452 682c-40 -54 -103 -88 -175 -88c-71 0 -135 34 -176 88l21 19c35 -49 90 -80 155 -80 s120 31 155 80z"/>
<glyph horiz-adv-x="801" unicode="" glyph-name="AE.smcp" d="M741 0h-355v146h-238l-94 -146h-37l359 550h365v-29h-323v-223h317v-29h-317v-240h323v-29zM386 175v337l-220 -337h220z"/>
<glyph horiz-adv-x="801" unicode="" glyph-name="AEacute.smcp" d="M557 750l-175 -144h-30l160 144h45zM741 0h-355v146h-238l-94 -146h-37l359 550h365v-29h-323v-223h317v-29h-317v-240h323v-29zM386 175v337l-220 -337h220z"/>
<glyph horiz-adv-x="527" glyph-name="uni1E02.smcp" d="M307 0h-221v550h218c93 0 158 -50 158 -141c0 -66 -46 -112 -94 -125c58 -15 106 -74 106 -135c0 -94 -65 -149 -167 -149zM307 29c83 0 132 46 132 119c0 62 -44 121 -132 121h-189v-240h189zM304 298c82 0 124 49 124 111c0 67 -44 112 -124 112h-186v-223h186z M270 616c-15 0 -29 13 -29 29s14 29 29 29c16 0 29 -13 29 -29s-13 -29 -29 -29z"/>
<glyph horiz-adv-x="580" unicode="" glyph-name="Cacute.smcp" d="M502 750l-175 -144h-30l160 144h45zM348 -12c-161 0 -288 118 -288 288c0 169 127 286 288 286c82 0 150 -31 203 -90l-23 -20c-41 52 -109 81 -180 81c-142 0 -254 -105 -254 -257c0 -151 112 -259 254 -259c71 0 142 31 180 81l24 -20c-55 -60 -122 -90 -204 -90z"/>
<glyph horiz-adv-x="580" unicode="" glyph-name="Ccaron.smcp" d="M370 606h-36l-101 144h28l91 -120l88 120h28zM348 -12c-161 0 -288 118 -288 288c0 169 127 286 288 286c82 0 150 -31 203 -90l-23 -20c-41 52 -109 81 -180 81c-142 0 -254 -105 -254 -257c0 -151 112 -259 254 -259c71 0 142 31 180 81l24 -20 c-55 -60 -122 -90 -204 -90z"/>
<glyph horiz-adv-x="580" unicode="" glyph-name="Ccedilla.smcp" d="M349 -187c-38 0 -74 13 -93 28l14 27c24 -21 52 -28 79 -28c37 0 69 18 69 49c0 26 -14 43 -44 43c-16 0 -33 -7 -43 -19l-22 13l22 63c-153 8 -271 123 -271 287c0 169 127 286 288 286c82 0 150 -31 203 -90l-23 -20c-41 52 -109 81 -180 81 c-142 0 -254 -105 -254 -257c0 -151 112 -259 254 -259c71 0 142 31 180 81l24 -20c-52 -57 -115 -87 -191 -90l-17 -46c10 8 25 12 38 12c39 0 65 -25 65 -65c0 -45 -43 -76 -98 -76z"/>
<glyph horiz-adv-x="580" unicode="" glyph-name="Ccircumflex.smcp" d="M468 606h-28l-91 120l-88 -120h-28l98 144h36zM348 -12c-161 0 -288 118 -288 288c0 169 127 286 288 286c82 0 150 -31 203 -90l-23 -20c-41 52 -109 81 -180 81c-142 0 -254 -105 -254 -257c0 -151 112 -259 254 -259c71 0 142 31 180 81l24 -20 c-55 -60 -122 -90 -204 -90z"/>
<glyph horiz-adv-x="580" unicode="" glyph-name="Cdotaccent.smcp" d="M348 -12c-161 0 -288 118 -288 288c0 169 127 286 288 286c82 0 150 -31 203 -90l-23 -20c-41 52 -109 81 -180 81c-142 0 -254 -105 -254 -257c0 -151 112 -259 254 -259c71 0 142 31 180 81l24 -20c-55 -60 -122 -90 -204 -90zM351 616c-15 0 -29 13 -29 29 s14 29 29 29c16 0 29 -13 29 -29s-13 -29 -29 -29z"/>
<glyph horiz-adv-x="606" unicode="" glyph-name="Dcaron.smcp" d="M307 606h-36l-101 144h28l91 -120l88 120h28zM243 0h-172v550h172c179 0 288 -129 288 -276c0 -148 -109 -274 -288 -274zM243 29c161 0 253 108 253 245c0 136 -92 247 -253 247h-140v-492h140z"/>
<glyph horiz-adv-x="618" unicode="" glyph-name="Dcroat.smcp" d="M255 0h-172v268h-71v27h71v255h172c179 0 288 -129 288 -276c0 -148 -109 -274 -288 -274zM266 268h-151v-239h140c161 0 253 108 253 245c0 136 -92 247 -253 247h-140v-226h151v-27z"/>
<glyph horiz-adv-x="606" glyph-name="uni1E0A.smcp" d="M258 0h-172v550h172c179 0 288 -129 288 -276c0 -148 -109 -274 -288 -274zM258 29c161 0 253 108 253 245c0 136 -92 247 -253 247h-140v-492h140zM307 616c-15 0 -29 13 -29 29s14 29 29 29c16 0 29 -13 29 -29s-13 -29 -29 -29z"/>
<glyph horiz-adv-x="500" unicode="" glyph-name="Eacute.smcp" d="M417 750l-175 -144h-30l160 144h45zM440 0h-354v550h354v-29h-322v-223h317v-29h-317v-240h322v-29z"/>
<glyph horiz-adv-x="500" unicode="" glyph-name="Ebreve.smcp" d="M440 0h-354v550h354v-29h-322v-223h317v-29h-317v-240h322v-29zM436 682c-40 -54 -103 -88 -175 -88c-71 0 -135 34 -176 88l21 19c35 -49 90 -80 155 -80s120 31 155 80z"/>
<glyph horiz-adv-x="500" unicode="" glyph-name="Ecaron.smcp" d="M284 606h-36l-101 144h28l91 -120l88 120h28zM440 0h-354v550h354v-29h-322v-223h317v-29h-317v-240h322v-29z"/>
<glyph horiz-adv-x="500" unicode="" glyph-name="Ecircumflex.smcp" d="M385 606h-28l-91 120l-88 -120h-28l98 144h36zM440 0h-354v550h354v-29h-322v-223h317v-29h-317v-240h322v-29z"/>
<glyph horiz-adv-x="500" unicode="" glyph-name="Edieresis.smcp" d="M391 648c0 -15 -13 -28 -28 -28s-28 13 -28 28s13 28 28 28s28 -13 28 -28zM189 648c0 -15 -13 -28 -28 -28s-28 13 -28 28s13 28 28 28s28 -13 28 -28zM440 0h-354v550h354v-29h-322v-223h317v-29h-317v-240h322v-29z"/>
<glyph horiz-adv-x="500" unicode="" glyph-name="Edotaccent.smcp" d="M440 0h-354v550h354v-29h-322v-223h317v-29h-317v-240h322v-29zM268 616c-15 0 -29 13 -29 29s14 29 29 29c16 0 29 -13 29 -29s-13 -29 -29 -29z"/>
<glyph horiz-adv-x="500" unicode="" glyph-name="Egrave.smcp" d="M440 0h-354v550h354v-29h-322v-223h317v-29h-317v-240h322v-29zM314 606h-30l-175 144h45z"/>
<glyph horiz-adv-x="500" unicode="" glyph-name="Emacron.smcp" d="M440 0h-354v550h354v-29h-322v-223h317v-29h-317v-240h322v-29zM441 631h-363v27h363v-27z"/>
<glyph horiz-adv-x="500" unicode="" glyph-name="Eogonek.smcp" d="M468 -112l25 -11c-11 -31 -35 -63 -83 -63c-43 0 -81 25 -81 84c0 39 24 76 60 102h-303v550h354v-29h-322v-223h317v-29h-317v-240h322v-29c-48 -23 -82 -55 -82 -102c0 -37 19 -57 52 -57c31 0 48 16 58 47z"/>
<glyph horiz-adv-x="500" glyph-name="uni1EB8.smcp" d="M440 0h-354v550h354v-29h-322v-223h317v-29h-317v-240h322v-29zM267 -173c-15 0 -29 13 -29 29s14 29 29 29c16 0 29 -13 29 -29s-13 -29 -29 -29z"/>
<glyph horiz-adv-x="500" glyph-name="uni1EBA.smcp" d="M440 0h-354v550h354v-29h-322v-223h317v-29h-317v-240h322v-29zM222 644l-21 6c8 26 29 53 67 53c34 0 65 -20 65 -67c0 -22 -7 -37 -22 -56h-27c19 19 26 38 26 56c0 29 -16 45 -42 45c-23 0 -38 -12 -46 -37z"/>
<glyph horiz-adv-x="500" glyph-name="uni1EBC.smcp" d="M440 0h-354v550h354v-29h-322v-223h317v-29h-317v-240h322v-29zM330 604c-77 0 -71 113 -128 113c-33 0 -59 -32 -59 -107h-26c0 72 31 134 88 134c77 0 71 -113 128 -113c33 0 59 32 59 107h26c0 -72 -31 -134 -88 -134z"/>
<glyph horiz-adv-x="500" glyph-name="uni1EBE.smcp" d="M380 606h-28l-91 120l-88 -120h-28l98 144h36zM546 820l-175 -144h-30l160 144h45zM440 0h-354v550h354v-29h-322v-223h317v-29h-317v-240h322v-29z"/>
<glyph horiz-adv-x="500" glyph-name="uni1EC0.smcp" d="M380 606h-28l-91 120l-88 -120h-28l98 144h36zM440 0h-354v550h354v-29h-322v-223h317v-29h-317v-240h322v-29zM181 676h-30l-175 144h45z"/>
<glyph horiz-adv-x="500" glyph-name="uni1EC2.smcp" d="M382 606h-28l-91 120l-88 -120h-28l98 144h36zM440 0h-354v550h354v-29h-322v-223h317v-29h-317v-240h322v-29zM296 781l-21 6c8 26 29 53 67 53c34 0 65 -20 65 -67c0 -22 -7 -37 -22 -56h-27c19 19 26 38 26 56c0 29 -16 45 -42 45c-23 0 -38 -12 -46 -37z"/>
<glyph horiz-adv-x="500" glyph-name="uni1EC4.smcp" d="M380 573h-28l-91 120l-88 -120h-28l98 144h36zM440 0h-354v550h354v-29h-322v-223h317v-29h-317v-240h322v-29zM324 732c-77 0 -71 113 -128 113c-33 0 -59 -32 -59 -107h-26c0 72 31 134 88 134c77 0 71 -113 128 -113c33 0 59 32 59 107h26c0 -72 -31 -134 -88 -134z "/>
<glyph horiz-adv-x="500" glyph-name="uni1EC6.smcp" d="M385 606h-28l-91 120l-88 -120h-28l98 144h36zM440 0h-354v550h354v-29h-322v-223h317v-29h-317v-240h322v-29zM267 -173c-15 0 -29 13 -29 29s14 29 29 29c16 0 29 -13 29 -29s-13 -29 -29 -29z"/>
<glyph horiz-adv-x="476" glyph-name="uni1E1E.smcp" d="M272 616c-15 0 -29 13 -29 29s14 29 29 29c16 0 29 -13 29 -29s-13 -29 -29 -29zM118 0h-32v550h354v-29h-322v-223h317v-29h-317v-269z"/>
<glyph horiz-adv-x="634" unicode="" glyph-name="Gbreve.smcp" d="M348 -12c-161 0 -288 118 -288 287s127 287 288 287c87 0 156 -31 213 -87l-21 -23c-46 49 -116 81 -192 81c-142 0 -254 -106 -254 -258c0 -151 112 -259 254 -259c82 0 146 40 180 73v149h-203v29h235v-190c-50 -53 -126 -89 -212 -89zM524 682 c-40 -54 -103 -88 -175 -88c-71 0 -135 34 -176 88l21 19c35 -49 90 -80 155 -80s120 31 155 80z"/>
<glyph horiz-adv-x="634" unicode="" glyph-name="Gcircumflex.smcp" d="M348 -12c-161 0 -288 118 -288 287s127 287 288 287c87 0 156 -31 213 -87l-21 -23c-46 49 -116 81 -192 81c-142 0 -254 -106 -254 -258c0 -151 112 -259 254 -259c82 0 146 40 180 73v149h-203v29h235v-190c-50 -53 -126 -89 -212 -89zM466 606h-28l-91 120l-88 -120 h-28l98 144h36z"/>
<glyph horiz-adv-x="634" unicode="" glyph-name="Gcommaaccent.smcp" d="M348 -12c-161 0 -288 118 -288 287s127 287 288 287c87 0 156 -31 213 -87l-21 -23c-46 49 -116 81 -192 81c-142 0 -254 -106 -254 -258c0 -151 112 -259 254 -259c82 0 146 40 180 73v149h-203v29h235v-190c-50 -53 -126 -89 -212 -89zM390 -137 c0 -50 -30 -98 -62 -121l-22 18c32 24 53 62 53 92c0 0 -6 -1 -8 -1c-19 0 -32 15 -32 33c0 17 13 32 32 32c21 0 39 -19 39 -53z"/>
<glyph horiz-adv-x="634" unicode="" glyph-name="Gdotaccent.smcp" d="M348 -12c-161 0 -288 118 -288 287s127 287 288 287c87 0 156 -31 213 -87l-21 -23c-46 49 -116 81 -192 81c-142 0 -254 -106 -254 -258c0 -151 112 -259 254 -259c82 0 146 40 180 73v149h-203v29h235v-190c-50 -53 -126 -89 -212 -89zM351 616c-15 0 -29 13 -29 29 s14 29 29 29c16 0 29 -13 29 -29s-13 -29 -29 -29z"/>
<glyph horiz-adv-x="652" glyph-name="Gbreve.smcp.alt1" d="M348 -12c-161 0 -288 118 -288 287s127 287 288 287c87 0 156 -31 213 -87l-21 -23c-46 49 -116 81 -192 81c-142 0 -254 -106 -254 -258c0 -151 112 -259 254 -259c118 0 215 82 227 222h-250v29h284c0 -156 -100 -279 -261 -279zM524 682c-40 -54 -103 -88 -175 -88 c-71 0 -135 34 -176 88l21 19c35 -49 90 -80 155 -80s120 31 155 80z"/>
<glyph horiz-adv-x="652" glyph-name="Gcommaaccent.smcp.alt1" d="M390 -137c0 -50 -30 -98 -62 -121l-22 18c32 24 53 62 53 92c0 0 -6 -1 -8 -1c-19 0 -32 15 -32 33c0 17 13 32 32 32c21 0 39 -19 39 -53zM348 -12c-161 0 -288 118 -288 287s127 287 288 287c87 0 156 -31 213 -87l-21 -23c-46 49 -116 81 -192 81 c-142 0 -254 -106 -254 -258c0 -151 112 -259 254 -259c118 0 215 82 227 222h-250v29h284c0 -156 -100 -279 -261 -279z"/>
<glyph horiz-adv-x="652" glyph-name="Gcircumflex.smcp.alt1" d="M470 606h-28l-91 120l-88 -120h-28l98 144h36zM348 -12c-161 0 -288 118 -288 287s127 287 288 287c87 0 156 -31 213 -87l-21 -23c-46 49 -116 81 -192 81c-142 0 -254 -106 -254 -258c0 -151 112 -259 254 -259c118 0 215 82 227 222h-250v29h284 c0 -156 -100 -279 -261 -279z"/>
<glyph horiz-adv-x="652" glyph-name="Gdotaccent.smcp.alt1" d="M348 -12c-161 0 -288 118 -288 287s127 287 288 287c87 0 156 -31 213 -87l-21 -23c-46 49 -116 81 -192 81c-142 0 -254 -106 -254 -258c0 -151 112 -259 254 -259c118 0 215 82 227 222h-250v29h284c0 -156 -100 -279 -261 -279zM351 616c-15 0 -29 13 -29 29 s14 29 29 29c16 0 29 -13 29 -29s-13 -29 -29 -29z"/>
<glyph horiz-adv-x="645" unicode="" glyph-name="Hbar.smcp" d="M548 0h-31v269h-387v-269h-32v411h-86v27h86v112h32v-112h387v112h31v-112h85v-27h-85v-411zM130 298h387v113h-387v-113z"/>
<glyph horiz-adv-x="622" unicode="" glyph-name="Hcircumflex.smcp" d="M426 606h-28l-91 120l-88 -120h-28l98 144h36zM536 0h-31v269h-387v-269h-32v550h32v-252h387v252h31v-550z"/>
<glyph horiz-adv-x="622" glyph-name="uni1E22.smcp" d="M536 0h-31v269h-387v-269h-32v550h32v-252h387v252h31v-550zM311 616c-15 0 -29 13 -29 29s14 29 29 29c16 0 29 -13 29 -29s-13 -29 -29 -29z"/>
<glyph horiz-adv-x="204" unicode="" glyph-name="Iacute.smcp" d="M256 750l-175 -144h-30l160 144h45zM118 0h-32v550h32v-550z"/>
<glyph horiz-adv-x="204" unicode="" glyph-name="Ibreve.smcp" d="M118 0h-32v550h32v-550zM273 682c-40 -54 -103 -88 -175 -88c-71 0 -135 34 -176 88l21 19c35 -49 90 -80 155 -80s120 31 155 80z"/>
<glyph horiz-adv-x="204" unicode="" glyph-name="Igrave.smcp" d="M118 0h-32v550h32v-550zM153 606h-30l-175 144h45z"/>
<glyph horiz-adv-x="204" unicode="" glyph-name="Icircumflex.smcp" d="M221 606h-28l-91 120l-88 -120h-28l98 144h36zM118 0h-32v550h32v-550z"/>
<glyph horiz-adv-x="204" unicode="" glyph-name="Idieresis.smcp" d="M232 648c0 -15 -13 -28 -28 -28s-28 13 -28 28s13 28 28 28s28 -13 28 -28zM30 648c0 -15 -13 -28 -28 -28s-28 13 -28 28s13 28 28 28s28 -13 28 -28zM118 0h-32v550h32v-550z"/>
<glyph horiz-adv-x="204" unicode="" glyph-name="Idotaccent.smcp" d="M118 0h-32v550h32v-550zM101 616c-15 0 -29 13 -29 29s14 29 29 29c16 0 29 -13 29 -29s-13 -29 -29 -29z"/>
<glyph horiz-adv-x="204" unicode="" glyph-name="Imacron.smcp" d="M285 631h-363v27h363v-27zM118 0h-32v550h32v-550z"/>
<glyph horiz-adv-x="204" unicode="" glyph-name="Iogonek.smcp" d="M118 0c-48 -23 -82 -55 -82 -102c0 -37 19 -57 52 -57c31 0 48 16 58 47l25 -11c-11 -31 -35 -63 -83 -63c-43 0 -81 25 -81 84c0 45 33 88 79 114v538h32v-550z"/>
<glyph horiz-adv-x="204" unicode="" glyph-name="Itilde.smcp" d="M118 0h-32v550h32v-550zM165 604c-77 0 -71 113 -128 113c-33 0 -59 -32 -59 -107h-26c0 72 31 134 88 134c77 0 71 -113 128 -113c33 0 59 32 59 107h26c0 -72 -31 -134 -88 -134z"/>
<glyph horiz-adv-x="204" glyph-name="uni1EC8.smcp" d="M118 0h-32v550h32v-550zM58 644l-21 6c8 26 29 53 67 53c34 0 65 -20 65 -67c0 -22 -7 -37 -22 -56h-27c19 19 26 38 26 56c0 29 -16 45 -42 45c-23 0 -38 -12 -46 -37z"/>
<glyph horiz-adv-x="204" glyph-name="uni1ECA.smcp" d="M118 0h-32v550h32v-550zM103 -173c-15 0 -29 13 -29 29s14 29 29 29c16 0 29 -13 29 -29s-13 -29 -29 -29z"/>
<glyph horiz-adv-x="616" unicode="" glyph-name="IJ.smcp" d="M362 -12c-63 0 -110 25 -146 75l24 21c27 -37 65 -67 122 -67c84 0 136 55 136 134v399h32v-399c0 -110 -77 -163 -168 -163zM118 0h-32v550h32v-550z"/>
<glyph horiz-adv-x="412" unicode="" glyph-name="Jcircumflex.smcp" d="M427 606h-28l-91 120l-88 -120h-28l98 144h36zM158 -12c-63 0 -110 25 -146 75l24 21c27 -37 65 -67 122 -67c84 0 136 55 136 134v399h32v-399c0 -110 -77 -163 -168 -163z"/>
<glyph horiz-adv-x="507" unicode="" glyph-name="Kcommaaccent.smcp" d="M297 -137c0 -50 -30 -98 -62 -121l-22 18c32 24 53 62 53 92c0 0 -6 -1 -8 -1c-19 0 -32 15 -32 33c0 17 13 32 32 32c21 0 39 -19 39 -53zM482 0h-43l-255 268l-66 -70v-198h-32v550h32v-312l295 312h43l-252 -263z"/>
<glyph horiz-adv-x="449" unicode="" glyph-name="Lacute.smcp" d="M406 0h-320v550h32v-521h288v-29zM400 750l-175 -144h-30l160 144h45z"/>
<glyph horiz-adv-x="449" unicode="" glyph-name="Lcaron.smcp" d="M285 507c0 -50 -30 -98 -62 -121l-22 18c32 24 53 62 53 92c0 0 -6 -1 -8 -1c-19 0 -32 15 -32 33c0 17 13 32 32 32c21 0 39 -19 39 -53zM406 0h-320v550h32v-521h288v-29z"/>
<glyph horiz-adv-x="449" unicode="" glyph-name="Lcommaaccent.smcp" d="M283 -137c0 -50 -30 -98 -62 -121l-22 18c32 24 53 62 53 92c0 0 -6 -1 -8 -1c-19 0 -32 15 -32 33c0 17 13 32 32 32c21 0 39 -19 39 -53zM406 0h-320v550h32v-521h288v-29z"/>
<glyph horiz-adv-x="449" unicode="" glyph-name="Ldot.smcp" d="M406 0h-320v550h32v-521h288v-29zM364 285c0 -18 -15 -33 -33 -33s-33 15 -33 33c0 17 15 32 33 32s33 -15 33 -32z"/>
<glyph horiz-adv-x="483" unicode="" glyph-name="Lslash.smcp" d="M12 198v34l108 63v255h32v-237l106 62v-34l-106 -62v-250h288v-29h-320v261z"/>
<glyph horiz-adv-x="618" unicode="" glyph-name="Nacute.smcp" d="M463 750l-175 -144h-30l160 144h45zM532 0h-30l-384 500v-500h-32v550h30l384 -495v495h32v-550z"/>
<glyph horiz-adv-x="618" unicode="" glyph-name="Ncaron.smcp" d="M329 606h-36l-101 144h28l91 -120l88 120h28zM532 0h-30l-384 500v-500h-32v550h30l384 -495v495h32v-550z"/>
<glyph horiz-adv-x="618" unicode="" glyph-name="Ncommaaccent.smcp" d="M343 -137c0 -50 -30 -98 -62 -121l-22 18c32 24 53 62 53 92c0 0 -6 -1 -8 -1c-19 0 -32 15 -32 33c0 17 13 32 32 32c21 0 39 -19 39 -53zM532 0h-30l-384 500v-500h-32v550h30l384 -495v495h32v-550z"/>
<glyph horiz-adv-x="618" unicode="" glyph-name="Ntilde.smcp" d="M532 0h-30l-384 500v-500h-32v550h30l384 -495v495h32v-550zM370 604c-77 0 -71 113 -128 113c-33 0 -59 -32 -59 -107h-26c0 72 31 134 88 134c77 0 71 -113 128 -113c33 0 59 32 59 107h26c0 -72 -31 -134 -88 -134z"/>
<glyph horiz-adv-x="618" unicode="" glyph-name="Eng.smcp" d="M364 -196c-63 0 -110 25 -146 75l24 21c27 -37 65 -67 122 -67c84 0 136 55 136 134v35l-382 498v-500h-32v550h30l384 -495v495h32v-583c0 -110 -77 -163 -168 -163z"/>
<glyph horiz-adv-x="669" unicode="" glyph-name="Oacute.smcp" d="M335 -12c-169 0 -275 128 -275 287s106 287 275 287c167 0 274 -128 274 -287s-107 -287 -274 -287zM335 17c145 0 240 111 240 258c0 149 -95 258 -240 258c-148 0 -241 -109 -241 -258c0 -147 93 -258 241 -258zM489 750l-175 -144h-30l160 144h45z"/>
<glyph horiz-adv-x="669" unicode="" glyph-name="Obreve.smcp" d="M335 -12c-169 0 -275 128 -275 287s106 287 275 287c167 0 274 -128 274 -287s-107 -287 -274 -287zM335 17c145 0 240 111 240 258c0 149 -95 258 -240 258c-148 0 -241 -109 -241 -258c0 -147 93 -258 241 -258zM512 682c-40 -54 -103 -88 -175 -88 c-71 0 -135 34 -176 88l21 19c35 -49 90 -80 155 -80s120 31 155 80z"/>
<glyph horiz-adv-x="669" unicode="" glyph-name="Ocircumflex.smcp" d="M335 -12c-169 0 -275 128 -275 287s106 287 275 287c167 0 274 -128 274 -287s-107 -287 -274 -287zM335 17c145 0 240 111 240 258c0 149 -95 258 -240 258c-148 0 -241 -109 -241 -258c0 -147 93 -258 241 -258zM454 606h-28l-91 120l-88 -120h-28l98 144h36z"/>
<glyph horiz-adv-x="669" unicode="" glyph-name="Odieresis.smcp" d="M335 -12c-169 0 -275 128 -275 287s106 287 275 287c167 0 274 -128 274 -287s-107 -287 -274 -287zM335 17c145 0 240 111 240 258c0 149 -95 258 -240 258c-148 0 -241 -109 -241 -258c0 -147 93 -258 241 -258zM465 648c0 -15 -13 -28 -28 -28s-28 13 -28 28 s13 28 28 28s28 -13 28 -28zM263 648c0 -15 -13 -28 -28 -28s-28 13 -28 28s13 28 28 28s28 -13 28 -28z"/>
<glyph horiz-adv-x="669" unicode="" glyph-name="Ograve.smcp" d="M335 -12c-169 0 -275 128 -275 287s106 287 275 287c167 0 274 -128 274 -287s-107 -287 -274 -287zM335 17c145 0 240 111 240 258c0 149 -95 258 -240 258c-148 0 -241 -109 -241 -258c0 -147 93 -258 241 -258zM386 606h-30l-175 144h45z"/>
<glyph horiz-adv-x="669" unicode="" glyph-name="Ohungarumlaut.smcp" d="M335 -12c-169 0 -275 128 -275 287s106 287 275 287c167 0 274 -128 274 -287s-107 -287 -274 -287zM335 17c145 0 240 111 240 258c0 149 -95 258 -240 258c-148 0 -241 -109 -241 -258c0 -147 93 -258 241 -258zM380 750l-115 -144h-26l100 144h41zM516 750l-115 -144 h-26l100 144h41z"/>
<glyph horiz-adv-x="669" unicode="" glyph-name="Omacron.smcp" d="M335 -12c-169 0 -275 128 -275 287s106 287 275 287c167 0 274 -128 274 -287s-107 -287 -274 -287zM335 17c145 0 240 111 240 258c0 149 -95 258 -240 258c-148 0 -241 -109 -241 -258c0 -147 93 -258 241 -258zM516 631h-363v27h363v-27z"/>
<glyph horiz-adv-x="669" unicode="" glyph-name="Otilde.smcp" d="M335 -12c-169 0 -275 128 -275 287s106 287 275 287c167 0 274 -128 274 -287s-107 -287 -274 -287zM335 17c145 0 240 111 240 258c0 149 -95 258 -240 258c-148 0 -241 -109 -241 -258c0 -147 93 -258 241 -258zM400 604c-77 0 -71 113 -128 113 c-33 0 -59 -32 -59 -107h-26c0 72 31 134 88 134c77 0 71 -113 128 -113c33 0 59 32 59 107h26c0 -72 -31 -134 -88 -134z"/>
<glyph horiz-adv-x="669" unicode="" glyph-name="Oslash.smcp" d="M335 -12c-60 0 -112 16 -154 44l-22 -32h-36l34 49c-62 53 -97 134 -97 226c0 159 106 287 275 287c57 0 108 -15 149 -42l21 30h36l-33 -47c64 -53 101 -135 101 -228c0 -159 -107 -287 -274 -287zM335 17c145 0 240 111 240 258c0 85 -31 157 -84 203l-293 -421 c37 -26 83 -40 137 -40zM94 275c0 -83 29 -154 81 -200l292 421c-36 24 -81 37 -132 37c-148 0 -241 -109 -241 -258z"/>
<glyph horiz-adv-x="669" unicode="" glyph-name="Oslashacute.smcp" d="M335 -12c-60 0 -112 16 -154 44l-22 -32h-36l34 49c-62 53 -97 134 -97 226c0 159 106 287 275 287c57 0 108 -15 149 -42l21 30h36l-33 -47c64 -53 101 -135 101 -228c0 -159 -107 -287 -274 -287zM335 17c145 0 240 111 240 258c0 85 -31 157 -84 203l-293 -421 c37 -26 83 -40 137 -40zM94 275c0 -83 29 -154 81 -200l292 421c-36 24 -81 37 -132 37c-148 0 -241 -109 -241 -258zM489 750l-175 -144h-30l160 144h45z"/>
<glyph horiz-adv-x="669" glyph-name="uni1ECC.smcp" d="M335 -12c-169 0 -275 128 -275 287s106 287 275 287c167 0 274 -128 274 -287s-107 -287 -274 -287zM335 17c145 0 240 111 240 258c0 149 -95 258 -240 258c-148 0 -241 -109 -241 -258c0 -147 93 -258 241 -258zM336 -173c-15 0 -29 13 -29 29s14 29 29 29 c16 0 29 -13 29 -29s-13 -29 -29 -29z"/>
<glyph horiz-adv-x="669" glyph-name="uni1ECE.smcp" d="M335 -12c-169 0 -275 128 -275 287s106 287 275 287c167 0 274 -128 274 -287s-107 -287 -274 -287zM335 17c145 0 240 111 240 258c0 149 -95 258 -240 258c-148 0 -241 -109 -241 -258c0 -147 93 -258 241 -258zM291 649l-21 6c8 26 29 53 67 53c34 0 65 -20 65 -67 c0 -22 -7 -37 -22 -56h-27c19 19 26 38 26 56c0 29 -16 45 -42 45c-23 0 -38 -12 -46 -37z"/>
<glyph horiz-adv-x="669" glyph-name="uni1ED0.smcp" d="M335 -12c-169 0 -275 128 -275 287s106 287 275 287c167 0 274 -128 274 -287s-107 -287 -274 -287zM335 17c145 0 240 111 240 258c0 149 -95 258 -240 258c-148 0 -241 -109 -241 -258c0 -147 93 -258 241 -258zM453 606h-28l-91 120l-88 -120h-28l98 144h36zM619 820 l-175 -144h-30l160 144h45z"/>
<glyph horiz-adv-x="669" glyph-name="uni1ED2.smcp" d="M335 -12c-169 0 -275 128 -275 287s106 287 275 287c167 0 274 -128 274 -287s-107 -287 -274 -287zM335 17c145 0 240 111 240 258c0 149 -95 258 -240 258c-148 0 -241 -109 -241 -258c0 -147 93 -258 241 -258zM453 606h-28l-91 120l-88 -120h-28l98 144h36zM254 676 h-30l-175 144h45z"/>
<glyph horiz-adv-x="669" glyph-name="uni1ED4.smcp" d="M335 -12c-169 0 -275 128 -275 287s106 287 275 287c167 0 274 -128 274 -287s-107 -287 -274 -287zM335 17c145 0 240 111 240 258c0 149 -95 258 -240 258c-148 0 -241 -109 -241 -258c0 -147 93 -258 241 -258zM453 606h-28l-91 120l-88 -120h-28l98 144h36zM367 781 l-21 6c8 26 29 53 67 53c34 0 65 -20 65 -67c0 -22 -7 -37 -22 -56h-27c19 19 26 38 26 56c0 29 -16 45 -42 45c-23 0 -38 -12 -46 -37z"/>
<glyph horiz-adv-x="669" glyph-name="uni1ED6.smcp" d="M335 -12c-169 0 -275 128 -275 287s106 287 275 287c167 0 274 -128 274 -287s-107 -287 -274 -287zM335 17c145 0 240 111 240 258c0 149 -95 258 -240 258c-148 0 -241 -109 -241 -258c0 -147 93 -258 241 -258zM454 573h-28l-91 120l-88 -120h-28l98 144h36zM398 732 c-77 0 -71 113 -128 113c-33 0 -59 -32 -59 -107h-26c0 72 31 134 88 134c77 0 71 -113 128 -113c33 0 59 32 59 107h26c0 -72 -31 -134 -88 -134z"/>
<glyph horiz-adv-x="669" glyph-name="uni1ED8.smcp" d="M335 -12c-169 0 -275 128 -275 287s106 287 275 287c167 0 274 -128 274 -287s-107 -287 -274 -287zM335 17c145 0 240 111 240 258c0 149 -95 258 -240 258c-148 0 -241 -109 -241 -258c0 -147 93 -258 241 -258zM455 606h-28l-91 120l-88 -120h-28l98 144h36zM339 -173 c-15 0 -29 13 -29 29s14 29 29 29c16 0 29 -13 29 -29s-13 -29 -29 -29z"/>
<glyph horiz-adv-x="669" glyph-name="Ohorn.smcp" d="M335 -12c-169 0 -275 128 -275 287s106 287 275 287c96 0 173 -43 220 -110c26 24 42 56 42 83c0 0 -6 -1 -8 -1c-19 0 -32 15 -32 33c0 17 13 32 32 32c21 0 39 -19 39 -53c0 -48 -27 -94 -58 -118c25 -44 39 -97 39 -153c0 -159 -107 -287 -274 -287zM335 17 c145 0 240 111 240 258c0 149 -95 258 -240 258c-148 0 -241 -109 -241 -258c0 -147 93 -258 241 -258z"/>
<glyph horiz-adv-x="669" glyph-name="uni1EDA.smcp" d="M335 -12c-169 0 -275 128 -275 287s106 287 275 287c96 0 173 -43 220 -110c26 24 42 56 42 83c0 0 -6 -1 -8 -1c-19 0 -32 15 -32 33c0 17 13 32 32 32c21 0 39 -19 39 -53c0 -48 -27 -94 -58 -118c25 -44 39 -97 39 -153c0 -159 -107 -287 -274 -287zM335 17 c145 0 240 111 240 258c0 149 -95 258 -240 258c-148 0 -241 -109 -241 -258c0 -147 93 -258 241 -258zM489 750l-175 -144h-30l160 144h45z"/>
<glyph horiz-adv-x="669" glyph-name="uni1EDC.smcp" d="M335 -12c-169 0 -275 128 -275 287s106 287 275 287c96 0 173 -43 220 -110c26 24 42 56 42 83c0 0 -6 -1 -8 -1c-19 0 -32 15 -32 33c0 17 13 32 32 32c21 0 39 -19 39 -53c0 -48 -27 -94 -58 -118c25 -44 39 -97 39 -153c0 -159 -107 -287 -274 -287zM335 17 c145 0 240 111 240 258c0 149 -95 258 -240 258c-148 0 -241 -109 -241 -258c0 -147 93 -258 241 -258zM386 606h-30l-175 144h45z"/>
<glyph horiz-adv-x="669" glyph-name="uni1EDE.smcp" d="M335 -12c-169 0 -275 128 -275 287s106 287 275 287c96 0 173 -43 220 -110c26 24 42 56 42 83c0 0 -6 -1 -8 -1c-19 0 -32 15 -32 33c0 17 13 32 32 32c21 0 39 -19 39 -53c0 -48 -27 -94 -58 -118c25 -44 39 -97 39 -153c0 -159 -107 -287 -274 -287zM335 17 c145 0 240 111 240 258c0 149 -95 258 -240 258c-148 0 -241 -109 -241 -258c0 -147 93 -258 241 -258zM291 649l-21 6c8 26 29 53 67 53c34 0 65 -20 65 -67c0 -22 -7 -37 -22 -56h-27c19 19 26 38 26 56c0 29 -16 45 -42 45c-23 0 -38 -12 -46 -37z"/>
<glyph horiz-adv-x="669" glyph-name="uni1EE0.smcp" d="M335 -12c-169 0 -275 128 -275 287s106 287 275 287c96 0 173 -43 220 -110c26 24 42 56 42 83c0 0 -6 -1 -8 -1c-19 0 -32 15 -32 33c0 17 13 32 32 32c21 0 39 -19 39 -53c0 -48 -27 -94 -58 -118c25 -44 39 -97 39 -153c0 -159 -107 -287 -274 -287zM335 17 c145 0 240 111 240 258c0 149 -95 258 -240 258c-148 0 -241 -109 -241 -258c0 -147 93 -258 241 -258zM399 604c-77 0 -71 113 -128 113c-33 0 -59 -32 -59 -107h-26c0 72 31 134 88 134c77 0 71 -113 128 -113c33 0 59 32 59 107h26c0 -72 -31 -134 -88 -134z"/>
<glyph horiz-adv-x="669" glyph-name="uni1EE2.smcp" d="M335 -12c-169 0 -275 128 -275 287s106 287 275 287c96 0 173 -43 220 -110c26 24 42 56 42 83c0 0 -6 -1 -8 -1c-19 0 -32 15 -32 33c0 17 13 32 32 32c21 0 39 -19 39 -53c0 -48 -27 -94 -58 -118c25 -44 39 -97 39 -153c0 -159 -107 -287 -274 -287zM335 17 c145 0 240 111 240 258c0 149 -95 258 -240 258c-148 0 -241 -109 -241 -258c0 -147 93 -258 241 -258zM336 -173c-15 0 -29 13 -29 29s14 29 29 29c16 0 29 -13 29 -29s-13 -29 -29 -29z"/>
<glyph horiz-adv-x="974" unicode="" glyph-name="OE.smcp" d="M914 0h-355v126c-45 -92 -125 -138 -224 -138c-169 0 -275 128 -275 287s106 287 275 287c99 0 179 -46 224 -137v125h355v-29h-323v-223h317v-29h-317v-240h323v-29zM559 189v174c-36 122 -131 170 -224 170c-148 0 -241 -109 -241 -258c0 -147 93 -258 241 -258 c98 0 188 50 224 172z"/>
<glyph horiz-adv-x="496" glyph-name="uni1E56.smcp" d="M118 0h-32v550h200c115 0 170 -73 170 -157c0 -85 -56 -158 -170 -158h-168v-235zM286 264c92 0 136 55 136 129s-46 128 -136 128h-168v-257h168zM267 616c-15 0 -29 13 -29 29s14 29 29 29c16 0 29 -13 29 -29s-13 -29 -29 -29z"/>
<glyph horiz-adv-x="521" unicode="" glyph-name="Racute.smcp" d="M421 750l-175 -144h-30l160 144h45zM467 0h-42l-173 235h-134v-235h-32v550h200c110 0 171 -67 171 -157c0 -91 -61 -157 -167 -158zM286 264c92 0 137 54 137 129s-48 128 -137 128h-168v-257h168z"/>
<glyph horiz-adv-x="521" unicode="" glyph-name="Rcaron.smcp" d="M272 606h-36l-101 144h28l91 -120l88 120h28zM467 0h-42l-173 235h-134v-235h-32v550h200c110 0 171 -67 171 -157c0 -91 -61 -157 -167 -158zM286 264c92 0 137 54 137 129s-48 128 -137 128h-168v-257h168z"/>
<glyph horiz-adv-x="521" unicode="" glyph-name="Rcommaaccent.smcp" d="M298 -137c0 -50 -30 -98 -62 -121l-22 18c32 24 53 62 53 92c0 0 -6 -1 -8 -1c-19 0 -32 15 -32 33c0 17 13 32 32 32c21 0 39 -19 39 -53zM467 0h-42l-173 235h-134v-235h-32v550h200c110 0 171 -67 171 -157c0 -91 -61 -157 -167 -158zM286 264c92 0 137 54 137 129 s-48 128 -137 128h-168v-257h168z"/>
<glyph horiz-adv-x="494" unicode="" glyph-name="Sacute.smcp" d="M399 750l-175 -144h-30l160 144h45zM248 -12c-90 0 -161 37 -203 89l26 21c35 -41 96 -81 177 -81c121 0 165 62 165 125c0 181 -351 84 -351 276c0 90 85 144 181 144c85 0 147 -31 189 -79l-23 -21c-41 51 -100 71 -166 71c-82 0 -147 -49 -147 -115 c0 -153 351 -69 351 -276c0 -81 -57 -154 -199 -154z"/>
<glyph horiz-adv-x="494" unicode="" glyph-name="Scaron.smcp" d="M267 606h-36l-101 144h28l91 -120l88 120h28zM248 -12c-90 0 -161 37 -203 89l26 21c35 -41 96 -81 177 -81c121 0 165 62 165 125c0 181 -351 84 -351 276c0 90 85 144 181 144c85 0 147 -31 189 -79l-23 -21c-41 51 -100 71 -166 71c-82 0 -147 -49 -147 -115 c0 -153 351 -69 351 -276c0 -81 -57 -154 -199 -154z"/>
<glyph horiz-adv-x="494" unicode="" glyph-name="Scircumflex.smcp" d="M365 606h-28l-91 120l-88 -120h-28l98 144h36zM248 -12c-90 0 -161 37 -203 89l26 21c35 -41 96 -81 177 -81c121 0 165 62 165 125c0 181 -351 84 -351 276c0 90 85 144 181 144c85 0 147 -31 189 -79l-23 -21c-41 51 -100 71 -166 71c-82 0 -147 -49 -147 -115 c0 -153 351 -69 351 -276c0 -81 -57 -154 -199 -154z"/>
<glyph horiz-adv-x="494" unicode="" glyph-name="Scedilla.smcp" d="M245 -187c-38 0 -74 13 -93 28l14 27c24 -21 52 -28 79 -28c37 0 69 18 69 49c0 26 -14 43 -44 43c-16 0 -33 -7 -43 -19l-22 13l23 63c-81 5 -144 40 -183 88l26 21c35 -41 96 -81 177 -81c121 0 165 62 165 125c0 181 -351 84 -351 276c0 90 85 144 181 144 c85 0 147 -31 189 -79l-23 -21c-41 51 -100 71 -166 71c-82 0 -147 -49 -147 -115c0 -153 351 -69 351 -276c0 -79 -55 -151 -190 -154l-17 -46c10 8 25 12 38 12c39 0 65 -25 65 -65c0 -45 -43 -76 -98 -76z"/>
<glyph horiz-adv-x="494" unicode="" glyph-name="Scommaaccent.smcp" d="M290 -137c0 -50 -30 -98 -62 -121l-22 18c32 24 53 62 53 92c0 0 -6 -1 -8 -1c-19 0 -32 15 -32 33c0 17 13 32 32 32c21 0 39 -19 39 -53zM248 -12c-90 0 -161 37 -203 89l26 21c35 -41 96 -81 177 -81c121 0 165 62 165 125c0 181 -351 84 -351 276 c0 90 85 144 181 144c85 0 147 -31 189 -79l-23 -21c-41 51 -100 71 -166 71c-82 0 -147 -49 -147 -115c0 -153 351 -69 351 -276c0 -81 -57 -154 -199 -154z"/>
<glyph horiz-adv-x="494" glyph-name="uni1E60.smcp" d="M248 -12c-90 0 -161 37 -203 89l26 21c35 -41 96 -81 177 -81c121 0 165 62 165 125c0 181 -351 84 -351 276c0 90 85 144 181 144c85 0 147 -31 189 -79l-23 -21c-41 51 -100 71 -166 71c-82 0 -147 -49 -147 -115c0 -153 351 -69 351 -276c0 -81 -57 -154 -199 -154z M252 616c-15 0 -29 13 -29 29s14 29 29 29c16 0 29 -13 29 -29s-13 -29 -29 -29z"/>
<glyph horiz-adv-x="459" unicode="" glyph-name="Tbar.smcp" d="M245 0h-32v271h-128v27h128v223h-182v29h397v-29h-183v-223h130v-27h-130v-271z"/>
<glyph horiz-adv-x="459" unicode="" glyph-name="Tcaron.smcp" d="M249 606h-36l-101 144h28l91 -120l88 120h28zM245 0h-32v521h-182v29h397v-29h-183v-521z"/>
<glyph horiz-adv-x="459" unicode="" glyph-name="Tcommaaccent.smcp" d="M268 -137c0 -50 -30 -98 -62 -121l-22 18c32 24 53 62 53 92c0 0 -6 -1 -8 -1c-19 0 -32 15 -32 33c0 17 13 32 32 32c21 0 39 -19 39 -53zM245 0h-32v521h-182v29h397v-29h-183v-521z"/>
<glyph horiz-adv-x="459" glyph-name="uni021A.smcp" d="M268 -137c0 -50 -30 -98 -62 -121l-22 18c32 24 53 62 53 92c0 0 -6 -1 -8 -1c-19 0 -32 15 -32 33c0 17 13 32 32 32c21 0 39 -19 39 -53zM245 0h-32v521h-182v29h397v-29h-183v-521z"/>
<glyph horiz-adv-x="459" glyph-name="uni1E6A.smcp" d="M245 0h-32v521h-182v29h397v-29h-183v-521zM229 616c-15 0 -29 13 -29 29s14 29 29 29c16 0 29 -13 29 -29s-13 -29 -29 -29z"/>
<glyph horiz-adv-x="603" unicode="" glyph-name="Uacute.smcp" d="M455 750l-175 -144h-30l160 144h45zM301 -12c-141 0 -215 84 -215 219v343h32v-343c0 -119 64 -190 183 -190s184 71 184 190v343h32v-343c0 -136 -75 -219 -216 -219z"/>
<glyph horiz-adv-x="603" unicode="" glyph-name="Ubreve.smcp" d="M301 -12c-141 0 -215 84 -215 219v343h32v-343c0 -119 64 -190 183 -190s184 71 184 190v343h32v-343c0 -136 -75 -219 -216 -219zM475 682c-40 -54 -103 -88 -175 -88c-71 0 -135 34 -176 88l21 19c35 -49 90 -80 155 -80s120 31 155 80z"/>
<glyph horiz-adv-x="603" unicode="" glyph-name="Ucircumflex.smcp" d="M419 606h-28l-91 120l-88 -120h-28l98 144h36zM301 -12c-141 0 -215 84 -215 219v343h32v-343c0 -119 64 -190 183 -190s184 71 184 190v343h32v-343c0 -136 -75 -219 -216 -219z"/>
<glyph horiz-adv-x="603" unicode="" glyph-name="Udieresis.smcp" d="M430 648c0 -15 -13 -28 -28 -28s-28 13 -28 28s13 28 28 28s28 -13 28 -28zM228 648c0 -15 -13 -28 -28 -28s-28 13 -28 28s13 28 28 28s28 -13 28 -28zM301 -12c-141 0 -215 84 -215 219v343h32v-343c0 -119 64 -190 183 -190s184 71 184 190v343h32v-343 c0 -136 -75 -219 -216 -219z"/>
<glyph horiz-adv-x="603" unicode="" glyph-name="Ugrave.smcp" d="M301 -12c-141 0 -215 84 -215 219v343h32v-343c0 -119 64 -190 183 -190s184 71 184 190v343h32v-343c0 -136 -75 -219 -216 -219zM352 606h-30l-175 144h45z"/>
<glyph horiz-adv-x="603" unicode="" glyph-name="Uhungarumlaut.smcp" d="M301 -12c-141 0 -215 84 -215 219v343h32v-343c0 -119 64 -190 183 -190s184 71 184 190v343h32v-343c0 -136 -75 -219 -216 -219zM344 750l-115 -144h-26l100 144h41zM480 750l-115 -144h-26l100 144h41z"/>
<glyph horiz-adv-x="603" unicode="" glyph-name="Umacron.smcp" d="M301 -12c-141 0 -215 84 -215 219v343h32v-343c0 -119 64 -190 183 -190s184 71 184 190v343h32v-343c0 -136 -75 -219 -216 -219zM485 631h-363v27h363v-27z"/>
<glyph horiz-adv-x="603" unicode="" glyph-name="Uogonek.smcp" d="M413 -112l25 -11c-11 -31 -35 -63 -83 -63c-43 0 -81 25 -81 84c0 33 18 66 46 91c-6 -1 -13 -1 -19 -1c-141 0 -215 84 -215 219v343h32v-343c0 -119 64 -190 183 -190s184 71 184 190v343h32v-343c0 -106 -46 -180 -132 -207c-48 -23 -82 -55 -82 -102 c0 -37 19 -57 52 -57c31 0 48 16 58 47z"/>
<glyph horiz-adv-x="603" unicode="" glyph-name="Uring.smcp" d="M301 -12c-141 0 -215 84 -215 219v343h32v-343c0 -119 64 -190 183 -190s184 71 184 190v343h32v-343c0 -136 -75 -219 -216 -219zM304 575c-51 0 -93 42 -93 93s42 93 93 93s92 -42 92 -93s-41 -93 -92 -93zM304 599c38 0 68 31 68 69s-30 69 -68 69s-69 -31 -69 -69 s31 -69 69 -69z"/>
<glyph horiz-adv-x="603" unicode="" glyph-name="Utilde.smcp" d="M301 -12c-141 0 -215 84 -215 219v343h32v-343c0 -119 64 -190 183 -190s184 71 184 190v343h32v-343c0 -136 -75 -219 -216 -219zM364 604c-77 0 -71 113 -128 113c-33 0 -59 -32 -59 -107h-26c0 72 31 134 88 134c77 0 71 -113 128 -113c33 0 59 32 59 107h26 c0 -72 -31 -134 -88 -134z"/>
<glyph horiz-adv-x="603" glyph-name="uni1EE4.smcp" d="M301 -12c-141 0 -215 84 -215 219v343h32v-343c0 -119 64 -190 183 -190s184 71 184 190v343h32v-343c0 -136 -75 -219 -216 -219zM302 -173c-15 0 -29 13 -29 29s14 29 29 29c16 0 29 -13 29 -29s-13 -29 -29 -29z"/>
<glyph horiz-adv-x="603" glyph-name="Uhorn.smcp" d="M301 -12c-141 0 -215 84 -215 219v343h32v-343c0 -119 64 -190 183 -190s184 71 184 190v343h32v-60c48 22 86 67 86 112c0 0 -6 -1 -8 -1c-19 0 -32 15 -32 33c0 17 13 32 32 32c21 0 39 -19 39 -53c0 -67 -48 -126 -117 -151v-255c0 -136 -75 -219 -216 -219z"/>
<glyph horiz-adv-x="603" glyph-name="uni1EE6.smcp" d="M301 -12c-141 0 -215 84 -215 219v343h32v-343c0 -119 64 -190 183 -190s184 71 184 190v343h32v-343c0 -136 -75 -219 -216 -219zM256 644l-21 6c8 26 29 53 67 53c34 0 65 -20 65 -67c0 -22 -7 -37 -22 -56h-27c19 19 26 38 26 56c0 29 -16 45 -42 45 c-23 0 -38 -12 -46 -37z"/>
<glyph horiz-adv-x="603" glyph-name="uni1EE8.smcp" d="M455 750l-175 -144h-30l160 144h45zM301 -12c-141 0 -215 84 -215 219v343h32v-343c0 -119 64 -190 183 -190s184 71 184 190v343h32v-60c48 22 86 67 86 112c0 0 -6 -1 -8 -1c-19 0 -32 15 -32 33c0 17 13 32 32 32c21 0 39 -19 39 -53c0 -67 -48 -126 -117 -151v-255 c0 -136 -75 -219 -216 -219z"/>
<glyph horiz-adv-x="603" glyph-name="uni1EEA.smcp" d="M352 606h-30l-175 144h45zM301 -12c-141 0 -215 84 -215 219v343h32v-343c0 -119 64 -190 183 -190s184 71 184 190v343h32v-60c48 22 86 67 86 112c0 0 -6 -1 -8 -1c-19 0 -32 15 -32 33c0 17 13 32 32 32c21 0 39 -19 39 -53c0 -67 -48 -126 -117 -151v-255 c0 -136 -75 -219 -216 -219z"/>
<glyph horiz-adv-x="603" glyph-name="uni1EEC.smcp" d="M256 644l-21 6c8 26 29 53 67 53c34 0 65 -20 65 -67c0 -22 -7 -37 -22 -56h-27c19 19 26 38 26 56c0 29 -16 45 -42 45c-23 0 -38 -12 -46 -37zM301 -12c-141 0 -215 84 -215 219v343h32v-343c0 -119 64 -190 183 -190s184 71 184 190v343h32v-60c48 22 86 67 86 112 c0 0 -6 -1 -8 -1c-19 0 -32 15 -32 33c0 17 13 32 32 32c21 0 39 -19 39 -53c0 -67 -48 -126 -117 -151v-255c0 -136 -75 -219 -216 -219z"/>
<glyph horiz-adv-x="603" glyph-name="uni1EEE.smcp" d="M301 -12c-141 0 -215 84 -215 219v343h32v-343c0 -119 64 -190 183 -190s184 71 184 190v343h32v-60c48 22 86 67 86 112c0 0 -6 -1 -8 -1c-19 0 -32 15 -32 33c0 17 13 32 32 32c21 0 39 -19 39 -53c0 -67 -48 -126 -117 -151v-255c0 -136 -75 -219 -216 -219zM364 604 c-77 0 -71 113 -128 113c-33 0 -59 -32 -59 -107h-26c0 72 31 134 88 134c77 0 71 -113 128 -113c33 0 59 32 59 107h26c0 -72 -31 -134 -88 -134z"/>
<glyph horiz-adv-x="603" glyph-name="uni1EF0.smcp" d="M301 -173c-15 0 -29 13 -29 29s14 29 29 29c16 0 29 -13 29 -29s-13 -29 -29 -29zM301 -12c-141 0 -215 84 -215 219v343h32v-343c0 -119 64 -190 183 -190s184 71 184 190v343h32v-60c48 22 86 67 86 112c0 0 -6 -1 -8 -1c-19 0 -32 15 -32 33c0 17 13 32 32 32 c21 0 39 -19 39 -53c0 -67 -48 -126 -117 -151v-255c0 -136 -75 -219 -216 -219z"/>
<glyph horiz-adv-x="735" glyph-name="Wacute.smcp" d="M550 0h-34l-149 494l-148 -494h-35l-164 550h34l147 -500l150 500h33l149 -501l148 501h34zM521 750l-175 -144h-30l160 144h45z"/>
<glyph horiz-adv-x="735" unicode="" glyph-name="Wcircumflex.smcp" d="M485 606h-28l-91 120l-88 -120h-28l98 144h36zM550 0h-34l-149 494l-148 -494h-35l-164 550h34l147 -500l150 500h33l149 -501l148 501h34z"/>
<glyph horiz-adv-x="735" glyph-name="Wdieresis.smcp" d="M550 0h-34l-149 494l-148 -494h-35l-164 550h34l147 -500l150 500h33l149 -501l148 501h34zM496 648c0 -15 -13 -28 -28 -28s-28 13 -28 28s13 28 28 28s28 -13 28 -28zM294 648c0 -15 -13 -28 -28 -28s-28 13 -28 28s13 28 28 28s28 -13 28 -28z"/>
<glyph horiz-adv-x="735" glyph-name="Wgrave.smcp" d="M550 0h-34l-149 494l-148 -494h-35l-164 550h34l147 -500l150 500h33l149 -501l148 501h34zM418 606h-30l-175 144h45z"/>
<glyph horiz-adv-x="531" unicode="" glyph-name="Yacute.smcp" d="M422 750l-175 -144h-30l160 144h45zM284 0h-32v238l-235 312h41l210 -282l206 282h40l-230 -312v-238z"/>
<glyph horiz-adv-x="531" unicode="" glyph-name="Ycircumflex.smcp" d="M386 606h-28l-91 120l-88 -120h-28l98 144h36zM284 0h-32v238l-235 312h41l210 -282l206 282h40l-230 -312v-238z"/>
<glyph horiz-adv-x="531" unicode="" glyph-name="Ydieresis.smcp" d="M397 648c0 -15 -13 -28 -28 -28s-28 13 -28 28s13 28 28 28s28 -13 28 -28zM195 648c0 -15 -13 -28 -28 -28s-28 13 -28 28s13 28 28 28s28 -13 28 -28zM284 0h-32v238l-235 312h41l210 -282l206 282h40l-230 -312v-238z"/>
<glyph horiz-adv-x="531" glyph-name="Ygrave.smcp" d="M284 0h-32v238l-235 312h41l210 -282l206 282h40l-230 -312v-238zM319 606h-30l-175 144h45z"/>
<glyph horiz-adv-x="510" unicode="" glyph-name="Zacute.smcp" d="M409 750l-175 -144h-30l160 144h45zM467 0h-424v27l379 494h-379v29h417v-28l-379 -493h386v-29z"/>
<glyph horiz-adv-x="510" unicode="" glyph-name="Zcaron.smcp" d="M271 606h-36l-101 144h28l91 -120l88 120h28zM467 0h-424v27l379 494h-379v29h417v-28l-379 -493h386v-29z"/>
<glyph horiz-adv-x="510" unicode="" glyph-name="Zdotaccent.smcp" d="M467 0h-424v27l379 494h-379v29h417v-28l-379 -493h386v-29zM259 616c-15 0 -29 13 -29 29s14 29 29 29c16 0 29 -13 29 -29s-13 -29 -29 -29z"/>
<glyph horiz-adv-x="618" unicode="" glyph-name="Eth.smcp" d="M255 0h-172v268h-71v27h71v255h172c179 0 288 -129 288 -276c0 -148 -109 -274 -288 -274zM266 268h-151v-239h140c161 0 253 108 253 245c0 136 -92 247 -253 247h-140v-226h151v-27z"/>
<glyph horiz-adv-x="496" unicode="" glyph-name="Thorn.smcp" d="M118 0h-32v550h32v-102h168c115 0 170 -73 170 -157c0 -85 -56 -158 -170 -158h-168v-133zM286 162c92 0 136 55 136 129c0 73 -44 128 -136 128h-168v-257h168z"/>
<glyph horiz-adv-x="205" unicode="´" glyph-name="acute" d="M205 700l-175 -144h-30l160 144h45z"/>
<glyph horiz-adv-x="252" unicode="¨" glyph-name="dieresis" d="M255 598c0 -15 -13 -28 -28 -28s-28 13 -28 28s13 28 28 28s28 -13 28 -28zM53 598c0 -15 -13 -28 -28 -28s-28 13 -28 28s13 28 28 28s28 -13 28 -28z"/>
<glyph horiz-adv-x="205" unicode="`" glyph-name="grave" d="M205 556h-30l-175 144h45z"/>
<glyph horiz-adv-x="205" unicode="ˋ" glyph-name="uni02CB" d="M205 556h-30l-175 144h45z"/>
<glyph horiz-adv-x="235" unicode="ˆ" glyph-name="circumflex" d="M235 556h-28l-91 120l-88 -120h-28l98 144h36z"/>
<glyph horiz-adv-x="301" unicode="˜" glyph-name="tilde" d="M213 554c-77 0 -71 113 -128 113c-33 0 -59 -32 -59 -107h-26c0 72 31 134 88 134c77 0 71 -113 128 -113c33 0 59 32 59 107h26c0 -72 -31 -134 -88 -134z"/>
<glyph horiz-adv-x="363" unicode="¯" glyph-name="macron" d="M363 581h-363v27h363v-27z"/>
<glyph horiz-adv-x="363" unicode="‾" glyph-name="uni203E" d="M363 581h-363v27h363v-27z"/>
<glyph horiz-adv-x="351" unicode="˘" glyph-name="breve" d="M351 632c-40 -54 -103 -88 -175 -88c-71 0 -135 34 -176 88l21 19c35 -49 90 -80 155 -80s120 31 155 80z"/>
<glyph horiz-adv-x="58" unicode="˙" glyph-name="dotaccent" d="M29 566c-15 0 -29 13 -29 29s14 29 29 29c16 0 29 -13 29 -29s-13 -29 -29 -29z"/>
<glyph horiz-adv-x="185" unicode="˚" glyph-name="ring" d="M93 553c-51 0 -93 42 -93 93s42 93 93 93s92 -42 92 -93s-41 -93 -92 -93zM93 577c38 0 68 31 68 69s-30 69 -68 69s-69 -31 -69 -69s31 -69 69 -69z"/>
<glyph horiz-adv-x="191" unicode="¸" glyph-name="cedilla" d="M93 -187c-38 0 -74 13 -93 28l14 27c24 -21 52 -28 79 -28c37 0 69 18 69 49c0 26 -14 43 -44 43c-16 0 -33 -7 -43 -19l-22 13l31 85h30l-26 -69c10 8 25 12 38 12c39 0 65 -25 65 -65c0 -45 -43 -76 -98 -76z"/>
<glyph horiz-adv-x="277" unicode="˝" glyph-name="hungarumlaut" d="M141 700l-115 -144h-26l100 144h41zM277 700l-115 -144h-26l100 144h41z"/>
<glyph horiz-adv-x="164" unicode="˛" glyph-name="ogonek" d="M139 -112l25 -11c-11 -31 -35 -63 -83 -63c-43 0 -81 25 -81 84c0 48 38 94 88 119l23 -17c-48 -23 -82 -55 -82 -102c0 -37 19 -57 52 -57c31 0 48 16 58 47z"/>
<glyph horiz-adv-x="235" unicode="ˇ" glyph-name="caron" d="M137 556h-36l-101 144h28l91 -120l88 120h28z"/>
<glyph horiz-adv-x="208" unicode="" glyph-name="commaaccent" d="M142 -137c0 -50 -30 -98 -62 -121l-22 18c32 24 53 62 53 92c0 0 -6 -1 -8 -1c-19 0 -32 15 -32 33c0 17 13 32 32 32c21 0 39 -19 39 -53z"/>
<glyph horiz-adv-x="363" unicode="ˉ" glyph-name="uni02C9" d="M363 591h-363v27h363v-27z"/>
<glyph horiz-adv-x="164" unicode="̉" glyph-name="hookabovecomb" d="M37 731l-21 6c8 26 29 53 67 53c34 0 65 -20 65 -67c0 -22 -7 -37 -22 -56h-27c19 19 26 38 26 56c0 29 -16 45 -42 45c-23 0 -38 -12 -46 -37z"/>
<glyph horiz-adv-x="636" unicode="Α" glyph-name="Alpha" d="M615 0h-37l-74 179h-372l-74 -179h-37l278 667h38zM492 209l-174 421l-174 -421h348z"/>
<glyph horiz-adv-x="600" unicode="Β" glyph-name="Beta" d="M343 0h-255v667h251c107 0 182 -60 182 -170c0 -84 -59 -141 -118 -153c71 -11 131 -87 131 -164c0 -114 -74 -180 -191 -180zM339 358c98 0 147 62 147 139c0 76 -49 140 -147 140h-219v-279h219zM343 30c98 0 156 58 156 149c0 76 -52 149 -156 149h-223v-298h223z"/>
<glyph horiz-adv-x="533" unicode="Γ" glyph-name="Gamma" d="M120 0h-32v667h408v-30h-376v-637z"/>
<glyph horiz-adv-x="636" unicode="Δ" glyph-name="uni0394" d="M615 0h-594l278 667h38zM567 30l-249 600l-249 -600h498z"/>
<glyph horiz-adv-x="636" unicode="∆" glyph-name="Delta" d="M615 0h-594l278 667h38zM567 30l-249 600l-249 -600h498z"/>
<glyph horiz-adv-x="558" unicode="Ε" glyph-name="Epsilon" d="M496 0h-408v667h408v-30h-376v-279h369v-30h-369v-298h376v-30z"/>
<glyph horiz-adv-x="578" unicode="Ζ" glyph-name="Zeta" d="M525 0h-472v30l427 607h-427v30h465v-30l-428 -607h435v-30z"/>
<glyph horiz-adv-x="695" unicode="Η" glyph-name="Eta" d="M607 0h-32v328h-455v-328h-32v667h32v-309h455v309h32v-667z"/>
<glyph horiz-adv-x="764" unicode="Θ" glyph-name="Theta" d="M597 328h-430v30h430v-30zM382 -12c-194 0 -317 152 -317 345s123 345 317 345c193 0 317 -152 317 -345s-124 -345 -317 -345zM382 18c171 0 282 134 282 315c0 183 -111 315 -282 315c-173 0 -282 -132 -282 -315c0 -181 109 -315 282 -315z"/>
<glyph horiz-adv-x="208" unicode="Ι" glyph-name="Iota" d="M120 0h-32v667h32v-667z"/>
<glyph horiz-adv-x="571" unicode="Κ" glyph-name="Kappa" d="M540 0h-43l-297 328l-80 -87v-241h-32v667h32v-385l347 385h43l-290 -319z"/>
<glyph horiz-adv-x="636" unicode="Λ" glyph-name="Lambda" d="M615 0h-37l-260 630l-260 -630h-37l278 667h38z"/>
<glyph horiz-adv-x="770" unicode="Μ" glyph-name="Mu" d="M682 0h-32v629l-260 -629h-10l-260 629v-629h-32v667h51l246 -597l246 597h51v-667z"/>
<glyph horiz-adv-x="690" unicode="Ν" glyph-name="Nu" d="M602 0h-32l-450 615v-615h-32v667h32l450 -609v609h32v-667z"/>
<glyph horiz-adv-x="608" unicode="Ξ" glyph-name="Xi" d="M546 637h-483v30h483v-30zM545 0h-483v30h483v-30zM539 328h-469v30h469v-30z"/>
<glyph horiz-adv-x="764" unicode="Ο" glyph-name="Omicron" d="M382 -12c-194 0 -317 152 -317 345s123 345 317 345c193 0 317 -152 317 -345s-124 -345 -317 -345zM382 18c171 0 282 134 282 315c0 183 -111 315 -282 315c-173 0 -282 -132 -282 -315c0 -181 109 -315 282 -315z"/>
<glyph horiz-adv-x="695" unicode="Π" glyph-name="Pi" d="M607 0h-32v637h-455v-637h-32v667h519v-667z"/>
<glyph horiz-adv-x="555" unicode="Ρ" glyph-name="Rho" d="M120 0h-32v667h231c124 0 195 -87 195 -189s-73 -189 -195 -189h-199v-289zM318 319c98 0 161 67 161 159s-63 159 -161 159h-198v-318h198z"/>
<glyph horiz-adv-x="567" unicode="Σ" glyph-name="Sigma" d="M101 637l254 -292l-256 -315h406v-30h-443v30l255 314l-254 293v30h442v-30h-404z"/>
<glyph horiz-adv-x="559" unicode="Τ" glyph-name="Tau" d="M295 0h-32v637h-225v30h483v-30h-226v-637z"/>
<glyph horiz-adv-x="610" unicode="Υ" glyph-name="Upsilon" d="M321 0h-32v289l-268 378h41l243 -346l243 346h41l-268 -378v-289z"/>
<glyph horiz-adv-x="764" unicode="Φ" glyph-name="Phi" d="M398 0h-32v64c-185 6 -301 122 -301 269s116 262 301 269v65h32v-65c184 -7 301 -122 301 -269s-117 -263 -301 -269v-64zM100 333c0 -134 102 -233 266 -239v478c-164 -6 -266 -105 -266 -239zM664 333c0 134 -104 233 -266 239v-478c162 6 266 105 266 239z"/>
<glyph horiz-adv-x="638" unicode="Χ" glyph-name="Chi" d="M613 0h-42l-252 318l-252 -318h-42l276 342l-261 325h43l236 -299l236 299h43l-261 -324z"/>
<glyph horiz-adv-x="736" unicode="Ψ" glyph-name="Psi" d="M384 0h-32v124c-173 6 -264 106 -264 265v278h32v-278c0 -143 81 -230 232 -235v513h32v-513c150 5 232 92 232 235v278h32v-278c0 -160 -92 -260 -264 -265v-124z"/>
<glyph horiz-adv-x="764" unicode="Ω" glyph-name="uni03A9" d="M84 30h148c-102 58 -167 157 -167 303c0 193 123 345 317 345s317 -152 317 -345c0 -146 -64 -245 -166 -303h148v-30h-215v30c90 22 198 120 198 303s-109 314 -282 314s-282 -131 -282 -314s109 -281 199 -303v-30h-215v30z"/>
<glyph horiz-adv-x="764" unicode="Ω" glyph-name="Omega" d="M84 30h148c-102 58 -167 157 -167 303c0 193 123 345 317 345s317 -152 317 -345c0 -146 -64 -245 -166 -303h148v-30h-215v30c90 22 198 120 198 303s-109 314 -282 314s-282 -131 -282 -314s109 -281 199 -303v-30h-215v30z"/>
<glyph horiz-adv-x="580" unicode="α" glyph-name="alpha" d="M552 17l3 -27c-6 -1 -14 -2 -23 -2c-56 0 -81 37 -82 93c-33 -50 -98 -93 -174 -93c-130 0 -216 100 -216 253c0 152 86 254 216 254c72 0 135 -38 174 -95v83h30v-398c0 -41 17 -70 52 -70c7 0 16 1 20 2zM276 15c75 0 144 45 174 96v259c-30 51 -99 98 -174 98 c-118 0 -183 -100 -183 -227s65 -226 183 -226z"/>
<glyph horiz-adv-x="566" unicode="β" glyph-name="beta" d="M116 461v-350c30 -51 99 -96 174 -96c118 0 183 63 183 162c0 109 -90 154 -192 154h-31v27h31c93 0 177 44 177 145c0 92 -74 147 -160 147c-94 0 -182 -59 -182 -189zM116 81v-265h-30v645c0 147 100 216 212 216c99 0 193 -61 193 -174c0 -108 -85 -149 -137 -158 c55 -5 152 -54 152 -168c0 -116 -86 -189 -213 -189c-79 0 -144 43 -177 93z"/>
<glyph horiz-adv-x="471" unicode="γ" glyph-name="gamma" d="M251 -184h-30v159c0 200 -98 396 -220 508h40c102 -95 192 -285 207 -436c89 118 158 281 158 436h30c0 -155 -72 -333 -185 -479v-188z"/>
<glyph horiz-adv-x="570" unicode="δ" glyph-name="delta" d="M285 -12c-136 0 -225 107 -225 222c0 110 67 193 166 228c-60 22 -106 50 -106 113c0 71 60 128 164 128c83 0 135 -33 166 -73l-22 -20c-28 40 -79 66 -144 66c-84 0 -134 -44 -134 -101c0 -142 360 -57 360 -341c0 -115 -88 -222 -225 -222zM480 210 c0 144 -111 180 -209 212c-117 -30 -178 -110 -178 -212c0 -91 69 -195 192 -195c124 0 195 104 195 195z"/>
<glyph horiz-adv-x="523" unicode="ε" glyph-name="epsilon" d="M271 -12c-135 0 -211 60 -211 139c0 84 90 115 144 119c-51 6 -134 41 -134 121c0 83 98 128 211 128c88 0 148 -31 192 -76l-20 -18c-43 46 -99 67 -172 67c-100 0 -179 -40 -179 -101c0 -74 88 -108 180 -108h116v-27h-116c-100 0 -189 -25 -189 -105 c0 -69 74 -112 178 -112c84 0 149 25 194 73l18 -19c-49 -51 -117 -81 -212 -81z"/>
<glyph horiz-adv-x="493" unicode="ζ" glyph-name="zeta" d="M410 -59c0 37 -24 47 -77 47c-161 0 -273 85 -273 224c0 175 136 313 342 428h-326v27h367v-27c-228 -135 -350 -262 -350 -428c0 -123 98 -197 242 -197c73 0 108 -17 108 -74c0 -27 -12 -58 -35 -98h-35c22 38 37 67 37 98z"/>
<glyph unicode="η" glyph-name="eta" d="M442 -184h-30v521c0 101 -50 131 -125 131c-66 0 -137 -43 -171 -91v-377h-30v483h30v-76c36 44 108 88 175 88c96 0 151 -44 151 -158v-521z"/>
<glyph horiz-adv-x="570" unicode="θ" glyph-name="theta" d="M285 -12c-156 0 -225 153 -225 346c0 194 69 345 225 345c157 0 225 -151 225 -345c0 -193 -68 -346 -225 -346zM285 15c139 0 189 145 192 307h-384c2 -162 53 -307 192 -307zM285 652c-138 0 -189 -145 -192 -303h384c-3 158 -53 303 -192 303z"/>
<glyph horiz-adv-x="216" unicode="ι" glyph-name="iota" d="M168 -12c-56 0 -82 37 -82 97v398h30v-398c0 -41 16 -70 52 -70c7 0 16 1 20 2l3 -27c-6 -1 -14 -2 -23 -2z"/>
<glyph horiz-adv-x="496" unicode="κ" glyph-name="kappa" d="M471 0h-43l-212 243l-100 -92v-151h-30v483h30v-294l315 294h43l-235 -218z"/>
<glyph horiz-adv-x="471" unicode="λ" glyph-name="lambda" d="M56 644l-6 28c12 4 31 7 48 7c48 0 83 -30 106 -82l256 -597h-35l-189 448l-190 -448h-35l207 486l-44 100c-22 52 -44 66 -76 66c-12 0 -31 -3 -42 -8z"/>
<glyph horiz-adv-x="542" unicode="μ" glyph-name="uni03BC" d="M116 53v-237h-30v667h30v-339c0 -94 50 -131 127 -131c64 0 135 42 169 90v380h30v-398c0 -41 16 -70 52 -70c7 0 16 1 20 2l3 -27c-6 -1 -14 -2 -23 -2c-56 0 -78 36 -82 86c-40 -46 -104 -86 -169 -86c-74 0 -110 30 -127 65z"/>
<glyph horiz-adv-x="542" unicode="µ" glyph-name="mu" d="M116 53v-237h-30v667h30v-339c0 -94 50 -131 127 -131c64 0 135 42 169 90v380h30v-398c0 -41 16 -70 52 -70c7 0 16 1 20 2l3 -27c-6 -1 -14 -2 -23 -2c-56 0 -78 36 -82 86c-40 -46 -104 -86 -169 -86c-74 0 -110 30 -127 65z"/>
<glyph horiz-adv-x="471" unicode="ν" glyph-name="nu" d="M248 0h-30l-207 483h35l191 -451c100 133 169 296 169 451h30c0 -156 -73 -336 -188 -483z"/>
<glyph horiz-adv-x="493" unicode="ξ" glyph-name="xi" d="M333 -12c-173 0 -273 68 -273 189c0 114 97 164 152 169c-52 9 -142 49 -142 145c0 63 53 126 118 149h-112v27h355v-27h-186c-80 -18 -142 -86 -142 -149c0 -89 89 -132 182 -132h139v-27h-139c-102 0 -192 -46 -192 -155c0 -102 88 -162 242 -162c73 0 108 -17 108 -74 c0 -27 -12 -58 -35 -98h-35c22 38 37 67 37 98c0 37 -24 47 -77 47z"/>
<glyph horiz-adv-x="570" unicode="ο" glyph-name="omicron" d="M285 -12c-136 0 -225 112 -225 254s89 253 225 253c137 0 225 -111 225 -253s-88 -254 -225 -254zM285 15c124 0 192 109 192 227c0 117 -68 226 -192 226c-123 0 -192 -109 -192 -226c0 -118 69 -227 192 -227z"/>
<glyph horiz-adv-x="540" unicode="π" glyph-name="pi" d="M448 0h-30v456h-296v-456h-30v456h-80v27h516v-27h-80v-456z"/>
<glyph horiz-adv-x="562" unicode="ρ" glyph-name="rho" d="M290 -12c-72 0 -135 38 -174 95v-267h-30v426c0 142 82 253 209 253c129 0 211 -111 211 -253c0 -152 -86 -254 -216 -254zM290 15c118 0 183 100 183 227c0 117 -63 226 -179 226c-115 0 -178 -109 -178 -226v-129c30 -51 99 -98 174 -98z"/>
<glyph horiz-adv-x="475" unicode="ς" glyph-name="sigma1" d="M328 -12c-166 0 -268 94 -268 254c0 139 88 253 228 253c79 0 124 -30 165 -81l-22 -18c-39 53 -85 72 -141 72c-124 0 -197 -100 -197 -226c0 -152 97 -227 237 -227c73 0 108 -17 108 -74c0 -27 -12 -58 -35 -98h-30c22 38 37 67 37 98c0 37 -29 47 -82 47z"/>
<glyph horiz-adv-x="570" unicode="σ" glyph-name="sigma" d="M510 234c0 -134 -88 -246 -225 -246c-136 0 -225 112 -225 254c0 132 89 241 244 241h236v-27h-136c58 -44 106 -108 106 -222zM477 234c0 108 -54 188 -126 222h-47c-142 0 -211 -107 -211 -214c0 -118 69 -227 192 -227c124 0 192 109 192 219z"/>
<glyph horiz-adv-x="457" unicode="τ" glyph-name="tau" d="M295 -12c-56 0 -82 37 -82 97v371h-182v27h395v-27h-183v-371c0 -41 16 -70 52 -70c24 0 45 12 57 26l18 -23c-19 -18 -39 -30 -75 -30z"/>
<glyph horiz-adv-x="549" unicode="υ" glyph-name="upsilon" d="M264 -12c-117 0 -178 84 -178 219v276h30v-276c0 -119 53 -192 148 -192c124 0 192 109 192 227c0 92 -26 171 -85 233l24 20c58 -66 94 -152 94 -253c0 -142 -88 -254 -225 -254z"/>
<glyph horiz-adv-x="700" unicode="φ" glyph-name="phi" d="M640 242c0 -139 -88 -248 -275 -254v-172h-30v172c-186 6 -275 116 -275 265c0 115 81 197 173 242l14 -23c-92 -48 -154 -116 -154 -219c0 -125 66 -232 242 -238v480h15c198 0 290 -112 290 -253zM607 242c0 117 -68 219 -242 226v-453c176 5 242 112 242 227z"/>
<glyph horiz-adv-x="472" unicode="χ" glyph-name="chi" d="M450 -184h-35l-179 315l-179 -315h-35l197 343l-186 324h35l168 -296l168 296h35l-186 -324z"/>
<glyph horiz-adv-x="700" unicode="ψ" glyph-name="psi" d="M365 -184h-30v172c-163 5 -249 88 -249 219v276h30v-276c0 -115 77 -187 219 -192v652h30v-652c140 5 219 77 219 192v276h30v-276c0 -132 -86 -214 -249 -219v-172z"/>
<glyph horiz-adv-x="770" unicode="ω" glyph-name="omega" d="M710 242c0 -142 -67 -254 -170 -254c-95 0 -142 90 -155 155c-13 -65 -60 -155 -155 -155c-103 0 -170 112 -170 254c0 105 26 202 92 253l19 -23c-63 -53 -78 -139 -78 -230c0 -118 50 -227 139 -227c90 0 138 109 138 227v124h30v-124c0 -118 48 -227 138 -227 c89 0 139 109 139 227c0 91 -15 177 -78 230l19 23c66 -51 92 -148 92 -253z"/>
<glyph horiz-adv-x="636" unicode="Ά" glyph-name="Alphatonos" d="M197 575h-22l17 190h52zM615 0h-37l-74 179h-372l-74 -179h-37l278 667h38zM492 209l-174 421l-174 -421h348z"/>
<glyph horiz-adv-x="558" unicode="Έ" glyph-name="Epsilontonos" d="M13 575h-22l17 190h52zM496 0h-408v667h408v-30h-376v-279h369v-30h-369v-298h376v-30z"/>
<glyph horiz-adv-x="695" unicode="Ή" glyph-name="Etatonos" d="M13 575h-22l17 190h52zM607 0h-32v328h-455v-328h-32v667h32v-309h455v309h32v-667z"/>
<glyph horiz-adv-x="208" unicode="Ί" glyph-name="Iotatonos" d="M13 575h-22l17 190h52zM120 0h-32v667h32v-667z"/>
</font>
</defs>
</svg>
